{
.appVersion = "1342";
classes = (
{
automatic = 1;

glyphs = (
{
color = 4;
glyphname = A;
layers = (
{
anchors = (
{
name = bottom;
position = "{358, 0}";
},
{
name = ogonek;
position = "{687, 0}";
},
{
name = top;
position = "{358, 705}";
}
);
background = {
anchors = (
{
name = bottom;
position = "{363, 0}";
},
{
name = ogonek;
position = "{689, 10}";
},
{
name = top;
position = "{363, 712}";
}
);
paths = (
{
closed = 1;
nodes = (
"376 676 LINE",
"349 676 LINE",
"639 0 LINE",
"696 0 LINE",
"388 712 LINE",
"337 712 LINE",
"29 0 LINE",
"86 0 LINE"
);
},
{
closed = 1;
nodes = (
"572 193 LINE",
"554 241 LINE",
"173 241 LINE",
"157 193 LINE"
);
}
);
};
layerId = "2567DF27-EA2D-46C8-A1A0-FA57AF1B0F16";
paths = (
{
closed = 1;
nodes = (
"79 0 LINE",
"166 204 LINE",
"138 195 LINE",
"575 195 LINE",
"552 204 LINE",
"641 0 LINE",
"687 0 LINE",
"378 705 LINE",
"337 705 LINE",
"34 0 LINE"
);
},
{
closed = 1;
nodes = (
"358 649 LINE",
"542 228 LINE",
"558 234 LINE",
"155 234 LINE",
"177 228 LINE",
"356 649 LINE"
);
}
);
width = 721;
},
{
anchors = (
{
name = bottom;
position = "{390, 0}";
},
{
name = ogonek;
position = "{731, 0}";
},
{
name = top;
position = "{390, 705}";
}
);
background = {
anchors = (
{
name = bottom;
position = "{381, 0}";
},
{
name = ogonek;
position = "{713, 10}";
},
{
name = top;
position = "{380, 712}";
}
);
paths = (
{
closed = 1;
nodes = (
"401 583 LINE",
"363 583 LINE",
"613 0 LINE",
"774 0 LINE",
"445 712 LINE",
"315 712 LINE",
"-13 0 LINE",
"150 0 LINE"
);
},
{
closed = 1;
nodes = (
"615 156 LINE",
"553 279 LINE",
"198 279 LINE",
"136 156 LINE"
);
}
);
};
layerId = "FFBF88B9-CE65-4AF8-A771-12A489880E49";
paths = (
{
closed = 1;
nodes = (
"181 0 LINE",
"265 191 LINE",
"185 131 LINE",
"594 131 LINE",
"513 191 LINE",
"597 0 LINE",
"813 0 LINE",
"476 705 LINE",
"301 705 LINE",
"-34 0 LINE"
);
},
{
closed = 1;
nodes = (
"393 485 LINE",
"497 238 LINE",
"524 294 LINE",
"255 294 LINE",
"285 238 LINE",
"388 485 LINE"
);
}
);
width = 779;
},
{
anchors = (
{
name = bottom;
position = "{374, 0}";
},
{
name = ogonek;
position = "{709, 0}";
},
{
name = top;
position = "{374, 705}";
}
);
layerId = "36495FFF-A792-4E19-9295-2592132C4E2F";
paths = (
{
closed = 1;
nodes = (
"130 0 LINE",
"216 198 LINE",
"162 163 LINE",
"585 163 LINE",
"533 198 LINE",
"619 0 LINE",
"750 0 LINE",
"427 705 LINE",
"319 705 LINE",
"0 0 LINE"
);
},
{
closed = 1;
nodes = (
"376 567 LINE",
"520 233 LINE",
"541 264 LINE",
"205 264 LINE",
"231 233 LINE",
"372 567 LINE"
);
}
);
width = 750;
}
);
leftKerningGroup = A;
rightKerningGroup = A;
unicode = 0041;
userData = {
anchors = (
);
b = {
};
com.typemytype.robofont.layerData = {
b = {
anchors = (
);
components = (
);
contours = (
{
points = (
{
segmentType = line;
smooth = 0;
x = 403;
y = 502;
},
{
segmentType = line;
smooth = 0;
x = 703;
y = 1275;
},
{
segmentType = line;
smooth = 0;
x = 705;
y = 1275;
},
{
segmentType = line;
smooth = 0;
x = 1004;
y = 502;
}
);
},
{
points = (
{
segmentType = curve;
smooth = 1;
x = 150;
y = 0;
},
{
smooth = 0;
x = 181;
y = 0;
},
{
smooth = 0;
x = 214;
y = 15;
},
{
segmentType = curve;
smooth = 1;
x = 229;
y = 53;
},
{
segmentType = line;
smooth = 0;
x = 356;
y = 373;
},
{
segmentType = line;
smooth = 0;
x = 1051;
y = 373;
},
{
segmentType = line;
smooth = 1;
x = 1179;
y = 53;
},
{
smooth = 0;
x = 1193;
y = 17;
},
{
smooth = 0;
x = 1228;
y = 0;
},
{
segmentType = curve;
smooth = 1;
x = 1260;
y = 0;
},
{
smooth = 0;
x = 1306;
y = 0;
},
{
smooth = 0;
x = 1354;
y = 31;
},
{
segmentType = curve;
smooth = 1;
x = 1354;
y = 80;
},
{
smooth = 0;
x = 1354;
y = 87;
},
{
smooth = 0;
x = 1352;
y = 97;
},
{
segmentType = curve;
smooth = 0;
x = 1349;
y = 108;
},
{
segmentType = line;
smooth = 1;
x = 871;
y = 1288;
},
{
smooth = 0;
x = 817;
y = 1420;
},
{
smooth = 0;
x = 777;
y = 1430;
},
{
segmentType = curve;
smooth = 1;
x = 710;
y = 1430;
},
{
smooth = 0;
x = 644;
y = 1430;
},
{
smooth = 0;
x = 596;
y = 1413;
},
{
segmentType = curve;
smooth = 1;
x = 542;
y = 1280;
},
{
segmentType = line;
smooth = 1;
x = 66;
y = 108;
},
{
smooth = 0;
x = 62;
y = 97;
},
{
smooth = 0;
x = 60;
y = 87;
},
{
segmentType = curve;
smooth = 1;
x = 60;
y = 78;
},
{
smooth = 0;
x = 60;
y = 32;
},
{
smooth = 0;
x = 106;
y = 0;
}
);
}
);
lib = {
};
name = A;
unicodes = (
);
width = 1414;
};
};
components = (
);
contours = {
};
lib = {
};
name = A;
points = {
};
segmentType = line;
unicodes = (
);
width = 1445;
x = 718;
y = 1232;
};
},
{
glyphname = Aogonek;
layers = (
{
background = {
paths = (
{
closed = 1;
nodes = (
"572 193 LINE",
"554 241 LINE",
"173 241 LINE",
"157 193 LINE"
);
},
{
closed = 1;
nodes = (
"703 -143 OFFCURVE",
"681 -149 OFFCURVE",
"665 -149 CURVE SMOOTH",
"624 -149 OFFCURVE",
"596 -126 OFFCURVE",
"596 -83 CURVE SMOOTH",
"596 -38 OFFCURVE",
"624 0 OFFCURVE",
"689 0 CURVE SMOOTH",
"696 0 LINE",
"388 712 LINE",
"337 712 LINE",
"29 0 LINE",
"86 0 LINE",
"376 676 LINE",
"349 676 LINE",
"639 0 LINE",
"663 38 LINE",
"586 21 OFFCURVE",
"545 -28 OFFCURVE",
"545 -89 CURVE SMOOTH",
"545 -149 OFFCURVE",
"591 -193 OFFCURVE",
"660 -193 CURVE SMOOTH",
"693 -193 OFFCURVE",
"721 -183 OFFCURVE",
"740 -170 CURVE",
"724 -131 LINE"
);
}
);
};
components = (
{
name = A;
},
{
name = ogonekcomb;
transform = "{1, 0, 0, 1, 687, 0}";
}
);
layerId = "2567DF27-EA2D-46C8-A1A0-FA57AF1B0F16";
width = 721;
},
{
background = {
paths = (
{
closed = 1;
nodes = (
"615 156 LINE",
"553 279 LINE",
"198 279 LINE",
"136 156 LINE"
);
},
{
closed = 1;
nodes = (
"740 -114 OFFCURVE",
"722 -118 OFFCURVE",
"705 -118 CURVE SMOOTH",
"667 -118 OFFCURVE",
"645 -100 OFFCURVE",
"645 -65 CURVE SMOOTH",
"645 -27 OFFCURVE",
"675 0 OFFCURVE",
"720 0 CURVE SMOOTH",
"774 0 LINE",
"445 712 LINE",
"315 712 LINE",
"-13 0 LINE",
"150 0 LINE",
"401 583 LINE",
"363 583 LINE",
"613 0 LINE",
"634 33 LINE",
"577 11 OFFCURVE",
"545 -35 OFFCURVE",
"545 -88 CURVE SMOOTH",
"545 -156 OFFCURVE",
"602 -199 OFFCURVE",
"675 -199 CURVE SMOOTH",
"711 -199 OFFCURVE",
"746 -192 OFFCURVE",
"777 -179 CURVE",
"760 -106 LINE"
);
}
);
};
components = (
{
name = A;
},
{
name = ogonekcomb;
transform = "{1, 0, 0, 1, 731, 0}";
}
);
layerId = "FFBF88B9-CE65-4AF8-A771-12A489880E49";
width = 779;
},
{
components = (
{
name = A;
},
{
name = ogonekcomb;
transform = "{1, 0, 0, 1, 709, 0}";
}
);
layerId = "36495FFF-A792-4E19-9295-2592132C4E2F";
width = 750;
}
);
leftKerningGroup = A;
rightKerningGroup = A;
unicode = 0104;
},
{
glyphname = Aring;
layers = (
{
background = {
paths = (
{
closed = 1;
nodes = (
"417 682 OFFCURVE",
"462 724 OFFCURVE",
"462 779 CURVE SMOOTH",
"462 833 OFFCURVE",
"417 876 OFFCURVE",
"363 876 CURVE SMOOTH",
"308 876 OFFCURVE",
"264 833 OFFCURVE",
"264 779 CURVE SMOOTH",
"264 724 OFFCURVE",
"308 682 OFFCURVE",
"363 682 CURVE SMOOTH"
);
},
{
closed = 1;
nodes = (
"333 726 OFFCURVE",
"312 749 OFFCURVE",
"312 779 CURVE SMOOTH",
"312 808 OFFCURVE",
"333 831 OFFCURVE",
"363 831 CURVE SMOOTH",
"392 831 OFFCURVE",
"413 808 OFFCURVE",
"413 779 CURVE SMOOTH",
"413 749 OFFCURVE",
"392 726 OFFCURVE",
"363 726 CURVE SMOOTH"
);
},
{
closed = 1;
nodes = (
"376 676 LINE",
"349 676 LINE",
"639 0 LINE",
"696 0 LINE",
"388 712 LINE",
"337 712 LINE",
"29 0 LINE",
"86 0 LINE"
);
},
{
closed = 1;
nodes = (
"572 193 LINE",
"554 241 LINE",
"173 241 LINE",
"157 193 LINE"
);
}
);
};
components = (
{
name = A;
},
{
name = ringcomb.case;
transform = "{1, 0, 0, 1, 358, 0}";
}
);
layerId = "2567DF27-EA2D-46C8-A1A0-FA57AF1B0F16";
width = 721;
},
{
background = {
paths = (
{
closed = 1;
nodes = (
"442 677 OFFCURVE",
"492 724 OFFCURVE",
"492 786 CURVE SMOOTH",
"492 847 OFFCURVE",
"442 895 OFFCURVE",
"381 895 CURVE SMOOTH",
"319 895 OFFCURVE",
"270 847 OFFCURVE",
"270 786 CURVE SMOOTH",
"270 724 OFFCURVE",
"319 677 OFFCURVE",
"381 677 CURVE SMOOTH"
);
},
{
closed = 1;
nodes = (
"356 740 OFFCURVE",
"337 761 OFFCURVE",
"337 786 CURVE SMOOTH",
"337 811 OFFCURVE",
"356 831 OFFCURVE",
"381 831 CURVE SMOOTH",
"406 831 OFFCURVE",
"424 811 OFFCURVE",
"424 786 CURVE SMOOTH",
"424 761 OFFCURVE",
"406 740 OFFCURVE",
"381 740 CURVE SMOOTH"
);
},
{
closed = 1;
nodes = (
"401 583 LINE",
"363 583 LINE",
"613 0 LINE",
"774 0 LINE",
"445 712 LINE",
"315 712 LINE",
"-13 0 LINE",
"150 0 LINE"
);
},
{
closed = 1;
nodes = (
"615 156 LINE",
"553 279 LINE",
"198 279 LINE",
"136 156 LINE"
);
}
);
};
components = (
{
name = A;
},
{
name = ringcomb.case;
transform = "{1, 0, 0, 1, 390, 0}";
}
);
layerId = "FFBF88B9-CE65-4AF8-A771-12A489880E49";
width = 779;
},
{
components = (
{
name = A;
},
{
name = ringcomb.case;
transform = "{1, 0, 0, 1, 374, 0}";
}
);
layerId = "36495FFF-A792-4E19-9295-2592132C4E2F";
width = 750;
}
);
leftKerningGroup = A;
rightKerningGroup = A;
unicode = 00C5;
},
{
glyphname = Aringacute;
layers = (
{
background = {
paths = (
{
closed = 1;
nodes = (
"86 0 LINE",
"376 676 LINE",
"349 676 LINE",
"639 0 LINE",
"696 0 LINE",
"388 712 LINE",
"337 712 LINE",
"29 0 LINE"
);
},
{
closed = 1;
nodes = (
"572 193 LINE",
"554 241 LINE",
"173 241 LINE",
"157 193 LINE"
);
},
{
closed = 1;
nodes = (
"417 682 OFFCURVE",
"462 724 OFFCURVE",
"462 779 CURVE SMOOTH",
"462 833 OFFCURVE",
"417 876 OFFCURVE",
"363 876 CURVE SMOOTH",
"308 876 OFFCURVE",
"264 833 OFFCURVE",
"264 779 CURVE SMOOTH",
"264 724 OFFCURVE",
"308 682 OFFCURVE",
"363 682 CURVE SMOOTH"
);
},
{
closed = 1;
nodes = (
"333 726 OFFCURVE",
"312 749 OFFCURVE",
"312 779 CURVE SMOOTH",
"312 808 OFFCURVE",
"333 831 OFFCURVE",
"363 831 CURVE SMOOTH",
"392 831 OFFCURVE",
"413 808 OFFCURVE",
"413 779 CURVE SMOOTH",
"413 749 OFFCURVE",
"392 726 OFFCURVE",
"363 726 CURVE SMOOTH"
);
},
{
closed = 1;
nodes = (
"578 948 LINE",
"504 948 LINE",
"402 843 LINE",
"435 826 LINE"
);
}
);
};
components = (
{
name = A;
},
{
name = ringcomb_acutecomb.case;
transform = "{1, 0, 0, 1, 358, 0}";
}
);
layerId = "2567DF27-EA2D-46C8-A1A0-FA57AF1B0F16";
width = 721;
},
{
background = {
paths = (
{
closed = 1;
nodes = (
"150 0 LINE",
"401 583 LINE",
"363 583 LINE",
"613 0 LINE",
"774 0 LINE",
"445 712 LINE",
"315 712 LINE",
"-13 0 LINE"
);
},
{
closed = 1;
nodes = (
"615 156 LINE",
"553 279 LINE",
"198 279 LINE",
"136 156 LINE"
);
},
{
closed = 1;
nodes = (
"442 677 OFFCURVE",
"492 724 OFFCURVE",
"492 786 CURVE SMOOTH",
"492 847 OFFCURVE",
"442 895 OFFCURVE",
"381 895 CURVE SMOOTH",
"319 895 OFFCURVE",
"270 847 OFFCURVE",
"270 786 CURVE SMOOTH",
"270 724 OFFCURVE",
"319 677 OFFCURVE",
"381 677 CURVE SMOOTH"
);
},
{
closed = 1;
nodes = (
"356 740 OFFCURVE",
"337 761 OFFCURVE",
"337 786 CURVE SMOOTH",
"337 811 OFFCURVE",
"356 831 OFFCURVE",
"381 831 CURVE SMOOTH",
"406 831 OFFCURVE",
"424 811 OFFCURVE",
"424 786 CURVE SMOOTH",
"424 761 OFFCURVE",
"406 740 OFFCURVE",
"381 740 CURVE SMOOTH"
);
},
{
closed = 1;
nodes = (
"635 955 LINE",
"491 955 LINE",
"411 868 LINE",
"475 822 LINE"
);
}
);
};
components = (
{
name = A;
},
{
name = ringcomb_acutecomb.case;
transform = "{1, 0, 0, 1, 390, 0}";
}
);
layerId = "FFBF88B9-CE65-4AF8-A771-12A489880E49";
width = 779;
},
{
components = (
{
name = A;
},
{
name = ringcomb_acutecomb.case;
transform = "{1, 0, 0, 1, 374, 0}";
}
);
layerId = "36495FFF-A792-4E19-9295-2592132C4E2F";
width = 750;
}
);
leftKerningGroup = A;
rightKerningGroup = A;
unicode = 01FA;
},
{
color = 4;
glyphname = AE;
layers = (
{
anchors = (
{
name = bottom;
position = "{515, 0}";
},
{
name = top;
position = "{514, 705}";
}
);
background = {
anchors = (
{
name = bottom;
position = "{502, 0}";
},
{
name = top;
position = "{501, 712}";
}
);
paths = (
{
closed = 1;
nodes = (
"68 0 LINE",
"466 672 LINE",
"441 663 LINE",
"943 663 LINE",
"943 712 LINE",
"436 712 LINE",
"9 0 LINE"
);
},
{
closed = 1;
nodes = (
"575 193 LINE",
"566 241 LINE",
"164 241 LINE",
"147 193 LINE"
);
},
{
closed = 1;
nodes = (
"943 0 LINE",
"943 49 LINE",
"607 49 LINE",
"546 688 LINE",
"498 688 LINE",
"563 0 LINE"
);
},
{
closed = 1;
nodes = (
"923 337 LINE",
"923 386 LINE",
"564 386 LINE",
"564 337 LINE"
);
}
);
};
guideLines = (
{
angle = 95.3971;
position = "{531, 344}";
},
{
angle = 95.3971;
position = "{573, 344}";
}
);
layerId = "2567DF27-EA2D-46C8-A1A0-FA57AF1B0F16";
paths = (
{
closed = 1;
nodes = (
"64 0 LINE",
"189 207 LINE",
"170 195 LINE",
"568 195 LINE",
"544 198 LINE",
"563 0 LINE",
"939 0 LINE",
"939 39 LINE",
"597 39 LINE",
"604 20 LINE",
"572 348 LINE",
"564 338 LINE",
"918 338 LINE",
"918 377 LINE",
"554 377 LINE",
"571 366 LINE",
"540 690 LINE",
"520 666 LINE",
"939 666 LINE",
"939 705 LINE",
"437 705 LINE",
"14 0 LINE"
);
},
{
closed = 1;
nodes = (
"500 665 LINE",
"542 225 LINE",
"549 234 LINE",
"190 234 LINE",
"199 224 LINE",
"461 665 LINE"
);
}
);
width = 996;
},
{
anchors = (
{
name = bottom;
position = "{523, 0}";
},
{
name = top;
position = "{524, 705}";
}
);
background = {
anchors = (
{
name = bottom;
position = "{510, 0}";
},
{
name = top;
position = "{510, 712}";
}
);
paths = (
{
closed = 1;
nodes = (
"143 0 LINE",
"503 607 LINE",
"472 586 LINE",
"975 586 LINE",
"975 712 LINE",
"416 712 LINE",
"-33 0 LINE"
);
},
{
closed = 1;
nodes = (
"592 156 LINE",
"556 279 LINE",
"200 279 LINE",
"137 156 LINE"
);
},
{
closed = 1;
nodes = (
"975 0 LINE",
"975 126 LINE",
"687 126 LINE",
"651 639 LINE",
"505 639 LINE",
"548 0 LINE"
);
},
{
closed = 1;
nodes = (
"954 299 LINE",
"954 425 LINE",
"573 425 LINE",
"573 299 LINE"
);
}
);
};
guideLines = (
{
angle = -86.1502;
position = "{527, 320}";
},
{
angle = -86.1502;
position = "{727, 220}";
}
);
layerId = "FFBF88B9-CE65-4AF8-A771-12A489880E49";
paths = (
{
closed = 1;
nodes = (
"173 0 LINE",
"287 186 LINE",
"228 131 LINE",
"568 131 LINE",
"535 189 LINE",
"548 0 LINE",
"1010 0 LINE",
"1010 164 LINE",
"705 164 LINE",
"730 127 LINE",
"720 285 LINE",
"690 276 LINE",
"987 276 LINE",
"987 440 LINE",
"694 440 LINE",
"713 381 LINE",
"701 559 LINE",
"675 541 LINE",
"1010 541 LINE",
"1010 705 LINE",
"403 705 LINE",
"-54 0 LINE"
);
},
{
closed = 1;
nodes = (
"512 541 LINE",
"533 235 LINE",
"547 295 LINE",
"309 295 LINE",
"321 243 LINE",
"502 541 LINE"
);
}
);
width = 1037;
},
{
anchors = (
{
name = bottom;
position = "{519, 0}";
},
{
name = top;
position = "{519, 705}";
}
);
layerId = "36495FFF-A792-4E19-9295-2592132C4E2F";
paths = (
{
closed = 1;
nodes = (
"119 0 LINE",
"238 197 LINE",
"199 163 LINE",
"568 163 LINE",
"540 194 LINE",
"556 0 LINE",
"975 0 LINE",
"975 102 LINE",
"651 102 LINE",
"667 74 LINE",
"646 317 LINE",
"627 307 LINE",
"953 307 LINE",
"953 409 LINE",
"624 409 LINE",
"642 374 LINE",
"621 625 LINE",
"598 604 LINE",
"975 604 LINE",
"975 705 LINE",
"420 705 LINE",
"-20 0 LINE"
);
},
{
closed = 1;
nodes = (
"506 603 LINE",
"538 230 LINE",
"548 265 LINE",
"250 265 LINE",
"260 234 LINE",
"482 603 LINE"
);
}
);
width = 1016.5;
}
);
leftKerningGroup = A;
rightKerningGroup = E;
rightMetricsKey = E;
unicode = 00C6;
userData = {
com.typemytype.robofont.layerData = {
b = {
anchors = (
);
components = (
);
contours = (
);
lib = {
};
name = AE;
unicodes = (
);
width = 1976;
};
};
};
},
{
color = 4;
glyphname = B;
layers = (
{
anchors = (
{
name = bottom;
position = "{341, 0}";
},
{
name = top;
position = "{340, 705}";
}
);
background = {
anchors = (
{
name = bottom;
position = "{341, 0}";
},
{
name = top;
position = "{340, 712}";
}
);
paths = (
{
closed = 1;
nodes = (
"375 0 LINE SMOOTH",
"523 0 OFFCURVE",
"607 67 OFFCURVE",
"607 193 CURVE SMOOTH",
"607 288 OFFCURVE",
"553 351 OFFCURVE",
"464 368 CURVE",
"464 360 LINE",
"542 384 OFFCURVE",
"591 442 OFFCURVE",
"591 525 CURVE SMOOTH",
"591 646 OFFCURVE",
"508 712 OFFCURVE",
"364 712 CURVE SMOOTH",
"94 712 LINE",
"94 0 LINE"
);
},
{
closed = 1;
nodes = (
"148 337 LINE",
"372 337 LINE SMOOTH",
"492 337 OFFCURVE",
"551 287 OFFCURVE",
"551 190 CURVE SMOOTH",
"551 94 OFFCURVE",
"494 48 OFFCURVE",
"372 48 CURVE SMOOTH",
"148 48 LINE"
);
},
{
closed = 1;
nodes = (
"148 664 LINE",
"357 664 LINE SMOOTH",
"477 664 OFFCURVE",
"535 618 OFFCURVE",
"535 528 CURVE SMOOTH",
"535 436 OFFCURVE",
"474 386 OFFCURVE",
"357 386 CURVE SMOOTH",
"148 386 LINE"
);
}
);
};
layerId = "2567DF27-EA2D-46C8-A1A0-FA57AF1B0F16";
paths = (
{
closed = 1;
nodes = (
"368 0 LINE SMOOTH",
"518 0 OFFCURVE",
"601 65 OFFCURVE",
"601 191 CURVE SMOOTH",
"601 293 OFFCURVE",
"536 355 OFFCURVE",
"431 365 CURVE",
"431 351 LINE",
"526 370 OFFCURVE",
"585 430 OFFCURVE",
"585 521 CURVE SMOOTH",
"585 639 OFFCURVE",
"502 705 OFFCURVE",
"354 705 CURVE SMOOTH",
"97 705 LINE",
"97 0 LINE"
);
},
{
closed = 1;
nodes = (
"139 337 LINE",
"367 337 LINE SMOOTH",
"482 337 OFFCURVE",
"557 297 OFFCURVE",
"557 188 CURVE SMOOTH",
"557 80 OFFCURVE",
"482 39 OFFCURVE",
"367 39 CURVE SMOOTH",
"139 39 LINE"
);
},
{
closed = 1;
nodes = (
"139 666 LINE",
"352 666 LINE SMOOTH",
"476 666 OFFCURVE",
"541 615 OFFCURVE",
"541 521 CURVE SMOOTH",
"541 427 OFFCURVE",
"476 376 OFFCURVE",
"352 376 CURVE SMOOTH",
"139 376 LINE"
);
}
);
width = 672;
},
{
anchors = (
{
name = bottom;
position = "{361, 0}";
},
{
name = top;
position = "{361, 705}";
}
);
background = {
anchors = (
{
name = bottom;
position = "{352, 0}";
},
{
name = top;
position = "{352, 712}";
}
);
paths = (
{
closed = 1;
nodes = (
"411 0 LINE SMOOTH",
"566 0 OFFCURVE",
"661 75 OFFCURVE",
"661 195 CURVE SMOOTH",
"661 287 OFFCURVE",
"609 351 OFFCURVE",
"517 372 CURVE",
"517 364 LINE",
"596 387 OFFCURVE",
"642 448 OFFCURVE",
"642 527 CURVE SMOOTH",
"642 641 OFFCURVE",
"549 712 OFFCURVE",
"401 712 CURVE SMOOTH",
"70 712 LINE",
"70 0 LINE"
);
},
{
closed = 1;
nodes = (
"228 300 LINE",
"392 300 LINE SMOOTH",
"474 300 OFFCURVE",
"508 273 OFFCURVE",
"508 211 CURVE SMOOTH",
"508 150 OFFCURVE",
"474 124 OFFCURVE",
"392 124 CURVE SMOOTH",
"228 124 LINE"
);
},
{
closed = 1;
nodes = (
"228 588 LINE",
"374 588 LINE SMOOTH",
"452 588 OFFCURVE",
"489 562 OFFCURVE",
"489 505 CURVE SMOOTH",
"489 450 OFFCURVE",
"452 424 OFFCURVE",
"374 424 CURVE SMOOTH",
"228 424 LINE"
);
}
);
};
layerId = "FFBF88B9-CE65-4AF8-A771-12A489880E49";
paths = (
{
closed = 1;
nodes = (
"429 0 LINE SMOOTH",
"588 0 OFFCURVE",
"688 79 OFFCURVE",
"688 202 CURVE SMOOTH",
"688 294 OFFCURVE",
"633 355 OFFCURVE",
"534 375 CURVE",
"534 358 LINE",
"617 379 OFFCURVE",
"667 441 OFFCURVE",
"667 523 CURVE SMOOTH",
"667 633 OFFCURVE",
"577 705 OFFCURVE",
"419 705 CURVE SMOOTH",
"58 705 LINE",
"58 0 LINE"
);
},
{
closed = 1;
nodes = (
"264 280 LINE",
"400 280 LINE SMOOTH",
"458 280 OFFCURVE",
"484 260 OFFCURVE",
"484 218 CURVE SMOOTH",
"484 176 OFFCURVE",
"458 156 OFFCURVE",
"400 156 CURVE SMOOTH",
"264 156 LINE"
);
},
{
closed = 1;
nodes = (
"264 549 LINE",
"378 549 LINE SMOOTH",
"437 549 OFFCURVE",
"461 533 OFFCURVE",
"461 493 CURVE SMOOTH",
"461 453 OFFCURVE",
"437 436 OFFCURVE",
"378 436 CURVE SMOOTH",
"264 436 LINE"
);
}
);
width = 708;
},
{
anchors = (
{
name = bottom;
position = "{351, 0}";
},
{
name = top;
position = "{351, 705}";
}
);
layerId = "36495FFF-A792-4E19-9295-2592132C4E2F";
paths = (
{
closed = 1;
nodes = (
"399 0 LINE SMOOTH",
"553 0 OFFCURVE",
"645 72 OFFCURVE",
"645 197 CURVE SMOOTH",
"645 294 OFFCURVE",
"585 355 OFFCURVE",
"483 370 CURVE",
"483 355 LINE",
"572 375 OFFCURVE",
"626 436 OFFCURVE",
"626 522 CURVE SMOOTH",
"626 636 OFFCURVE",
"540 705 OFFCURVE",
"387 705 CURVE SMOOTH",
"78 705 LINE",
"78 0 LINE"
);
},
{
closed = 1;
nodes = (
"202 309 LINE",
"384 309 LINE SMOOTH",
"470 309 OFFCURVE",
"521 279 OFFCURVE",
"521 203 CURVE SMOOTH",
"521 128 OFFCURVE",
"470 98 OFFCURVE",
"384 98 CURVE SMOOTH",
"202 98 LINE"
);
},
{
closed = 1;
nodes = (
"202 608 LINE",
"365 608 LINE SMOOTH",
"457 608 OFFCURVE",
"501 574 OFFCURVE",
"501 507 CURVE SMOOTH",
"501 440 OFFCURVE",
"457 406 OFFCURVE",
"365 406 CURVE SMOOTH",
"202 406 LINE"
);
}
);
width = 690;
}
);
leftKerningGroup = H;
rightKerningGroup = B;
unicode = 0042;
userData = {
anchors = (
);
b = {
};
com.typemytype.robofont.layerData = {
b = {
anchors = (
);
components = (
);
contours = (
{
points = (
{
segmentType = curve;
smooth = 1;
x = 266;
y = 0;
},
{
segmentType = line;
smooth = 1;
x = 1035;
y = 0;
},
{
smooth = 0;
x = 1084;
y = 0;
},
{
smooth = 0;
x = 1108;
y = 36;
},
{
segmentType = curve;
smooth = 1;
x = 1108;
y = 73;
},
{
smooth = 0;
x = 1108;
y = 109;
},
{
smooth = 0;
x = 1084;
y = 145;
},
{
segmentType = curve;
smooth = 1;
x = 1035;
y = 145;
},
{
segmentType = line;
smooth = 0;
x = 353;
y = 145;
},
{
segmentType = line;
smooth = 0;
x = 353;
y = 662;
},
{
segmentType = line;
smooth = 1;
x = 975;
y = 662;
},
{
smooth = 0;
x = 1024;
y = 662;
},
{
smooth = 0;
x = 1049;
y = 698;
},
{
segmentType = curve;
smooth = 1;
x = 1049;
y = 734;
},
{
smooth = 0;
x = 1049;
y = 770;
},
{
smooth = 0;
x = 1026;
y = 806;
},
{
segmentType = curve;
smooth = 1;
x = 975;
y = 806;
},
{
segmentType = line;
smooth = 0;
x = 353;
y = 806;
},
{
segmentType = line;
smooth = 0;
x = 353;
y = 1281;
},
{
segmentType = line;
smooth = 1;
x = 1007;
y = 1281;
},
{
smooth = 0;
x = 1056;
y = 1281;
},
{
smooth = 0;
x = 1080;
y = 1317;
},
{
segmentType = curve;
smooth = 1;
x = 1080;
y = 1354;
},
{
smooth = 0;
x = 1080;
y = 1390;
},
{
smooth = 0;
x = 1056;
y = 1426;
},
{
segmentType = curve;
smooth = 1;
x = 1007;
y = 1426;
},
{
segmentType = line;
smooth = 1;
x = 261;
y = 1426;
},
{
smooth = 0;
x = 213;
y = 1426;
},
{
smooth = 0;
x = 178;
y = 1383;
},
{
segmentType = curve;
smooth = 1;
x = 178;
y = 1340;
},
{
segmentType = line;
smooth = 1;
x = 178;
y = 86;
},
{
smooth = 0;
x = 178;
y = 41;
},
{
smooth = 0;
x = 222;
y = 0;
}
);
}
);
lib = {
};
name = B;
unicodes = (
);
width = 1292;
};
};
components = (
);
contours = {
};
lib = {
};
name = B;
points = {
};
segmentType = curve;
unicodes = (
);
width = 1395;
x = 676;
y = 1260;
};
},
{
color = 4;
glyphname = Bhook;
production = uni0181;
layers = (
{
background = {
paths = (
{
closed = 1;
nodes = (
"473 0 LINE SMOOTH",
"623 0 OFFCURVE",
"707 65 OFFCURVE",
"707 191 CURVE SMOOTH",
"707 292 OFFCURVE",
"642 355 OFFCURVE",
"537 365 CURVE",
"537 351 LINE",
"632 370 OFFCURVE",
"690 431 OFFCURVE",
"690 521 CURVE SMOOTH",
"690 639 OFFCURVE",
"607 705 OFFCURVE",
"460 705 CURVE SMOOTH",
"175 705 LINE SMOOTH",
"54 705 OFFCURVE",
"-1 655 OFFCURVE",
"-1 551 CURVE SMOOTH",
"-1 506 LINE",
"39 506 LINE",
"39 549 LINE SMOOTH",
"39 629 OFFCURVE",
"79 666 OFFCURVE",
"164 666 CURVE SMOOTH",
"203 666 LINE",
"203 0 LINE"
);
},
{
closed = 1;
nodes = (
"245 337 LINE",
"473 337 LINE SMOOTH",
"599 337 OFFCURVE",
"663 289 OFFCURVE",
"663 188 CURVE SMOOTH",
"663 87 OFFCURVE",
"598 39 OFFCURVE",
"472 39 CURVE SMOOTH",
"245 39 LINE"
);
},
{
closed = 1;
nodes = (
"245 666 LINE",
"457 666 LINE SMOOTH",
"581 666 OFFCURVE",
"646 615 OFFCURVE",
"646 521 CURVE SMOOTH",
"646 427 OFFCURVE",
"581 376 OFFCURVE",
"457 376 CURVE SMOOTH",
"245 376 LINE"
);
}
);
};
layerId = "2567DF27-EA2D-46C8-A1A0-FA57AF1B0F16";
paths = (
{
closed = 1;
nodes = (
"473 0 LINE SMOOTH",
"623 0 OFFCURVE",
"707 65 OFFCURVE",
"707 191 CURVE SMOOTH",
"707 292 OFFCURVE",
"642 355 OFFCURVE",
"537 365 CURVE",
"537 351 LINE",
"632 370 OFFCURVE",
"690 431 OFFCURVE",
"690 521 CURVE SMOOTH",
"690 639 OFFCURVE",
"607 705 OFFCURVE",
"460 705 CURVE SMOOTH",
"175 705 LINE SMOOTH",
"54 705 OFFCURVE",
"-1 655 OFFCURVE",
"-1 551 CURVE SMOOTH",
"-1 506 LINE",
"39 506 LINE",
"39 549 LINE SMOOTH",
"39 629 OFFCURVE",
"79 666 OFFCURVE",
"164 666 CURVE SMOOTH",
"203 666 LINE",
"203 0 LINE"
);
},
{
closed = 1;
nodes = (
"245 337 LINE",
"473 337 LINE SMOOTH",
"599 337 OFFCURVE",
"663 289 OFFCURVE",
"663 188 CURVE SMOOTH",
"663 87 OFFCURVE",
"598 39 OFFCURVE",
"472 39 CURVE SMOOTH",
"245 39 LINE"
);
},
{
closed = 1;
nodes = (
"245 666 LINE",
"457 666 LINE SMOOTH",
"581 666 OFFCURVE",
"646 615 OFFCURVE",
"646 521 CURVE SMOOTH",
"646 427 OFFCURVE",
"581 376 OFFCURVE",
"457 376 CURVE SMOOTH",
"245 376 LINE"
);
}
);
width = 778;
},
{
background = {
paths = (
{
closed = 1;
nodes = (
"632 0 LINE SMOOTH",
"791 0 OFFCURVE",
"891 79 OFFCURVE",
"891 202 CURVE SMOOTH",
"891 294 OFFCURVE",
"837 355 OFFCURVE",
"738 375 CURVE",
"738 358 LINE",
"820 379 OFFCURVE",
"869 441 OFFCURVE",
"869 523 CURVE SMOOTH",
"869 634 OFFCURVE",
"780 705 OFFCURVE",
"623 705 CURVE SMOOTH",
"250 705 LINE SMOOTH",
"84 705 OFFCURVE",
"0 630 OFFCURVE",
"0 491 CURVE SMOOTH",
"0 432 LINE",
"171 432 LINE",
"171 485 LINE SMOOTH",
"171 539 OFFCURVE",
"193 561 OFFCURVE",
"246 561 CURVE SMOOTH",
"261 561 LINE",
"261 0 LINE"
);
},
{
closed = 1;
nodes = (
"467 280 LINE",
"603 280 LINE SMOOTH",
"662 280 OFFCURVE",
"686 259 OFFCURVE",
"686 218 CURVE SMOOTH",
"686 177 OFFCURVE",
"662 156 OFFCURVE",
"603 156 CURVE SMOOTH",
"467 156 LINE"
);
},
{
closed = 1;
nodes = (
"467 549 LINE",
"582 549 LINE SMOOTH",
"641 549 OFFCURVE",
"664 533 OFFCURVE",
"664 493 CURVE SMOOTH",
"664 453 OFFCURVE",
"641 436 OFFCURVE",
"582 436 CURVE SMOOTH",
"467 436 LINE"
);
}
);
};
layerId = "FFBF88B9-CE65-4AF8-A771-12A489880E49";
paths = (
{
closed = 1;
nodes = (
"632 0 LINE SMOOTH",
"791 0 OFFCURVE",
"891 79 OFFCURVE",
"891 202 CURVE SMOOTH",
"891 294 OFFCURVE",
"837 355 OFFCURVE",
"738 375 CURVE",
"738 358 LINE",
"820 379 OFFCURVE",
"869 441 OFFCURVE",
"869 523 CURVE SMOOTH",
"869 634 OFFCURVE",
"780 705 OFFCURVE",
"623 705 CURVE SMOOTH",
"250 705 LINE SMOOTH",
"84 705 OFFCURVE",
"0 630 OFFCURVE",
"0 491 CURVE SMOOTH",
"0 432 LINE",
"171 432 LINE",
"171 485 LINE SMOOTH",
"171 539 OFFCURVE",
"193 561 OFFCURVE",
"246 561 CURVE SMOOTH",
"261 561 LINE",
"261 0 LINE"
);
},
{
closed = 1;
nodes = (
"467 280 LINE",
"603 280 LINE SMOOTH",
"662 280 OFFCURVE",
"686 259 OFFCURVE",
"686 218 CURVE SMOOTH",
"686 177 OFFCURVE",
"662 156 OFFCURVE",
"603 156 CURVE SMOOTH",
"467 156 LINE"
);
},
{
closed = 1;
nodes = (
"467 549 LINE",
"582 549 LINE SMOOTH",
"641 549 OFFCURVE",
"664 533 OFFCURVE",
"664 493 CURVE SMOOTH",
"664 453 OFFCURVE",
"641 436 OFFCURVE",
"582 436 CURVE SMOOTH",
"467 436 LINE"
);
}
);
width = 911;
},
{
layerId = "36495FFF-A792-4E19-9295-2592132C4E2F";
paths = (
{
closed = 1;
nodes = (
"553 0 LINE SMOOTH",
"707 0 OFFCURVE",
"799 72 OFFCURVE",
"799 197 CURVE SMOOTH",
"799 293 OFFCURVE",
"740 355 OFFCURVE",
"638 370 CURVE",
"638 355 LINE",
"726 375 OFFCURVE",
"780 436 OFFCURVE",
"780 522 CURVE SMOOTH",
"780 637 OFFCURVE",
"694 705 OFFCURVE",
"542 705 CURVE SMOOTH",
"213 705 LINE SMOOTH",
"69 705 OFFCURVE",
"-1 643 OFFCURVE",
"-1 521 CURVE SMOOTH",
"-1 469 LINE",
"105 469 LINE",
"105 517 LINE SMOOTH",
"105 584 OFFCURVE",
"136 614 OFFCURVE",
"205 614 CURVE SMOOTH",
"232 614 LINE",
"232 0 LINE"
);
},
{
closed = 1;
nodes = (
"356 309 LINE",
"538 309 LINE SMOOTH",
"631 309 OFFCURVE",
"675 274 OFFCURVE",
"675 203 CURVE SMOOTH",
"675 132 OFFCURVE",
"630 98 OFFCURVE",
"538 98 CURVE SMOOTH",
"356 98 LINE"
);
},
{
closed = 1;
nodes = (
"356 608 LINE",
"520 608 LINE SMOOTH",
"611 608 OFFCURVE",
"655 574 OFFCURVE",
"655 507 CURVE SMOOTH",
"655 440 OFFCURVE",
"611 406 OFFCURVE",
"520 406 CURVE SMOOTH",
"356 406 LINE"
);
}
);
width = 844.5;
}
);
leftKerningGroup = Bhook;
rightKerningGroup = B;
unicode = 0181;
},
{
color = 4;
glyphname = C;
layers = (
{
anchors = (
{
name = bottom;
position = "{384, 0}";
},
{
name = top;
position = "{386, 705}";
}
);
background = {
anchors = (
{
name = bottom;
position = "{386, 0}";
},
{
name = top;
position = "{387, 712}";
}
);
paths = (
{
closed = 1;
nodes = (
"485 -8 OFFCURVE",
"568 23 OFFCURVE",
"629 86 CURVE",
"605 130 LINE",
"535 67 OFFCURVE",
"471 42 OFFCURVE",
"387 42 CURVE SMOOTH",
"219 42 OFFCURVE",
"123 157 OFFCURVE",
"123 357 CURVE SMOOTH",
"123 556 OFFCURVE",
"220 670 OFFCURVE",
"387 670 CURVE SMOOTH",
"471 670 OFFCURVE",
"535 645 OFFCURVE",
"605 582 CURVE",
"629 626 LINE",
"568 689 OFFCURVE",
"485 720 OFFCURVE",
"387 720 CURVE SMOOTH",
"189 720 OFFCURVE",
"66 584 OFFCURVE",
"66 357 CURVE SMOOTH",
"66 129 OFFCURVE",
"189 -8 OFFCURVE",
"387 -8 CURVE SMOOTH"
);
}
);
};
layerId = "2567DF27-EA2D-46C8-A1A0-FA57AF1B0F16";
paths = (
{
closed = 1;
nodes = (
"486 -8 OFFCURVE",
"564 25 OFFCURVE",
"624 88 CURVE",
"602 123 LINE",
"537 60 OFFCURVE",
"475 33 OFFCURVE",
"384 33 CURVE SMOOTH",
"206 33 OFFCURVE",
"113 150 OFFCURVE",
"113 353 CURVE SMOOTH",
"113 555 OFFCURVE",
"206 672 OFFCURVE",
"384 672 CURVE SMOOTH",
"475 672 OFFCURVE",
"537 645 OFFCURVE",
"602 582 CURVE",
"624 617 LINE",
"564 680 OFFCURVE",
"487 713 OFFCURVE",
"385 713 CURVE SMOOTH",
"181 713 OFFCURVE",
"68 576 OFFCURVE",
"68 353 CURVE SMOOTH",
"68 129 OFFCURVE",
"181 -8 OFFCURVE",
"385 -8 CURVE SMOOTH"
);
}
);
width = 684;
},
{
anchors = (
{
name = bottom;
position = "{411, 0}";
},
{
name = top;
position = "{410, 705}";
}
);
background = {
anchors = (
{
name = bottom;
position = "{399, 0}";
},
{
name = top;
position = "{399, 712}";
}
);
paths = (
{
closed = 1;
nodes = (
"500 -9 OFFCURVE",
"592 21 OFFCURVE",
"647 72 CURVE",
"596 188 LINE",
"533 141 OFFCURVE",
"474 121 OFFCURVE",
"409 121 CURVE SMOOTH",
"285 121 OFFCURVE",
"215 202 OFFCURVE",
"215 357 CURVE SMOOTH",
"215 511 OFFCURVE",
"285 591 OFFCURVE",
"409 591 CURVE SMOOTH",
"474 591 OFFCURVE",
"533 571 OFFCURVE",
"596 524 CURVE",
"647 640 LINE",
"592 691 OFFCURVE",
"500 721 OFFCURVE",
"406 721 CURVE SMOOTH",
"186 721 OFFCURVE",
"49 577 OFFCURVE",
"49 357 CURVE SMOOTH",
"49 136 OFFCURVE",
"186 -9 OFFCURVE",
"406 -9 CURVE SMOOTH"
);
}
);
};
layerId = "FFBF88B9-CE65-4AF8-A771-12A489880E49";
paths = (
{
closed = 1;
nodes = (
"523 -12 OFFCURVE",
"606 14 OFFCURVE",
"660 59 CURVE",
"597 228 LINE",
"537 188 OFFCURVE",
"495 175 OFFCURVE",
"435 175 CURVE SMOOTH",
"327 175 OFFCURVE",
"267 237 OFFCURVE",
"267 353 CURVE SMOOTH",
"267 468 OFFCURVE",
"327 530 OFFCURVE",
"435 530 CURVE SMOOTH",
"495 530 OFFCURVE",
"537 517 OFFCURVE",
"597 477 CURVE",
"660 646 LINE",
"606 691 OFFCURVE",
"523 717 OFFCURVE",
"427 717 CURVE SMOOTH",
"191 717 OFFCURVE",
"41 572 OFFCURVE",
"41 353 CURVE SMOOTH",
"41 133 OFFCURVE",
"191 -12 OFFCURVE",
"427 -12 CURVE SMOOTH"
);
}
);
width = 685;
},
{
anchors = (
{
name = bottom;
position = "{398, 0}";
},
{
name = top;
position = "{398, 705}";
}
);
layerId = "36495FFF-A792-4E19-9295-2592132C4E2F";
paths = (
{
closed = 1;
nodes = (
"505 -10 OFFCURVE",
"585 20 OFFCURVE",
"642 74 CURVE",
"600 176 LINE",
"537 124 OFFCURVE",
"485 104 OFFCURVE",
"410 104 CURVE SMOOTH",
"267 104 OFFCURVE",
"190 194 OFFCURVE",
"190 353 CURVE SMOOTH",
"190 512 OFFCURVE",
"267 601 OFFCURVE",
"410 601 CURVE SMOOTH",
"485 601 OFFCURVE",
"537 581 OFFCURVE",
"600 530 CURVE",
"642 632 LINE",
"585 686 OFFCURVE",
"505 715 OFFCURVE",
"406 715 CURVE SMOOTH",
"186 715 OFFCURVE",
"55 574 OFFCURVE",
"55 353 CURVE SMOOTH",
"55 131 OFFCURVE",
"186 -10 OFFCURVE",
"406 -10 CURVE SMOOTH"
);
}
);
width = 684.5;
}
);
leftKerningGroup = O;
rightKerningGroup = C;
unicode = 0043;
userData = {
anchors = (
);
b = {
};
com.typemytype.robofont.layerData = {
b = {
anchors = (
);
components = (
);
contours = (
);
lib = {
};
name = C;
unicodes = (
);
width = 1353.89001;
};
};
components = (
);
contours = (
);
lib = {
};
name = C;
unicodes = (
);
width = 1354;
};
},
{
color = 4;
glyphname = D;
layers = (
{
anchors = (
{
name = bottom;
position = "{372, 0}";
},
{
name = center;
position = "{176, 358}";
},
{
name = top;
position = "{372, 705}";
}
);
background = {
anchors = (
{
name = bottom;
position = "{369, 0}";
},
{
name = center;
position = "{369, 357}";
},
{
name = top;
position = "{368, 712}";
}
);
paths = (
{
closed = 1;
nodes = (
"319 0 LINE SMOOTH",
"543 0 OFFCURVE",
"671 128 OFFCURVE",
"671 357 CURVE SMOOTH",
"671 585 OFFCURVE",
"544 712 OFFCURVE",
"319 712 CURVE SMOOTH",
"94 712 LINE",
"94 0 LINE"
);
},
{
closed = 1;
nodes = (
"148 664 LINE",
"317 664 LINE SMOOTH",
"514 664 OFFCURVE",
"613 561 OFFCURVE",
"613 357 CURVE SMOOTH",
"613 153 OFFCURVE",
"513 48 OFFCURVE",
"317 48 CURVE SMOOTH",
"148 48 LINE"
);
}
);
};
layerId = "2567DF27-EA2D-46C8-A1A0-FA57AF1B0F16";
paths = (
{
closed = 1;
nodes = (
"311 0 LINE SMOOTH",
"539 0 OFFCURVE",
"665 122 OFFCURVE",
"665 353 CURVE SMOOTH",
"665 583 OFFCURVE",
"539 705 OFFCURVE",
"311 705 CURVE SMOOTH",
"97 705 LINE",
"97 0 LINE"
);
},
{
closed = 1;
nodes = (
"139 666 LINE",
"307 666 LINE SMOOTH",
"517 666 OFFCURVE",
"620 562 OFFCURVE",
"620 353 CURVE SMOOTH",
"620 144 OFFCURVE",
"517 39 OFFCURVE",
"307 39 CURVE SMOOTH",
"139 39 LINE"
);
}
);
width = 733;
},
{
anchors = (
{
name = bottom;
position = "{404, 0}";
},
{
name = center;
position = "{217, 358}";
},
{
name = top;
position = "{404, 705}";
}
);
background = {
anchors = (
{
name = bottom;
position = "{386, 0}";
},
{
name = center;
position = "{386, 357}";
},
{
name = top;
position = "{386, 712}";
}
);
paths = (
{
closed = 1;
nodes = (
"348 0 LINE SMOOTH",
"585 0 OFFCURVE",
"723 132 OFFCURVE",
"723 357 CURVE SMOOTH",
"723 580 OFFCURVE",
"584 712 OFFCURVE",
"348 712 CURVE SMOOTH",
"70 712 LINE",
"70 0 LINE"
);
},
{
closed = 1;
nodes = (
"232 581 LINE",
"337 581 LINE SMOOTH",
"487 581 OFFCURVE",
"561 507 OFFCURVE",
"561 357 CURVE SMOOTH",
"561 206 OFFCURVE",
"487 131 OFFCURVE",
"337 131 CURVE SMOOTH",
"232 131 LINE"
);
}
);
};
layerId = "FFBF88B9-CE65-4AF8-A771-12A489880E49";
paths = (
{
closed = 1;
nodes = (
"357 0 LINE SMOOTH",
"613 0 OFFCURVE",
"750 137 OFFCURVE",
"750 353 CURVE SMOOTH",
"750 570 OFFCURVE",
"613 705 OFFCURVE",
"357 705 CURVE SMOOTH",
"58 705 LINE",
"58 0 LINE"
);
},
{
closed = 1;
nodes = (
"274 531 LINE",
"344 531 LINE SMOOTH",
"474 531 OFFCURVE",
"536 475 OFFCURVE",
"536 353 CURVE SMOOTH",
"536 231 OFFCURVE",
"475 174 OFFCURVE",
"344 174 CURVE SMOOTH",
"274 174 LINE"
);
}
);
width = 791;
},
{
anchors = (
{
name = bottom;
position = "{388, 0}";
},
{
name = center;
position = "{197, 358}";
},
{
name = top;
position = "{388, 705}";
}
);
layerId = "36495FFF-A792-4E19-9295-2592132C4E2F";
paths = (
{
closed = 1;
nodes = (
"334 0 LINE SMOOTH",
"576 0 OFFCURVE",
"708 130 OFFCURVE",
"708 353 CURVE SMOOTH",
"708 577 OFFCURVE",
"576 705 OFFCURVE",
"334 705 CURVE SMOOTH",
"78 705 LINE",
"78 0 LINE"
);
},
{
closed = 1;
nodes = (
"207 599 LINE",
"326 599 LINE SMOOTH",
"496 599 OFFCURVE",
"578 519 OFFCURVE",
"578 353 CURVE SMOOTH",
"578 188 OFFCURVE",
"496 107 OFFCURVE",
"326 107 CURVE SMOOTH",
"207 107 LINE"
);
}
);
width = 762;
}
);
leftKerningGroup = H;
rightKerningGroup = O;
unicode = 0044;
userData = {
anchors = (
);
b = {
};
com.typemytype.robofont.layerData = {
b = {
anchors = (
);
components = (
);
contours = (
{
points = (
{
segmentType = curve;
smooth = 1;
x = 266;
y = 0;
},
{
segmentType = line;
smooth = 1;
x = 1035;
y = 0;
},
{
smooth = 0;
x = 1084;
y = 0;
},
{
smooth = 0;
x = 1108;
y = 34;
},
{
segmentType = curve;
smooth = 1;
x = 1108;
y = 71;
},
{
smooth = 0;
x = 1108;
y = 107;
},
{
smooth = 0;
x = 1084;
y = 141;
},
{
segmentType = curve;
smooth = 1;
x = 1035;
y = 141;
},
{
segmentType = line;
smooth = 0;
x = 356;
y = 141;
},
{
segmentType = line;
smooth = 0;
x = 356;
y = 665;
},
{
segmentType = line;
smooth = 1;
x = 975;
y = 665;
},
{
smooth = 0;
x = 1024;
y = 665;
},
{
smooth = 0;
x = 1049;
y = 698;
},
{
segmentType = curve;
smooth = 1;
x = 1049;
y = 734;
},
{
smooth = 0;
x = 1049;
y = 770;
},
{
smooth = 0;
x = 1026;
y = 803;
},
{
segmentType = curve;
smooth = 1;
x = 975;
y = 803;
},
{
segmentType = line;
smooth = 0;
x = 356;
y = 803;
},
{
segmentType = line;
smooth = 0;
x = 356;
y = 1285;
},
{
segmentType = line;
smooth = 1;
x = 1007;
y = 1285;
},
{
smooth = 0;
x = 1056;
y = 1285;
},
{
smooth = 0;
x = 1080;
y = 1319;
},
{
segmentType = curve;
smooth = 1;
x = 1080;
y = 1356;
},
{
smooth = 0;
x = 1080;
y = 1392;
},
{
smooth = 0;
x = 1056;
y = 1426;
},
{
segmentType = curve;
smooth = 1;
x = 1007;
y = 1426;
},
{
segmentType = line;
smooth = 1;
x = 261;
y = 1426;
},
{
smooth = 0;
x = 213;
y = 1426;
},
{
smooth = 0;
x = 178;
y = 1383;
},
{
segmentType = curve;
smooth = 1;
x = 178;
y = 1340;
},
{
segmentType = line;
smooth = 1;
x = 178;
y = 86;
},
{
smooth = 0;
x = 178;
y = 41;
},
{
smooth = 0;
x = 222;
y = 0;
}
);
}
);
lib = {
};
name = D;
unicodes = (
);
width = 1499;
};
};
components = (
);
contours = (
);
lib = {
};
name = D;
unicodes = (
);
width = 1535;
};
},
{
glyphname = Eth;
layers = (
{
background = {
paths = (
{
closed = 1;
nodes = (
"352 338 LINE",
"352 385 LINE",
"5 385 LINE",
"5 338 LINE"
);
},
{
closed = 1;
nodes = (
"326 0 LINE SMOOTH",
"550 0 OFFCURVE",
"678 128 OFFCURVE",
"678 357 CURVE SMOOTH",
"678 585 OFFCURVE",
"551 712 OFFCURVE",
"326 712 CURVE SMOOTH",
"101 712 LINE",
"101 0 LINE"
);
},
{
closed = 1;
nodes = (
"156 664 LINE",
"324 664 LINE SMOOTH",
"521 664 OFFCURVE",
"620 561 OFFCURVE",
"620 357 CURVE SMOOTH",
"620 153 OFFCURVE",
"520 48 OFFCURVE",
"324 48 CURVE SMOOTH",
"156 48 LINE"
);
}
);
};
components = (
{
name = D;
},
{
name = strokeshortcomb.case;
transform = "{1, 0, 0, 1, 176, 0}";
}
);
layerId = "2567DF27-EA2D-46C8-A1A0-FA57AF1B0F16";
width = 733;
},
{
background = {
paths = (
{
closed = 1;
nodes = (
"450 298 LINE",
"450 421 LINE",
"15 421 LINE",
"15 298 LINE"
);
},
{
closed = 1;
nodes = (
"380 0 LINE SMOOTH",
"616 0 OFFCURVE",
"754 132 OFFCURVE",
"754 357 CURVE SMOOTH",
"754 580 OFFCURVE",
"615 712 OFFCURVE",
"380 712 CURVE SMOOTH",
"101 712 LINE",
"101 0 LINE"
);
},
{
closed = 1;
nodes = (
"264 581 LINE",
"369 581 LINE SMOOTH",
"518 581 OFFCURVE",
"592 507 OFFCURVE",
"592 357 CURVE SMOOTH",
"592 206 OFFCURVE",
"518 131 OFFCURVE",
"369 131 CURVE SMOOTH",
"264 131 LINE"
);
}
);
};
components = (
{
name = D;
},
{
name = strokeshortcomb.case;
transform = "{1, 0, 0, 1, 217, 0}";
}
);
layerId = "FFBF88B9-CE65-4AF8-A771-12A489880E49";
width = 791;
},
{
components = (
{
name = D;
},
{
name = strokeshortcomb.case;
transform = "{1, 0, 0, 1, 197, 0}";
}
);
layerId = "36495FFF-A792-4E19-9295-2592132C4E2F";
width = 762;
}
);
leftKerningGroup = H;
rightKerningGroup = O;
unicode = 00D0;
},
{
color = 4;
glyphname = Dhook;
production = uni018A;
layers = (
{
background = {
paths = (
{
closed = 1;
nodes = (
"417 0 LINE SMOOTH",
"645 0 OFFCURVE",
"771 122 OFFCURVE",
"771 353 CURVE SMOOTH",
"771 583 OFFCURVE",
"645 705 OFFCURVE",
"417 705 CURVE SMOOTH",
"166 705 LINE SMOOTH",
"54 705 OFFCURVE",
"-1 655 OFFCURVE",
"-1 551 CURVE SMOOTH",
"-1 506 LINE",
"39 506 LINE",
"39 549 LINE SMOOTH",
"39 629 OFFCURVE",
"79 666 OFFCURVE",
"164 666 CURVE SMOOTH",
"203 666 LINE",
"203 0 LINE"
);
},
{
closed = 1;
nodes = (
"245 666 LINE",
"413 666 LINE SMOOTH",
"623 666 OFFCURVE",
"726 562 OFFCURVE",
"726 353 CURVE SMOOTH",
"726 144 OFFCURVE",
"623 39 OFFCURVE",
"413 39 CURVE SMOOTH",
"245 39 LINE"
);
}
);
};
layerId = "2567DF27-EA2D-46C8-A1A0-FA57AF1B0F16";
paths = (
{
closed = 1;
nodes = (
"417 0 LINE SMOOTH",
"645 0 OFFCURVE",
"771 122 OFFCURVE",
"771 353 CURVE SMOOTH",
"771 583 OFFCURVE",
"645 705 OFFCURVE",
"417 705 CURVE SMOOTH",
"166 705 LINE SMOOTH",
"54 705 OFFCURVE",
"-1 655 OFFCURVE",
"-1 551 CURVE SMOOTH",
"-1 506 LINE",
"39 506 LINE",
"39 549 LINE SMOOTH",
"39 629 OFFCURVE",
"79 666 OFFCURVE",
"164 666 CURVE SMOOTH",
"203 666 LINE",
"203 0 LINE"
);
},
{
closed = 1;
nodes = (
"245 666 LINE",
"413 666 LINE SMOOTH",
"623 666 OFFCURVE",
"726 562 OFFCURVE",
"726 353 CURVE SMOOTH",
"726 144 OFFCURVE",
"623 39 OFFCURVE",
"413 39 CURVE SMOOTH",
"245 39 LINE"
);
}
);
width = 839;
},
{
background = {
paths = (
{
closed = 1;
nodes = (
"560 0 LINE SMOOTH",
"810 0 OFFCURVE",
"953 129 OFFCURVE",
"953 353 CURVE SMOOTH",
"953 576 OFFCURVE",
"810 705 OFFCURVE",
"560 705 CURVE SMOOTH",
"249 705 LINE SMOOTH",
"84 705 OFFCURVE",
"0 630 OFFCURVE",
"0 491 CURVE SMOOTH",
"0 432 LINE",
"171 432 LINE",
"171 485 LINE SMOOTH",
"171 539 OFFCURVE",
"193 561 OFFCURVE",
"246 561 CURVE SMOOTH",
"261 561 LINE",
"261 0 LINE"
);
},
{
closed = 1;
nodes = (
"477 531 LINE",
"547 531 LINE SMOOTH",
"678 531 OFFCURVE",
"739 475 OFFCURVE",
"739 353 CURVE SMOOTH",
"739 231 OFFCURVE",
"679 174 OFFCURVE",
"547 174 CURVE SMOOTH",
"477 174 LINE"
);
}
);
};
layerId = "FFBF88B9-CE65-4AF8-A771-12A489880E49";
paths = (
{
closed = 1;
nodes = (
"560 0 LINE SMOOTH",
"810 0 OFFCURVE",
"953 129 OFFCURVE",
"953 353 CURVE SMOOTH",
"953 576 OFFCURVE",
"810 705 OFFCURVE",
"560 705 CURVE SMOOTH",
"249 705 LINE SMOOTH",
"84 705 OFFCURVE",
"0 630 OFFCURVE",
"0 491 CURVE SMOOTH",
"0 432 LINE",
"171 432 LINE",
"171 485 LINE SMOOTH",
"171 539 OFFCURVE",
"193 561 OFFCURVE",
"246 561 CURVE SMOOTH",
"261 561 LINE",
"261 0 LINE"
);
},
{
closed = 1;
nodes = (
"477 531 LINE",
"547 531 LINE SMOOTH",
"678 531 OFFCURVE",
"739 475 OFFCURVE",
"739 353 CURVE SMOOTH",
"739 231 OFFCURVE",
"679 174 OFFCURVE",
"547 174 CURVE SMOOTH",
"477 174 LINE"
);
}
);
width = 994;
},
{
layerId = "36495FFF-A792-4E19-9295-2592132C4E2F";
paths = (
{
closed = 1;
nodes = (
"489 0 LINE SMOOTH",
"728 0 OFFCURVE",
"862 126 OFFCURVE",
"862 353 CURVE SMOOTH",
"862 580 OFFCURVE",
"728 705 OFFCURVE",
"489 705 CURVE SMOOTH",
"208 705 LINE SMOOTH",
"69 705 OFFCURVE",
"-1 643 OFFCURVE",
"-1 521 CURVE SMOOTH",
"-1 469 LINE",
"105 469 LINE",
"105 517 LINE SMOOTH",
"105 584 OFFCURVE",
"136 614 OFFCURVE",
"205 614 CURVE SMOOTH",
"232 614 LINE",
"232 0 LINE"
);
},
{
closed = 1;
nodes = (
"361 599 LINE",
"480 599 LINE SMOOTH",
"651 599 OFFCURVE",
"733 519 OFFCURVE",
"733 353 CURVE SMOOTH",
"733 188 OFFCURVE",
"651 107 OFFCURVE",
"480 107 CURVE SMOOTH",
"361 107 LINE"
);
}
);
width = 916.5;
}
);
leftKerningGroup = Bhook;
rightKerningGroup = O;
unicode = 018A;
},
{
glyphname = E;
layers = (
{
anchors = (
{
name = bottom;
position = "{323, 0}";
},
{
name = ogonek;
position = "{499, 0}";
},
{
name = top;
position = "{323, 705}";
},
{
name = topleft;
position = "{25, 705}";
}
);
background = {
anchors = (
{
name = bottom;
position = "{324, 0}";
},
{
name = ogonek;
position = "{510, 10}";
},
{
name = top;
position = "{324, 712}";
},
{
name = topleft;
position = "{26, 712}";
}
);
paths = (
{
closed = 1;
nodes = (
"529 0 LINE",
"529 48 LINE",
"148 48 LINE",
"148 337 LINE",
"509 337 LINE",
"509 386 LINE",
"148 386 LINE",
"148 664 LINE",
"529 664 LINE",
"529 712 LINE",
"94 712 LINE",
"94 0 LINE"
);
}
);
};
layerId = "2567DF27-EA2D-46C8-A1A0-FA57AF1B0F16";
paths = (
{
closed = 1;
nodes = (
"525 0 LINE",
"525 39 LINE",
"139 39 LINE",
"139 338 LINE",
"503 338 LINE",
"503 377 LINE",
"139 377 LINE",
"139 666 LINE",
"525 666 LINE",
"525 705 LINE",
"97 705 LINE",
"97 0 LINE"
);
}
);
width = 582;
},
{
anchors = (
{
name = bottom;
position = "{343, 0}";
},
{
name = ogonek;
position = "{523, 0}";
},
{
name = top;
position = "{343, 705}";
},
{
name = topleft;
position = "{17, 705}";
}
);
background = {
anchors = (
{
name = bottom;
position = "{334, 0}";
},
{
name = ogonek;
position = "{541, 10}";
},
{
name = top;
position = "{334, 712}";
},
{
name = topleft;
position = "{21, 712}";
}
);
paths = (
{
closed = 1;
nodes = (
"564 0 LINE",
"564 126 LINE",
"228 126 LINE",
"228 299 LINE",
"543 299 LINE",
"543 425 LINE",
"228 425 LINE",
"228 586 LINE",
"564 586 LINE",
"564 712 LINE",
"70 712 LINE",
"70 0 LINE"
);
}
);
};
layerId = "FFBF88B9-CE65-4AF8-A771-12A489880E49";
paths = (
{
closed = 1;
nodes = (
"581 0 LINE",
"581 164 LINE",
"264 164 LINE",
"264 276 LINE",
"557 276 LINE",
"557 440 LINE",
"264 440 LINE",
"264 541 LINE",
"581 541 LINE",
"581 705 LINE",
"58 705 LINE",
"58 0 LINE"
);
}
);
width = 608;
},
{
anchors = (
{
name = bottom;
position = "{333, 0}";
},
{
name = ogonek;
position = "{511, 0}";
},
{
name = top;
position = "{333, 705}";
},
{
name = topleft;
position = "{21, 705}";
}
);
layerId = "36495FFF-A792-4E19-9295-2592132C4E2F";
paths = (
{
closed = 1;
nodes = (
"553 0 LINE",
"553 102 LINE",
"202 102 LINE",
"202 307 LINE",
"530 307 LINE",
"530 409 LINE",
"202 409 LINE",
"202 604 LINE",
"553 604 LINE",
"553 705 LINE",
"78 705 LINE",
"78 0 LINE"
);
}
);
width = 595;
}
);
leftKerningGroup = H;
rightKerningGroup = E;
unicode = 0045;
userData = {
anchors = (
);
b = {
};
com.typemytype.robofont.layerData = {
b = {
anchors = (
);
components = (
);
contours = (
);
lib = {
};
name = E;
unicodes = (
);
width = 1234;
};
};
components = (
);
contours = (
);
lib = {
};
name = E;
unicodes = (
);
width = 1258;
};
},
{
glyphname = Eogonek;
layers = (
{
anchors = (
{
name = top;
position = "{330, 705}";
}
);
background = {
anchors = (
{
name = top;
position = "{324, 712}";
}
);
paths = (
{
closed = 1;
nodes = (
"524 -143 OFFCURVE",
"502 -149 OFFCURVE",
"486 -149 CURVE SMOOTH",
"445 -149 OFFCURVE",
"417 -126 OFFCURVE",
"417 -83 CURVE SMOOTH",
"417 -36 OFFCURVE",
"449 0 OFFCURVE",
"516 0 CURVE SMOOTH",
"529 0 LINE",
"529 48 LINE",
"148 48 LINE",
"148 337 LINE",
"509 337 LINE",
"509 386 LINE",
"148 386 LINE",
"148 664 LINE",
"529 664 LINE",
"529 712 LINE",
"94 712 LINE",
"94 0 LINE",
"452 0 LINE",
"436 19 LINE",
"391 -5 OFFCURVE",
"367 -42 OFFCURVE",
"367 -89 CURVE SMOOTH",
"367 -149 OFFCURVE",
"412 -193 OFFCURVE",
"481 -193 CURVE SMOOTH",
"514 -193 OFFCURVE",
"542 -183 OFFCURVE",
"562 -170 CURVE",
"545 -131 LINE"
);
}
);
};
components = (
{
name = E;
},
{
name = ogonekcomb;
transform = "{1, 0, 0, 1, 499, 0}";
}
);
layerId = "2567DF27-EA2D-46C8-A1A0-FA57AF1B0F16";
width = 582;
},
{
anchors = (
{
name = top;
position = "{345, 705}";
}
);
background = {
anchors = (
{
name = top;
position = "{334, 712}";
}
);
paths = (
{
closed = 1;
nodes = (
"567 -114 OFFCURVE",
"548 -118 OFFCURVE",
"531 -118 CURVE SMOOTH",
"493 -118 OFFCURVE",
"472 -100 OFFCURVE",
"472 -65 CURVE SMOOTH",
"472 -25 OFFCURVE",
"499 0 OFFCURVE",
"541 0 CURVE SMOOTH",
"564 0 LINE",
"564 126 LINE",
"228 126 LINE",
"228 299 LINE",
"543 299 LINE",
"543 425 LINE",
"228 425 LINE",
"228 586 LINE",
"564 586 LINE",
"564 712 LINE",
"70 712 LINE",
"70 0 LINE",
"457 0 LINE",
"438 20 LINE",
"394 -5 OFFCURVE",
"372 -42 OFFCURVE",
"372 -88 CURVE SMOOTH",
"372 -153 OFFCURVE",
"425 -199 OFFCURVE",
"501 -199 CURVE SMOOTH",
"537 -199 OFFCURVE",
"573 -192 OFFCURVE",
"603 -179 CURVE",
"586 -106 LINE"
);
}
);
};
components = (
{
name = E;
},
{
name = ogonekcomb;
transform = "{1, 0, 0, 1, 523, 0}";
}
);
layerId = "FFBF88B9-CE65-4AF8-A771-12A489880E49";
width = 608;
},
{
anchors = (
{
name = top;
position = "{338, 705}";
}
);
components = (
{
name = E;
},
{
name = ogonekcomb;
transform = "{1, 0, 0, 1, 511, 0}";
}
);
layerId = "36495FFF-A792-4E19-9295-2592132C4E2F";
width = 595;
}
);
leftKerningGroup = H;
rightKerningGroup = E;
unicode = 0118;
userData = {
com.typemytype.robofont.layerData = {
b = {
anchors = (
);
components = (
);
contours = (
);
lib = {
};
name = Eogonek;
unicodes = (
);
width = 1234;
};
};
};
},
{
glyphname = F;
layers = (
{
anchors = (
{
name = bottom;
position = "{300, 0}";
},
{
name = top;
position = "{300, 705}";
}
);
background = {
anchors = (
{
name = bottom;
position = "{309, 0}";
},
{
name = top;
position = "{288, 712}";
}
);
paths = (
{
closed = 1;
nodes = (
"148 0 LINE",
"148 337 LINE",
"499 337 LINE",
"499 386 LINE",
"148 386 LINE",
"148 664 LINE",
"519 664 LINE",
"519 712 LINE",
"94 712 LINE",
"94 0 LINE"
);
}
);
};
layerId = "2567DF27-EA2D-46C8-A1A0-FA57AF1B0F16";
paths = (
{
closed = 1;
nodes = (
"139 0 LINE",
"139 338 LINE",
"494 338 LINE",
"494 377 LINE",
"139 377 LINE",
"139 666 LINE",
"515 666 LINE",
"515 705 LINE",
"97 705 LINE",
"97 0 LINE"
);
}
);
width = 554;
},
{
anchors = (
{
name = bottom;
position = "{313, 0}";
},
{
name = top;
position = "{319, 705}";
}
);
background = {
anchors = (
{
name = bottom;
position = "{319, 0}";
},
{
name = top;
position = "{291, 712}";
}
);
paths = (
{
closed = 1;
nodes = (
"230 0 LINE",
"230 298 LINE",
"533 298 LINE",
"533 426 LINE",
"230 426 LINE",
"230 584 LINE",
"553 584 LINE",
"553 712 LINE",
"70 712 LINE",
"70 0 LINE"
);
}
);
};
layerId = "FFBF88B9-CE65-4AF8-A771-12A489880E49";
paths = (
{
closed = 1;
nodes = (
"274 0 LINE",
"274 267 LINE",
"546 267 LINE",
"546 431 LINE",
"274 431 LINE",
"274 541 LINE",
"570 541 LINE",
"570 705 LINE",
"58 705 LINE",
"58 0 LINE"
);
}
);
width = 590;
},
{
anchors = (
{
name = bottom;
position = "{307, 0}";
},
{
name = top;
position = "{310, 705}";
}
);
layerId = "36495FFF-A792-4E19-9295-2592132C4E2F";
paths = (
{
closed = 1;
nodes = (
"207 0 LINE",
"207 303 LINE",
"520 303 LINE",
"520 404 LINE",
"207 404 LINE",
"207 604 LINE",
"543 604 LINE",
"543 705 LINE",
"78 705 LINE",
"78 0 LINE"
);
}
);
width = 572;
}
);
leftKerningGroup = H;
rightKerningGroup = F;
unicode = 0046;
userData = {
anchors = (
);
b = {
};
com.typemytype.robofont.layerData = {
b = {
anchors = (
);
components = (
);
contours = (
{
points = (
{
segmentType = curve;
smooth = 1;
x = 266;
y = 0;
},
{
segmentType = line;
smooth = 1;
x = 1035;
y = 0;
},
{
smooth = 0;
x = 1084;
y = 0;
},
{
smooth = 0;
x = 1108;
y = 34;
},
{
segmentType = curve;
smooth = 1;
x = 1108;
y = 71;
},
{
smooth = 0;
x = 1108;
y = 107;
},
{
smooth = 0;
x = 1084;
y = 141;
},
{
segmentType = curve;
smooth = 1;
x = 1035;
y = 141;
},
{
segmentType = line;
smooth = 0;
x = 353;
y = 141;
},
{
segmentType = line;
smooth = 0;
x = 353;
y = 665;
},
{
segmentType = line;
smooth = 1;
x = 975;
y = 665;
},
{
smooth = 0;
x = 1024;
y = 665;
},
{
smooth = 0;
x = 1049;
y = 698;
},
{
segmentType = curve;
smooth = 1;
x = 1049;
y = 734;
},
{
smooth = 0;
x = 1049;
y = 770;
},
{
smooth = 0;
x = 1026;
y = 803;
},
{
segmentType = curve;
smooth = 1;
x = 975;
y = 803;
},
{
segmentType = line;
smooth = 0;
x = 353;
y = 803;
},
{
segmentType = line;
smooth = 0;
x = 353;
y = 1285;
},
{
segmentType = line;
smooth = 1;
x = 1007;
y = 1285;
},
{
smooth = 0;
x = 1056;
y = 1285;
},
{
smooth = 0;
x = 1080;
y = 1319;
},
{
segmentType = curve;
smooth = 1;
x = 1080;
y = 1356;
},
{
smooth = 0;
x = 1080;
y = 1392;
},
{
smooth = 0;
x = 1056;
y = 1426;
},
{
segmentType = curve;
smooth = 1;
x = 1007;
y = 1426;
},
{
segmentType = line;
smooth = 1;
x = 261;
y = 1426;
},
{
smooth = 0;
x = 213;
y = 1426;
},
{
smooth = 0;
x = 178;
y = 1383;
},
{
segmentType = curve;
smooth = 1;
x = 178;
y = 1340;
},
{
segmentType = line;
smooth = 1;
x = 178;
y = 86;
},
{
smooth = 0;
x = 178;
y = 41;
},
{
smooth = 0;
x = 222;
y = 0;
}
);
}
);
lib = {
};
name = F;
unicodes = (
);
width = 1142;
};
};
components = (
);
contours = (
);
lib = {
};
name = F;
unicodes = (
);
width = 1175;
};
},
{
color = 4;
glyphname = G;
layers = (
{
anchors = (
{
name = bottom;
position = "{406, 0}";
},
{
name = top;
position = "{391, 705}";
}
);
background = {
anchors = (
{
name = bottom;
position = "{397, 0}";
},
{
name = top;
position = "{390, 712}";
}
);
paths = (
{
closed = 1;
nodes = (
"489 -8 OFFCURVE",
"588 12 OFFCURVE",
"639 40 CURVE",
"639 363 LINE",
"398 363 LINE",
"398 314 LINE",
"589 314 LINE",
"589 41 LINE",
"603 81 LINE",
"549 57 OFFCURVE",
"474 41 OFFCURVE",
"397 41 CURVE SMOOTH",
"220 41 OFFCURVE",
"123 153 OFFCURVE",
"123 357 CURVE SMOOTH",
"123 557 OFFCURVE",
"220 670 OFFCURVE",
"390 670 CURVE SMOOTH",
"475 670 OFFCURVE",
"539 645 OFFCURVE",
"609 582 CURVE",
"633 626 LINE",
"572 689 OFFCURVE",
"489 720 OFFCURVE",
"392 720 CURVE SMOOTH",
"190 720 OFFCURVE",
"66 586 OFFCURVE",
"66 357 CURVE SMOOTH",
"66 127 OFFCURVE",
"189 -8 OFFCURVE",
"397 -8 CURVE SMOOTH"
);
}
);
};
layerId = "2567DF27-EA2D-46C8-A1A0-FA57AF1B0F16";
paths = (
{
closed = 1;
nodes = (
"490 -8 OFFCURVE",
"583 13 OFFCURVE",
"634 41 CURVE",
"634 357 LINE",
"400 357 LINE",
"400 318 LINE",
"594 318 LINE",
"594 38 LINE",
"606 74 LINE",
"547 47 OFFCURVE",
"482 33 OFFCURVE",
"406 33 CURVE SMOOTH",
"206 33 OFFCURVE",
"113 145 OFFCURVE",
"113 352 CURVE SMOOTH",
"113 555 OFFCURVE",
"213 672 OFFCURVE",
"391 672 CURVE SMOOTH",
"484 672 OFFCURVE",
"537 645 OFFCURVE",
"604 582 CURVE",
"626 617 LINE",
"565 680 OFFCURVE",
"495 713 OFFCURVE",
"392 713 CURVE SMOOTH",
"188 713 OFFCURVE",
"68 576 OFFCURVE",
"68 353 CURVE SMOOTH",
"68 124 OFFCURVE",
"181 -8 OFFCURVE",
"406 -8 CURVE SMOOTH"
);
}
);
width = 723;
},
{
anchors = (
{
name = bottom;
position = "{435, 0}";
},
{
name = top;
position = "{428, 705}";
}
);
background = {
anchors = (
{
name = bottom;
position = "{419, 0}";
},
{
name = top;
position = "{412, 712}";
}
);
paths = (
{
closed = 1;
nodes = (
"516 -9 OFFCURVE",
"614 10 OFFCURVE",
"685 44 CURVE",
"685 395 LINE",
"402 395 LINE",
"402 282 LINE",
"539 282 LINE",
"539 89 LINE",
"575 140 LINE",
"526 124 OFFCURVE",
"475 116 OFFCURVE",
"426 116 CURVE SMOOTH",
"284 116 OFFCURVE",
"214 195 OFFCURVE",
"214 357 CURVE SMOOTH",
"214 514 OFFCURVE",
"282 592 OFFCURVE",
"417 592 CURVE SMOOTH",
"489 592 OFFCURVE",
"547 573 OFFCURVE",
"614 526 CURVE",
"666 642 LINE",
"608 692 OFFCURVE",
"514 721 OFFCURVE",
"412 721 CURVE SMOOTH",
"191 721 OFFCURVE",
"49 581 OFFCURVE",
"49 357 CURVE SMOOTH",
"49 128 OFFCURVE",
"190 -9 OFFCURVE",
"419 -9 CURVE SMOOTH"
);
}
);
};
layerId = "FFBF88B9-CE65-4AF8-A771-12A489880E49";
paths = (
{
closed = 1;
nodes = (
"528 -12 OFFCURVE",
"627 7 OFFCURVE",
"708 45 CURVE",
"708 406 LINE",
"398 406 LINE",
"398 258 LINE",
"533 258 LINE",
"533 115 LINE",
"570 187 LINE",
"522 174 OFFCURVE",
"476 167 OFFCURVE",
"441 167 CURVE SMOOTH",
"320 167 OFFCURVE",
"267 228 OFFCURVE",
"267 348 CURVE SMOOTH",
"267 470 OFFCURVE",
"327 534 OFFCURVE",
"458 534 CURVE SMOOTH",
"528 534 OFFCURVE",
"568 524 OFFCURVE",
"631 488 CURVE",
"695 653 LINE",
"639 694 OFFCURVE",
"557 717 OFFCURVE",
"456 717 CURVE SMOOTH",
"196 717 OFFCURVE",
"41 572 OFFCURVE",
"41 348 CURVE SMOOTH",
"41 135 OFFCURVE",
"176 -12 OFFCURVE",
"429 -12 CURVE SMOOTH"
);
}
);
width = 756;
},
{
anchors = (
{
name = bottom;
position = "{421, 0}";
},
{
name = top;
position = "{410, 705}";
}
);
layerId = "36495FFF-A792-4E19-9295-2592132C4E2F";
paths = (
{
closed = 1;
nodes = (
"509 -10 OFFCURVE",
"605 10 OFFCURVE",
"671 43 CURVE",
"671 382 LINE",
"399 382 LINE",
"399 288 LINE",
"564 288 LINE",
"564 77 LINE",
"588 131 LINE",
"535 111 OFFCURVE",
"479 100 OFFCURVE",
"424 100 CURVE SMOOTH",
"263 100 OFFCURVE",
"190 187 OFFCURVE",
"190 350 CURVE SMOOTH",
"190 513 OFFCURVE",
"270 603 OFFCURVE",
"425 603 CURVE SMOOTH",
"506 603 OFFCURVE",
"553 585 OFFCURVE",
"618 535 CURVE",
"661 635 LINE",
"602 687 OFFCURVE",
"526 715 OFFCURVE",
"424 715 CURVE SMOOTH",
"192 715 OFFCURVE",
"55 574 OFFCURVE",
"55 351 CURVE SMOOTH",
"55 130 OFFCURVE",
"179 -10 OFFCURVE",
"418 -10 CURVE SMOOTH"
);
}
);
width = 739.5;
}
);
leftKerningGroup = O;
rightKerningGroup = G;
unicode = 0047;
userData = {
anchors = (
);
b = {
};
com.typemytype.robofont.layerData = {
b = {
anchors = (
);
components = (
);
contours = (
{
points = (
{
segmentType = curve;
smooth = 1;
x = 783;
y = "-22";
},
{
smooth = 0;
x = 965;
y = "-22";
},
{
smooth = 0;
x = 1086;
y = 34;
},
{
segmentType = curve;
smooth = 1;
x = 1166;
y = 86;
},
{
smooth = 0;
x = 1270;
y = 154;
},
{
smooth = 0;
x = 1186;
y = 258;
},
{
segmentType = curve;
smooth = 1;
x = 1112;
y = 214;
},
{
smooth = 0;
x = 1024;
y = 162;
},
{
smooth = 0;
x = 939;
y = 120;
},
{
segmentType = curve;
smooth = 1;
x = 806;
y = 120;
},
{
smooth = 0;
x = 446;
y = 120;
},
{
smooth = 0;
x = 316;
y = 406;
},
{
segmentType = curve;
smooth = 1;
x = 316;
y = 706;
},
{
smooth = 0;
x = 316;
y = 1005;
},
{
smooth = 0;
x = 450;
y = 1296;
},
{
segmentType = curve;
smooth = 1;
x = 801;
y = 1296;
},
{
smooth = 0;
x = 980;
y = 1296;
},
{
smooth = 0;
x = 1053;
y = 1246;
},
{
segmentType = curve;
smooth = 1;
x = 1094;
y = 1225;
},
{
smooth = 0;
x = 1174;
y = 1184;
},
{
smooth = 0;
x = 1231;
y = 1300;
},
{
segmentType = curve;
smooth = 1;
x = 1156;
y = 1343;
},
{
smooth = 0;
x = 1106;
y = 1372;
},
{
smooth = 0;
x = 995;
y = 1438;
},
{
segmentType = curve;
smooth = 1;
x = 797;
y = 1438;
},
{
smooth = 0;
x = 359;
y = 1438;
},
{
smooth = 0;
x = 128;
y = 1093;
},
{
segmentType = curve;
smooth = 1;
x = 128;
y = 704;
},
{
smooth = 0;
x = 128;
y = 307;
},
{
smooth = 0;
x = 350;
y = "-22";
}
);
}
);
lib = {
};
name = G;
unicodes = (
);
width = 1448;
};
};
components = (
);
contours = (
);
lib = {
};
name = G;
unicodes = (
);
width = 1538;
};
},
{
glyphname = H;
layers = (
{
anchors = (
{
name = bottom;
position = "{380, 0}";
},
{
name = center;
position = "{380, 546}";
},
{
name = top;
position = "{380, 705}";
},
{
name = topleft;
position = "{25, 705}";
}
);
background = {
anchors = (
{
name = bottom;
position = "{381, 0}";
},
{
name = center;
position = "{381, 362}";
},
{
name = top;
position = "{380, 712}";
},
{
name = topleft;
position = "{26, 712}";
}
);
paths = (
{
closed = 1;
nodes = (
"667 0 LINE",
"667 712 LINE",
"612 712 LINE",
"612 0 LINE"
);
},
{
closed = 1;
nodes = (
"148 0 LINE",
"148 712 LINE",
"94 712 LINE",
"94 0 LINE"
);
},
{
closed = 1;
nodes = (
"641 337 LINE",
"641 386 LINE",
"128 386 LINE",
"128 337 LINE"
);
}
);
};
layerId = "2567DF27-EA2D-46C8-A1A0-FA57AF1B0F16";
paths = (
{
closed = 1;
nodes = (
"139 0 LINE",
"139 338 LINE",
"620 338 LINE",
"620 0 LINE",
"662 0 LINE",
"662 705 LINE",
"620 705 LINE",
"620 377 LINE",
"139 377 LINE",
"139 705 LINE",
"97 705 LINE",
"97 0 LINE"
);
}
);
width = 759;
},
{
anchors = (
{
name = bottom;
position = "{395, 0}";
},
{
name = center;
position = "{395, 575}";
},
{
name = top;
position = "{395, 705}";
},
{
name = topleft;
position = "{17, 705}";
}
);
background = {
anchors = (
{
name = bottom;
position = "{390, 0}";
},
{
name = center;
position = "{390, 362}";
},
{
name = top;
position = "{390, 712}";
},
{
name = topleft;
position = "{21, 712}";
}
);
paths = (
{
closed = 1;
nodes = (
"710 0 LINE",
"710 712 LINE",
"550 712 LINE",
"550 0 LINE"
);
},
{
closed = 1;
nodes = (
"229 0 LINE",
"229 712 LINE",
"70 712 LINE",
"70 0 LINE"
);
},
{
closed = 1;
nodes = (
"646 297 LINE",
"646 426 LINE",
"121 426 LINE",
"121 297 LINE"
);
}
);
};
layerId = "FFBF88B9-CE65-4AF8-A771-12A489880E49";
paths = (
{
closed = 1;
nodes = (
"274 0 LINE",
"274 269 LINE",
"515 269 LINE",
"515 0 LINE",
"731 0 LINE",
"731 705 LINE",
"515 705 LINE",
"515 445 LINE",
"274 445 LINE",
"274 705 LINE",
"58 705 LINE",
"58 0 LINE"
);
}
);
width = 789;
},
{
anchors = (
{
name = bottom;
position = "{388, 0}";
},
{
name = center;
position = "{388, 561}";
},
{
name = top;
position = "{388, 705}";
},
{
name = topleft;
position = "{21, 705}";
}
);
layerId = "36495FFF-A792-4E19-9295-2592132C4E2F";
paths = (
{
closed = 1;
nodes = (
"207 0 LINE",
"207 304 LINE",
"568 304 LINE",
"568 0 LINE",
"697 0 LINE",
"697 705 LINE",
"568 705 LINE",
"568 411 LINE",
"207 411 LINE",
"207 705 LINE",
"78 705 LINE",
"78 0 LINE"
);
}
);
width = 774;
}
);
leftKerningGroup = H;
rightKerningGroup = H;
unicode = 0048;
userData = {
anchors = (
);
b = {
};
com.typemytype.robofont.layerData = {
b = {
anchors = (
);
components = (
);
contours = (
);
lib = {
};
name = H;
unicodes = (
);
width = 1464;
};
};
components = (
);
contours = (
);
lib = {
};
name = H;
unicodes = (
);
width = 1524;
};
},
{
glyphname = Hbar;
layers = (
{
background = {
paths = (
{
closed = 1;
nodes = (
"770 530 LINE",
"770 577 LINE",
"5 577 LINE",
"5 530 LINE"
);
},
{
closed = 1;
nodes = (
"674 0 LINE",
"674 712 LINE",
"619 712 LINE",
"619 0 LINE"
);
},
{
closed = 1;
nodes = (
"156 0 LINE",
"156 712 LINE",
"101 712 LINE",
"101 0 LINE"
);
},
{
closed = 1;
nodes = (
"629 337 LINE",
"629 386 LINE",
"136 386 LINE",
"136 337 LINE"
);
}
);
};
layerId = "2567DF27-EA2D-46C8-A1A0-FA57AF1B0F16";
paths = (
{
closed = 1;
nodes = (
"144 0 LINE",
"144 338 LINE",
"623 338 LINE",
"623 0 LINE",
"665 0 LINE",
"665 527 LINE",
"763 527 LINE",
"763 565 LINE",
"665 565 LINE",
"665 705 LINE",
"623 705 LINE",
"623 565 LINE",
"144 565 LINE",
"144 705 LINE",
"102 705 LINE",
"102 565 LINE",
"4 565 LINE",
"4 527 LINE",
"102 527 LINE",
"102 0 LINE"
);
},
{
closed = 1;
nodes = (
"144 527 LINE",
"623 527 LINE",
"623 377 LINE",
"144 377 LINE"
);
}
);
width = 767;
},
{
background = {
paths = (
{
closed = 1;
nodes = (
"827 512 LINE",
"827 631 LINE",
"15 631 LINE",
"15 512 LINE"
);
},
{
closed = 1;
nodes = (
"741 0 LINE",
"741 712 LINE",
"582 712 LINE",
"582 0 LINE"
);
},
{
closed = 1;
nodes = (
"261 0 LINE",
"261 712 LINE",
"101 712 LINE",
"101 0 LINE"
);
},
{
closed = 1;
nodes = (
"678 297 LINE",
"678 426 LINE",
"153 426 LINE",
"153 297 LINE"
);
}
);
};
layerId = "FFBF88B9-CE65-4AF8-A771-12A489880E49";
paths = (
{
closed = 1;
nodes = (
"317 0 LINE",
"317 246 LINE",
"558 246 LINE",
"558 0 LINE",
"774 0 LINE",
"774 495 LINE",
"850 495 LINE",
"850 644 LINE",
"774 644 LINE",
"774 705 LINE",
"558 705 LINE",
"558 644 LINE",
"317 644 LINE",
"317 705 LINE",
"101 705 LINE",
"101 644 LINE",
"25 644 LINE",
"25 495 LINE",
"101 495 LINE",
"101 0 LINE"
);
},
{
closed = 1;
nodes = (
"317 495 LINE",
"558 495 LINE",
"558 422 LINE",
"317 422 LINE"
);
}
);
width = 875;
},
{
layerId = "36495FFF-A792-4E19-9295-2592132C4E2F";
paths = (
{
closed = 1;
nodes = (
"231 0 LINE",
"231 292 LINE",
"591 292 LINE",
"591 0 LINE",
"720 0 LINE",
"720 511 LINE",
"807 511 LINE",
"807 605 LINE",
"720 605 LINE",
"720 705 LINE",
"591 705 LINE",
"591 605 LINE",
"231 605 LINE",
"231 705 LINE",
"102 705 LINE",
"102 605 LINE",
"15 605 LINE",
"15 511 LINE",
"102 511 LINE",
"102 0 LINE"
);
},
{
closed = 1;
nodes = (
"231 511 LINE",
"591 511 LINE",
"591 400 LINE",
"231 400 LINE"
);
}
);
width = 821;
}
);
leftKerningGroup = H;
rightKerningGroup = H;
unicode = 0126;
userData = {
com.typemytype.robofont.layerData = {
b = {
anchors = (
);
components = (
);
contours = (
);
lib = {
};
name = Hbar;
unicodes = (
);
width = 1464;
};
};
};
},
{
glyphname = I;
layers = (
{
anchors = (
{
name = bottom;
position = "{118, 0}";
},
{
name = ogonek;
position = "{139, 0}";
},
{
name = top;
position = "{118, 705}";
},
{
name = topleft;
position = "{26, 705}";
}
);
background = {
anchors = (
{
name = bottom;
position = "{121, 0}";
},
{
name = ogonek;
position = "{145, 10}";
},
{
name = top;
position = "{121, 712}";
},
{
name = topleft;
position = "{26, 712}";
}
);
paths = (
{
closed = 1;
nodes = (
"148 0 LINE",
"148 712 LINE",
"94 712 LINE",
"94 0 LINE"
);
}
);
};
layerId = "2567DF27-EA2D-46C8-A1A0-FA57AF1B0F16";
paths = (
{
closed = 1;
nodes = (
"139 0 LINE",
"139 705 LINE",
"97 705 LINE",
"97 0 LINE"
);
}
);
width = 236;
},
{
anchors = (
{
name = bottom;
position = "{166, 0}";
},
{
name = ogonek;
position = "{219, 0}";
},
{
name = top;
position = "{166, 705}";
},
{
name = topleft;
position = "{17, 705}";
}
);
background = {
anchors = (
{
name = bottom;
position = "{150, 0}";
},
{
name = ogonek;
position = "{202, 10}";
},
{
name = top;
position = "{150, 712}";
},
{
name = topleft;
position = "{21, 712}";
}
);
paths = (
{
closed = 1;
nodes = (
"232 0 LINE",
"232 712 LINE",
"70 712 LINE",
"70 0 LINE"
);
}
);
};
layerId = "FFBF88B9-CE65-4AF8-A771-12A489880E49";
paths = (
{
closed = 1;
nodes = (
"274 0 LINE",
"274 705 LINE",
"58 705 LINE",
"58 0 LINE"
);
}
);
width = 332;
},
{
anchors = (
{
name = bottom;
position = "{142, 0}";
},
{
name = ogonek;
position = "{179, 0}";
},
{
name = top;
position = "{142, 705}";
},
{
name = topleft;
position = "{22, 705}";
}
);
layerId = "36495FFF-A792-4E19-9295-2592132C4E2F";
paths = (
{
closed = 1;
nodes = (
"207 0 LINE",
"207 705 LINE",
"78 705 LINE",
"78 0 LINE"
);
}
);
width = 284;
}
);
leftKerningGroup = H;
rightKerningGroup = H;
unicode = 0049;
userData = {
anchors = (
);
b = {
};
com.typemytype.robofont.layerData = {
b = {
anchors = (
);
components = (
);
contours = (
);
lib = {
};
name = I;
unicodes = (
);
width = 592;
};
};
components = (
);
contours = (
);
lib = {
};
name = I;
unicodes = (
);
width = 637;
};
},
{
glyphname = Iogonek;
layers = (
{
background = {
paths = (
{
closed = 1;
nodes = (
"148 -193 OFFCURVE",
"177 -183 OFFCURVE",
"196 -170 CURVE",
"180 -131 LINE",
"159 -143 OFFCURVE",
"136 -149 OFFCURVE",
"120 -149 CURVE SMOOTH",
"80 -149 OFFCURVE",
"52 -126 OFFCURVE",
"52 -83 CURVE SMOOTH",
"52 -38 OFFCURVE",
"85 0 OFFCURVE",
"144 0 CURVE SMOOTH",
"148 0 LINE",
"148 712 LINE",
"94 712 LINE",
"94 0 LINE",
"111 0 LINE",
"131 38 LINE",
"46 24 OFFCURVE",
"1 -27 OFFCURVE",
"1 -89 CURVE SMOOTH",
"1 -149 OFFCURVE",
"46 -193 OFFCURVE",
"115 -193 CURVE SMOOTH"
);
}
);
};
components = (
{
name = I;
},
{
name = ogonekcomb;
transform = "{1, 0, 0, 1, 139, 0}";
}
);
layerId = "2567DF27-EA2D-46C8-A1A0-FA57AF1B0F16";
width = 236;
},
{
background = {
paths = (
{
closed = 1;
nodes = (
"199 -199 OFFCURVE",
"234 -192 OFFCURVE",
"265 -179 CURVE",
"247 -106 LINE",
"228 -114 OFFCURVE",
"210 -118 OFFCURVE",
"193 -118 CURVE SMOOTH",
"155 -118 OFFCURVE",
"133 -100 OFFCURVE",
"133 -65 CURVE SMOOTH",
"133 -27 OFFCURVE",
"166 0 OFFCURVE",
"217 0 CURVE SMOOTH",
"232 0 LINE",
"232 712 LINE",
"70 712 LINE",
"70 0 LINE",
"115 0 LINE",
"128 37 LINE",
"64 11 OFFCURVE",
"33 -35 OFFCURVE",
"33 -86 CURVE SMOOTH",
"33 -156 OFFCURVE",
"90 -199 OFFCURVE",
"163 -199 CURVE SMOOTH"
);
}
);
};
components = (
{
name = I;
},
{
name = ogonekcomb;
transform = "{1, 0, 0, 1, 219, 0}";
}
);
layerId = "FFBF88B9-CE65-4AF8-A771-12A489880E49";
width = 332;
},
{
components = (
{
name = I;
},
{
name = ogonekcomb;
transform = "{1, 0, 0, 1, 179, 0}";
}
);
layerId = "36495FFF-A792-4E19-9295-2592132C4E2F";
width = 284;
}
);
leftKerningGroup = H;
rightKerningGroup = H;
unicode = 012E;
},
{
color = 4;
glyphname = J;
layers = (
{
anchors = (
{
name = bottom;
position = "{181, 0}";
},
{
name = top;
position = "{181, 705}";
}
);
background = {
anchors = (
{
name = bottom;
position = "{188, 0}";
},
{
name = top;
position = "{188, 712}";
}
);
paths = (
{
closed = 1;
nodes = (
"152 -206 OFFCURVE",
"215 -162 OFFCURVE",
"215 -2 CURVE SMOOTH",
"215 712 LINE",
"161 712 LINE",
"161 0 LINE SMOOTH",
"161 -128 OFFCURVE",
"117 -153 OFFCURVE",
"-7 -128 CURVE",
"-7 -178 LINE"
);
}
);
};
layerId = "2567DF27-EA2D-46C8-A1A0-FA57AF1B0F16";
paths = (
{
closed = 1;
nodes = (
"158 -186 OFFCURVE",
"203 -127 OFFCURVE",
"203 -26 CURVE SMOOTH",
"203 705 LINE",
"161 705 LINE",
"161 -24 LINE SMOOTH",
"161 -110 OFFCURVE",
"125 -148 OFFCURVE",
"64 -148 CURVE SMOOTH",
"45 -148 OFFCURVE",
"25 -145 OFFCURVE",
"0 -139 CURVE",
"0 -178 LINE",
"25 -185 OFFCURVE",
"49 -186 OFFCURVE",
"70 -186 CURVE SMOOTH"
);
}
);
width = 300;
},
{
anchors = (
{
name = bottom;
position = "{260, 0}";
},
{
name = top;
position = "{260, 705}";
}
);
background = {
anchors = (
{
name = bottom;
position = "{233, 0}";
},
{
name = top;
position = "{233, 712}";
}
);
paths = (
{
closed = 1;
nodes = (
"240 -214 OFFCURVE",
"315 -141 OFFCURVE",
"315 45 CURVE SMOOTH",
"315 712 LINE",
"152 712 LINE",
"152 43 LINE SMOOTH",
"152 -52 OFFCURVE",
"126 -64 OFFCURVE",
"0 -48 CURVE",
"0 -179 LINE"
);
}
);
};
layerId = "FFBF88B9-CE65-4AF8-A771-12A489880E49";
paths = (
{
closed = 1;
nodes = (
"297 -187 OFFCURVE",
"365 -102 OFFCURVE",
"365 83 CURVE SMOOTH",
"365 705 LINE",
"149 705 LINE",
"149 82 LINE SMOOTH",
"149 10 OFFCURVE",
"132 -20 OFFCURVE",
"72 -20 CURVE SMOOTH",
"58 -20 OFFCURVE",
"29 -18 OFFCURVE",
"3 -13 CURVE",
"3 -177 LINE",
"42 -185 OFFCURVE",
"84 -187 OFFCURVE",
"109 -187 CURVE SMOOTH"
);
}
);
width = 423;
},
{
anchors = (
{
name = bottom;
position = "{221, 0}";
},
{
name = top;
position = "{221, 705}";
}
);
layerId = "36495FFF-A792-4E19-9295-2592132C4E2F";
paths = (
{
closed = 1;
nodes = (
"228 -187 OFFCURVE",
"284 -115 OFFCURVE",
"284 29 CURVE SMOOTH",
"284 705 LINE",
"155 705 LINE",
"155 29 LINE SMOOTH",
"155 -50 OFFCURVE",
"129 -84 OFFCURVE",
"68 -84 CURVE SMOOTH",
"52 -84 OFFCURVE",
"27 -82 OFFCURVE",
"2 -76 CURVE",
"2 -178 LINE",
"34 -185 OFFCURVE",
"67 -187 OFFCURVE",
"90 -187 CURVE SMOOTH"
);
}
);
width = 361.5;
}
);
leftKerningGroup = J;
rightKerningGroup = J;
unicode = 004A;
userData = {
anchors = (
);
b = {
};
com.typemytype.robofont.layerData = {
b = {
anchors = (
);
components = (
);
contours = (
);
lib = {
};
name = J;
unicodes = (
);
width = 1003;
};
};
components = (
);
contours = (
);
lib = {
};
name = J;
unicodes = (
);
width = 1126;
};
},
{
color = 4;
glyphname = K;
layers = (
{
anchors = (
{
name = bottom;
position = "{309, 0}";
},
{
name = top;
position = "{308, 705}";
},
{
name = topleft;
position = "{25, 705}";
}
);
background = {
anchors = (
{
name = bottom;
position = "{309, 0}";
},
{
name = top;
position = "{308, 712}";
}
);
paths = (
{
closed = 1;
nodes = (
"613 0 LINE",
"181 383 LINE",
"179 342 LINE",
"591 712 LINE",
"517 712 LINE",
"126 361 LINE",
"537 0 LINE"
);
},
{
closed = 1;
nodes = (
"148 0 LINE",
"148 712 LINE",
"94 712 LINE",
"94 0 LINE"
);
}
);
};
layerId = "2567DF27-EA2D-46C8-A1A0-FA57AF1B0F16";
paths = (
{
closed = 1;
nodes = (
"139 0 LINE",
"139 338 LINE",
"141 338 LINE",
"536 0 LINE",
"599 0 LINE",
"161 373 LINE",
"160 343 LINE",
"568 705 LINE",
"507 705 LINE",
"141 377 LINE",
"139 377 LINE",
"139 705 LINE",
"97 705 LINE",
"97 0 LINE"
);
}
);
width = 605;
},
{
anchors = (
{
name = bottom;
position = "{369, 0}";
},
{
name = top;
position = "{369, 705}";
},
{
name = topleft;
position = "{17, 705}";
}
);
background = {
anchors = (
{
name = bottom;
position = "{346, 0}";
},
{
name = top;
position = "{346, 712}";
}
);
paths = (
{
closed = 1;
nodes = (
"732 0 LINE",
"358 409 LINE",
"345 324 LINE",
"719 712 LINE",
"527 712 LINE",
"198 364 LINE",
"537 0 LINE"
);
},
{
closed = 1;
nodes = (
"232 0 LINE",
"232 712 LINE",
"70 712 LINE",
"70 0 LINE"
);
}
);
};
layerId = "FFBF88B9-CE65-4AF8-A771-12A489880E49";
paths = (
{
closed = 1;
nodes = (
"274 0 LINE",
"274 314 LINE",
"276 314 LINE",
"534 0 LINE",
"792 0 LINE",
"448 414 LINE",
"448 332 LINE",
"775 705 LINE",
"525 705 LINE",
"276 408 LINE",
"274 408 LINE",
"274 705 LINE",
"58 705 LINE",
"58 0 LINE"
);
}
);
width = 726;
},
{
anchors = (
{
name = bottom;
position = "{339, 0}";
},
{
name = top;
position = "{339, 705}";
},
{
name = topleft;
position = "{21, 705}";
}
);
layerId = "36495FFF-A792-4E19-9295-2592132C4E2F";
paths = (
{
closed = 1;
nodes = (
"207 0 LINE",
"207 326 LINE",
"209 326 LINE",
"535 0 LINE",
"696 0 LINE",
"305 394 LINE",
"304 338 LINE",
"672 705 LINE",
"516 705 LINE",
"209 393 LINE",
"207 393 LINE",
"207 705 LINE",
"78 705 LINE",
"78 0 LINE"
);
}
);
width = 665.5;
}
);
leftKerningGroup = H;
rightKerningGroup = K;
unicode = 004B;
userData = {
anchors = (
);
b = {
};
com.typemytype.robofont.layerData = {
b = {
anchors = (
);
components = (
);
contours = (
);
lib = {
};
name = K;
unicodes = (
);
width = 1210;
};
};
components = (
);
contours = (
);
lib = {
};
name = K;
unicodes = (
);
width = 1329;
};
},
{
glyphname = L;
layers = (
{
anchors = (
{
name = bottom;
position = "{303, 0}";
},
{
name = center;
position = "{164, 387}";
},
{
name = dot;
position = "{384, 386}";
},
{
name = top;
position = "{118, 705}";
},
{
name = topright;
position = "{256, 705}";
}
);
background = {
anchors = (
{
name = bottom;
position = "{310, 0}";
},
{
name = center;
position = "{337, 357}";
},
{
name = top;
position = "{121, 712}";
},
{
name = topright;
position = "{239, 712}";
}
);
paths = (
{
closed = 1;
nodes = (
"520 0 LINE",
"520 48 LINE",
"148 48 LINE",
"148 712 LINE",
"94 712 LINE",
"94 0 LINE"
);
}
);
};
layerId = "2567DF27-EA2D-46C8-A1A0-FA57AF1B0F16";
paths = (
{
closed = 1;
nodes = (
"517 0 LINE",
"517 39 LINE",
"139 39 LINE",
"139 705 LINE",
"97 705 LINE",
"97 0 LINE"
);
}
);
width = 532;
},
{
anchors = (
{
name = bottom;
position = "{322, 0}";
},
{
name = center;
position = "{214, 387}";
},
{
name = dot;
position = "{474, 402}";
},
{
name = top;
position = "{166, 705}";
},
{
name = topright;
position = "{367, 705}";
}
);
background = {
anchors = (
{
name = bottom;
position = "{316, 0}";
},
{
name = center;
position = "{398, 357}";
},
{
name = top;
position = "{150, 712}";
},
{
name = topright;
position = "{323, 712}";
}
);
paths = (
{
closed = 1;
nodes = (
"547 0 LINE",
"547 132 LINE",
"232 132 LINE",
"232 712 LINE",
"70 712 LINE",
"70 0 LINE"
);
}
);
};
layerId = "FFBF88B9-CE65-4AF8-A771-12A489880E49";
paths = (
{
closed = 1;
nodes = (
"560 0 LINE",
"560 178 LINE",
"274 178 LINE",
"274 705 LINE",
"58 705 LINE",
"58 0 LINE"
);
}
);
width = 588;
},
{
anchors = (
{
name = bottom;
position = "{313, 0}";
},
{
name = center;
position = "{189, 387}";
},
{
name = dot;
position = "{429, 394}";
},
{
name = top;
position = "{142, 705}";
},
{
name = topright;
position = "{312, 705}";
}
);
layerId = "36495FFF-A792-4E19-9295-2592132C4E2F";
paths = (
{
closed = 1;
nodes = (
"539 0 LINE",
"539 109 LINE",
"207 109 LINE",
"207 705 LINE",
"78 705 LINE",
"78 0 LINE"
);
}
);
width = 560;
}
);
leftKerningGroup = H;
rightKerningGroup = L;
unicode = 004C;
userData = {
anchors = (
);
b = {
};
com.typemytype.robofont.layerData = {
b = {
anchors = (
);
components = (
);
contours = (
{
points = (
{
segmentType = curve;
smooth = 1;
x = 266;
y = 0;
},
{
segmentType = line;
smooth = 1;
x = 1035;
y = 0;
},
{
smooth = 0;
x = 1084;
y = 0;
},
{
smooth = 0;
x = 1108;
y = 34;
},
{
segmentType = curve;
smooth = 1;
x = 1108;
y = 71;
},
{
smooth = 0;
x = 1108;
y = 107;
},
{
smooth = 0;
x = 1084;
y = 141;
},
{
segmentType = curve;
smooth = 1;
x = 1035;
y = 141;
},
{
segmentType = line;
smooth = 0;
x = 356;
y = 141;
},
{
segmentType = line;
smooth = 0;
x = 356;
y = 665;
},
{
segmentType = line;
smooth = 1;
x = 975;
y = 665;
},
{
smooth = 0;
x = 1024;
y = 665;
},
{
smooth = 0;
x = 1049;
y = 698;
},
{
segmentType = curve;
smooth = 1;
x = 1049;
y = 734;
},
{
smooth = 0;
x = 1049;
y = 770;
},
{
smooth = 0;
x = 1026;
y = 803;
},
{
segmentType = curve;
smooth = 1;
x = 975;
y = 803;
},
{
segmentType = line;
smooth = 0;
x = 356;
y = 803;
},
{
segmentType = line;
smooth = 0;
x = 356;
y = 1285;
},
{
segmentType = line;
smooth = 1;
x = 1007;
y = 1285;
},
{
smooth = 0;
x = 1056;
y = 1285;
},
{
smooth = 0;
x = 1080;
y = 1319;
},
{
segmentType = curve;
smooth = 1;
x = 1080;
y = 1356;
},
{
smooth = 0;
x = 1080;
y = 1392;
},
{
smooth = 0;
x = 1056;
y = 1426;
},
{
segmentType = curve;
smooth = 1;
x = 1007;
y = 1426;
},
{
segmentType = line;
smooth = 1;
x = 261;
y = 1426;
},
{
smooth = 0;
x = 213;
y = 1426;
},
{
smooth = 0;
x = 178;
y = 1383;
},
{
segmentType = curve;
smooth = 1;
x = 178;
y = 1340;
},
{
segmentType = line;
smooth = 1;
x = 178;
y = 86;
},
{
smooth = 0;
x = 178;
y = 41;
},
{
smooth = 0;
x = 222;
y = 0;
}
);
}
);
lib = {
};
name = L;
unicodes = (
);
width = 1095;
};
};
components = (
);
contours = (
);
lib = {
};
name = L;
unicodes = (
);
width = 1169;
};
},
{
glyphname = LJ;
production = uni01C7;
layers = (
{
background = {
paths = (
{
closed = 1;
nodes = (
"490 0 LINE",
"490 48 LINE",
"148 48 LINE",
"148 712 LINE",
"94 712 LINE",
"94 0 LINE"
);
},
{
closed = 1;
nodes = (
"600 -206 OFFCURVE",
"664 -162 OFFCURVE",
"664 -2 CURVE SMOOTH",
"664 712 LINE",
"609 712 LINE",
"609 0 LINE SMOOTH",
"609 -128 OFFCURVE",
"566 -153 OFFCURVE",
"441 -128 CURVE",
"441 -178 LINE"
);
}
);
};
components = (
{
name = L;
},
{
name = J;
transform = "{1, 0, 0, 1, 572, 0}";
}
);
layerId = "2567DF27-EA2D-46C8-A1A0-FA57AF1B0F16";
width = 872;
},
{
background = {
paths = (
{
closed = 1;
nodes = (
"517 0 LINE",
"517 132 LINE",
"232 132 LINE",
"232 712 LINE",
"70 712 LINE",
"70 0 LINE"
);
},
{
closed = 1;
nodes = (
"765 -214 OFFCURVE",
"839 -141 OFFCURVE",
"839 45 CURVE SMOOTH",
"839 712 LINE",
"676 712 LINE",
"676 43 LINE SMOOTH",
"676 -52 OFFCURVE",
"650 -64 OFFCURVE",
"524 -48 CURVE",
"524 -179 LINE"
);
}
);
};
components = (
{
name = L;
},
{
name = J;
transform = "{1, 0, 0, 1, 628, 0}";
}
);
layerId = "FFBF88B9-CE65-4AF8-A771-12A489880E49";
width = 1051;
},
{
components = (
{
name = L;
},
{
name = J;
transform = "{1, 0, 0, 1, 600, 0}";
}
);
layerId = "36495FFF-A792-4E19-9295-2592132C4E2F";
width = 962;
}
);
leftKerningGroup = H;
rightKerningGroup = J;
unicode = 01C7;
},
{
glyphname = Lslash;
layers = (
{
background = {
paths = (
{
closed = 1;
nodes = (
"346 459 LINE",
"346 514 LINE",
"8 319 LINE",
"8 264 LINE"
);
},
{
closed = 1;
nodes = (
"527 0 LINE",
"527 48 LINE",
"156 48 LINE",
"156 712 LINE",
"101 712 LINE",
"101 0 LINE"
);
}
);
};
components = (
{
name = L;
},
{
name = slashshortcomb.case;
transform = "{1, 0, 0, 1, 164, 2}";
}
);
layerId = "2567DF27-EA2D-46C8-A1A0-FA57AF1B0F16";
width = 532;
},
{
background = {
paths = (
{
closed = 1;
nodes = (
"448 443 LINE",
"448 582 LINE",
"10 329 LINE",
"10 191 LINE"
);
},
{
closed = 1;
nodes = (
"579 0 LINE",
"579 132 LINE",
"264 132 LINE",
"264 712 LINE",
"101 712 LINE",
"101 0 LINE"
);
}
);
};
components = (
{
name = L;
},
{
name = slashshortcomb.case;
transform = "{1, 0, 0, 1, 214, 5}";
}
);
layerId = "FFBF88B9-CE65-4AF8-A771-12A489880E49";
width = 588;
},
{
components = (
{
name = L;
},
{
name = slashshortcomb.case;
transform = "{1, 0, 0, 1, 189, 3}";
}
);
layerId = "36495FFF-A792-4E19-9295-2592132C4E2F";
width = 560;
}
);
leftKerningGroup = L;
rightKerningGroup = L;
unicode = 0141;
},
{
color = 4;
glyphname = M;
layers = (
{
anchors = (
{
name = bottom;
position = "{424, 0}";
},
{
name = top;
position = "{424, 705}";
}
);
background = {
anchors = (
{
name = bottom;
position = "{424, 0}";
},
{
name = top;
position = "{424, 712}";
}
);
paths = (
{
closed = 1;
nodes = (
"146 0 LINE",
"145 652 LINE",
"114 650 LINE",
"404 0 LINE",
"446 0 LINE",
"731 649 LINE",
"703 652 LINE",
"702 0 LINE",
"754 0 LINE",
"754 712 LINE",
"708 712 LINE",
"410 28 LINE",
"442 28 LINE",
"140 712 LINE",
"94 712 LINE",
"94 0 LINE"
);
}
);
};
layerId = "2567DF27-EA2D-46C8-A1A0-FA57AF1B0F16";
paths = (
{
closed = 1;
nodes = (
"136 0 LINE",
"136 665 LINE",
"112 665 LINE",
"407 0 LINE",
"442 0 LINE",
"736 664 LINE",
"712 664 LINE",
"712 0 LINE",
"751 0 LINE",
"751 705 LINE",
"715 705 LINE",
"410 17 LINE",
"438 17 LINE",
"134 705 LINE",
"97 705 LINE",
"97 0 LINE"
);
}
);
width = 848;
},
{
anchors = (
{
name = bottom;
position = "{446, 0}";
},
{
name = top;
position = "{446, 705}";
}
);
background = {
anchors = (
{
name = bottom;
position = "{425, 0}";
},
{
name = top;
position = "{425, 712}";
}
);
paths = (
{
closed = 1;
nodes = (
"214 0 LINE",
"214 470 LINE",
"176 461 LINE",
"373 0 LINE",
"478 0 LINE",
"672 461 LINE",
"636 470 LINE",
"636 0 LINE",
"779 0 LINE",
"779 712 LINE",
"652 712 LINE",
"399 131 LINE",
"455 131 LINE",
"200 712 LINE",
"72 712 LINE",
"72 0 LINE"
);
}
);
};
layerId = "FFBF88B9-CE65-4AF8-A771-12A489880E49";
paths = (
{
closed = 1;
nodes = (
"256 0 LINE",
"256 381 LINE",
"205 381 LINE",
"385 0 LINE",
"504 0 LINE",
"684 381 LINE",
"636 381 LINE",
"636 0 LINE",
"831 0 LINE",
"831 705 LINE",
"643 705 LINE",
"429 226 LINE",
"463 226 LINE",
"249 705 LINE",
"61 705 LINE",
"61 0 LINE"
);
}
);
width = 892;
},
{
anchors = (
{
name = bottom;
position = "{435, 0}";
},
{
name = top;
position = "{435, 705}";
}
);
layerId = "36495FFF-A792-4E19-9295-2592132C4E2F";
paths = (
{
closed = 1;
nodes = (
"196 0 LINE",
"196 523 LINE",
"159 523 LINE",
"396 0 LINE",
"473 0 LINE",
"710 523 LINE",
"674 523 LINE",
"674 0 LINE",
"791 0 LINE",
"791 705 LINE",
"679 705 LINE",
"420 122 LINE",
"451 122 LINE",
"192 705 LINE",
"79 705 LINE",
"79 0 LINE"
);
}
);
width = 870;
}
);
leftKerningGroup = H;
rightKerningGroup = H;
unicode = 004D;
userData = {
anchors = (
);
b = {
};
com.typemytype.robofont.layerData = {
b = {
anchors = (
);
components = (
);
contours = (
);
lib = {
};
name = M;
unicodes = (
);
width = 1899;
};
};
components = (
);
contours = (
);
lib = {
};
name = M;
unicodes = (
);
width = 1984;
};
},
{
color = 4;
glyphname = N;
layers = (
{
anchors = (
{
name = bottom;
position = "{370, 0}";
},
{
name = top;
position = "{370, 705}";
}
);
background = {
anchors = (
{
name = bottom;
position = "{371, 0}";
},
{
name = top;
position = "{371, 712}";
}
);
paths = (
{
closed = 1;
nodes = (
"145 0 LINE",
"145 650 LINE",
"123 649 LINE",
"604 0 LINE",
"647 0 LINE",
"647 712 LINE",
"596 712 LINE",
"596 62 LINE",
"619 63 LINE",
"138 712 LINE",
"94 712 LINE",
"94 0 LINE"
);
}
);
};
layerId = "2567DF27-EA2D-46C8-A1A0-FA57AF1B0F16";
paths = (
{
closed = 1;
nodes = (
"136 0 LINE",
"136 663 LINE",
"116 663 LINE",
"607 0 LINE",
"642 0 LINE",
"642 705 LINE",
"603 705 LINE",
"603 42 LINE",
"624 42 LINE",
"133 705 LINE",
"97 705 LINE",
"97 0 LINE"
);
}
);
width = 739;
},
{
anchors = (
{
name = bottom;
position = "{391, 0}";
},
{
name = top;
position = "{390, 705}";
}
);
background = {
anchors = (
{
name = bottom;
position = "{381, 0}";
},
{
name = top;
position = "{380, 712}";
}
);
paths = (
{
closed = 1;
nodes = (
"221 0 LINE",
"221 500 LINE",
"194 479 LINE",
"570 0 LINE",
"691 0 LINE",
"691 712 LINE",
"538 712 LINE",
"538 212 LINE",
"567 232 LINE",
"189 712 LINE",
"70 712 LINE",
"70 0 LINE"
);
}
);
};
layerId = "FFBF88B9-CE65-4AF8-A771-12A489880E49";
paths = (
{
closed = 1;
nodes = (
"260 0 LINE",
"260 395 LINE",
"229 395 LINE",
"555 0 LINE",
"713 0 LINE",
"713 705 LINE",
"512 705 LINE",
"512 310 LINE",
"543 310 LINE",
"216 705 LINE",
"58 705 LINE",
"58 0 LINE"
);
}
);
width = 771;
},
{
anchors = (
{
name = bottom;
position = "{381, 0}";
},
{
name = top;
position = "{380, 705}";
}
);
layerId = "36495FFF-A792-4E19-9295-2592132C4E2F";
paths = (
{
closed = 1;
nodes = (
"198 0 LINE",
"198 529 LINE",
"173 529 LINE",
"581 0 LINE",
"678 0 LINE",
"678 705 LINE",
"558 705 LINE",
"558 176 LINE",
"584 176 LINE",
"175 705 LINE",
"78 705 LINE",
"78 0 LINE"
);
}
);
width = 755;
}
);
leftKerningGroup = H;
rightKerningGroup = H;
unicode = 004E;
userData = {
anchors = (
);
b = {
};
com.typemytype.robofont.layerData = {
b = {
anchors = (
);
components = (
);
contours = (
);
lib = {
};
name = N;
unicodes = (
);
width = 1499;
};
};
components = (
);
contours = (
);
lib = {
};
name = N;
unicodes = (
);
width = 1557;
};
},
{
color = 4;
glyphname = Eng;
layers = (
{
anchors = (
{
name = bottom;
position = "{370, 0}";
},
{
name = top;
position = "{370, 705}";
}
);
background = {
paths = (
{
closed = 1;
nodes = (
"596 62 LINE",
"619 63 LINE",
"138 712 LINE",
"94 712 LINE",
"94 0 LINE",
"145 0 LINE",
"145 650 LINE",
"123 649 LINE",
"604 0 LINE",
"596 38 LINE",
"596 -13 LINE SMOOTH",
"596 -91 OFFCURVE",
"553 -130 OFFCURVE",
"477 -136 CURVE SMOOTH",
"423 -140 LINE",
"427 -188 LINE",
"483 -184 LINE SMOOTH",
"600 -176 OFFCURVE",
"647 -109 OFFCURVE",
"647 -9 CURVE SMOOTH",
"647 712 LINE",
"596 712 LINE"
);
}
);
};
layerId = "2567DF27-EA2D-46C8-A1A0-FA57AF1B0F16";
paths = (
{
closed = 1;
nodes = (
"496 -190 LINE SMOOTH",
"588 -184 OFFCURVE",
"642 -124 OFFCURVE",
"642 -21 CURVE SMOOTH",
"642 705 LINE",
"603 705 LINE",
"603 42 LINE",
"624 42 LINE",
"133 705 LINE",
"97 705 LINE",
"97 0 LINE",
"136 0 LINE",
"136 663 LINE",
"116 663 LINE",
"607 0 LINE",
"603 26 LINE",
"603 -22 LINE SMOOTH",
"603 -102 OFFCURVE",
"563 -147 OFFCURVE",
"491 -152 CURVE SMOOTH",
"448 -155 LINE",
"451 -193 LINE"
);
}
);
width = 739;
},
{
anchors = (
{
name = bottom;
position = "{391, 0}";
},
{
name = top;
position = "{390, 705}";
}
);
background = {
paths = (
{
closed = 1;
nodes = (
"538 212 LINE",
"567 232 LINE",
"189 712 LINE",
"70 712 LINE",
"70 0 LINE",
"221 0 LINE",
"221 500 LINE",
"194 479 LINE",
"565 7 LINE",
"537 92 LINE",
"537 24 LINE SMOOTH",
"537 -27 OFFCURVE",
"505 -60 OFFCURVE",
"449 -63 CURVE SMOOTH",
"372 -68 LINE",
"382 -190 LINE",
"477 -185 LINE SMOOTH",
"619 -177 OFFCURVE",
"691 -105 OFFCURVE",
"691 30 CURVE SMOOTH",
"691 712 LINE",
"538 712 LINE"
);
}
);
};
layerId = "FFBF88B9-CE65-4AF8-A771-12A489880E49";
paths = (
{
closed = 1;
nodes = (
"462 -190 LINE SMOOTH",
"655 -177 OFFCURVE",
"713 -118 OFFCURVE",
"713 40 CURVE SMOOTH",
"713 705 LINE",
"512 705 LINE",
"512 310 LINE",
"543 310 LINE",
"216 705 LINE",
"58 705 LINE",
"58 0 LINE",
"260 0 LINE",
"260 395 LINE",
"229 395 LINE",
"555 0 LINE",
"513 76 LINE",
"513 9 LINE SMOOTH",
"513 -24 OFFCURVE",
"495 -38 OFFCURVE",
"458 -42 CURVE SMOOTH",
"402 -48 LINE",
"416 -193 LINE"
);
}
);
width = 771;
},
{
anchors = (
{
name = bottom;
position = "{381, 0}";
},
{
name = top;
position = "{380, 705}";
}
);
layerId = "36495FFF-A792-4E19-9295-2592132C4E2F";
paths = (
{
closed = 1;
nodes = (
"479 -190 LINE SMOOTH",
"622 -181 OFFCURVE",
"678 -121 OFFCURVE",
"678 10 CURVE SMOOTH",
"678 705 LINE",
"558 705 LINE",
"558 176 LINE",
"584 176 LINE",
"175 705 LINE",
"78 705 LINE",
"78 0 LINE",
"198 0 LINE",
"198 529 LINE",
"173 529 LINE",
"581 0 LINE",
"558 51 LINE",
"558 -7 LINE SMOOTH",
"558 -63 OFFCURVE",
"529 -93 OFFCURVE",
"475 -97 CURVE SMOOTH",
"425 -102 LINE",
"434 -193 LINE"
);
}
);
width = 755;
}
);
leftKerningGroup = H;
rightKerningGroup = H;
unicode = 014A;
userData = {
com.typemytype.robofont.layerData = {
b = {
anchors = (
);
components = (
);
contours = (
);
lib = {
};
name = Eng;
unicodes = (
);
width = 1495;
};
};
};
},
{
color = 4;
glyphname = O;
layers = (
{
anchors = (
{
name = Qtail;
position = "{379, -8}";
},
{
name = bottom;
position = "{379, 0}";
},
{
name = center;
position = "{380, 353}";
},
{
name = ogonek;
position = "{436, 0}";
},
{
name = top;
position = "{379, 705}";
},
{
name = topleft;
position = "{25, 705}";
},
{
name = topright;
position = "{454, 705}";
}
);
background = {
anchors = (
{
name = bottom;
position = "{381, 0}";
},
{
name = center;
position = "{382, 357}";
},
{
name = ogonek;
position = "{487, 10}";
},
{
name = top;
position = "{381, 712}";
},
{
name = topleft;
position = "{26, 712}";
},
{
name = topright;
position = "{411, 712}";
}
);
paths = (
{
closed = 1;
nodes = (
"576 -8 OFFCURVE",
"697 131 OFFCURVE",
"697 357 CURVE SMOOTH",
"697 582 OFFCURVE",
"577 720 OFFCURVE",
"381 720 CURVE SMOOTH",
"185 720 OFFCURVE",
"66 582 OFFCURVE",
"66 356 CURVE SMOOTH",
"66 131 OFFCURVE",
"187 -8 OFFCURVE",
"381 -8 CURVE SMOOTH"
);
},
{
closed = 1;
nodes = (
"218 42 OFFCURVE",
"123 158 OFFCURVE",
"123 357 CURVE SMOOTH",
"123 556 OFFCURVE",
"218 670 OFFCURVE",
"381 670 CURVE SMOOTH",
"545 670 OFFCURVE",
"639 557 OFFCURVE",
"639 357 CURVE SMOOTH",
"639 157 OFFCURVE",
"544 42 OFFCURVE",
"381 42 CURVE SMOOTH"
);
}
);
};
layerId = "2567DF27-EA2D-46C8-A1A0-FA57AF1B0F16";
paths = (
{
closed = 1;
nodes = (
"68 130 OFFCURVE",
"183 -8 OFFCURVE",
"379 -8 CURVE SMOOTH",
"569 -8 OFFCURVE",
"691 130 OFFCURVE",
"691 354 CURVE SMOOTH",
"691 576 OFFCURVE",
"570 713 OFFCURVE",
"379 713 CURVE SMOOTH",
"181 713 OFFCURVE",
"68 576 OFFCURVE",
"68 353 CURVE SMOOTH"
);
},
{
closed = 1;
nodes = (
"113 555 OFFCURVE",
"206 672 OFFCURVE",
"379 672 CURVE SMOOTH",
"547 672 OFFCURVE",
"646 556 OFFCURVE",
"646 353 CURVE SMOOTH",
"646 150 OFFCURVE",
"546 33 OFFCURVE",
"379 33 CURVE SMOOTH",
"206 33 OFFCURVE",
"113 151 OFFCURVE",
"113 353 CURVE SMOOTH"
);
}
);
width = 759;
},
{
anchors = (
{
name = Qtail;
position = "{407, -12}";
},
{
name = bottom;
position = "{407, 0}";
},
{
name = center;
position = "{418, 353}";
},
{
name = ogonek;
position = "{483, 0}";
},
{
name = top;
position = "{407, 705}";
},
{
name = topleft;
position = "{25, 705}";
},
{
name = topright;
position = "{485, 705}";
}
);
background = {
anchors = (
{
name = bottom;
position = "{399, 0}";
},
{
name = center;
position = "{399, 357}";
},
{
name = ogonek;
position = "{518, 10}";
},
{
name = top;
position = "{398, 712}";
},
{
name = topleft;
position = "{22, 712}";
},
{
name = topright;
position = "{429, 712}";
}
);
paths = (
{
closed = 1;
nodes = (
"614 -9 OFFCURVE",
"747 133 OFFCURVE",
"747 357 CURVE SMOOTH",
"747 580 OFFCURVE",
"614 721 OFFCURVE",
"399 721 CURVE SMOOTH",
"184 721 OFFCURVE",
"49 580 OFFCURVE",
"49 357 CURVE SMOOTH",
"49 133 OFFCURVE",
"184 -9 OFFCURVE",
"399 -9 CURVE SMOOTH"
);
},
{
closed = 1;
nodes = (
"284 117 OFFCURVE",
"212 198 OFFCURVE",
"212 357 CURVE SMOOTH",
"212 515 OFFCURVE",
"284 595 OFFCURVE",
"399 595 CURVE SMOOTH",
"514 595 OFFCURVE",
"586 514 OFFCURVE",
"586 357 CURVE SMOOTH",
"586 199 OFFCURVE",
"514 117 OFFCURVE",
"399 117 CURVE SMOOTH"
);
}
);
};
layerId = "FFBF88B9-CE65-4AF8-A771-12A489880E49";
paths = (
{
closed = 1;
nodes = (
"41 136 OFFCURVE",
"182 -12 OFFCURVE",
"406 -12 CURVE SMOOTH",
"631 -12 OFFCURVE",
"773 135 OFFCURVE",
"773 353 CURVE SMOOTH",
"773 571 OFFCURVE",
"631 717 OFFCURVE",
"406 717 CURVE SMOOTH",
"182 717 OFFCURVE",
"41 571 OFFCURVE",
"41 353 CURVE SMOOTH"
);
},
{
closed = 1;
nodes = (
"267 470 OFFCURVE",
"310 538 OFFCURVE",
"406 538 CURVE SMOOTH",
"502 538 OFFCURVE",
"547 469 OFFCURVE",
"547 353 CURVE SMOOTH",
"547 237 OFFCURVE",
"502 167 OFFCURVE",
"406 167 CURVE SMOOTH",
"310 167 OFFCURVE",
"267 236 OFFCURVE",
"267 353 CURVE SMOOTH"
);
}
);
width = 814;
},
{
anchors = (
{
name = Qtail;
position = "{393, -10}";
},
{
name = bottom;
position = "{393, 0}";
},
{
name = center;
position = "{399, 353}";
},
{
name = ogonek;
position = "{460, 0}";
},
{
name = top;
position = "{393, 705}";
},
{
name = topleft;
position = "{25, 705}";
},
{
name = topright;
position = "{470, 705}";
}
);
layerId = "36495FFF-A792-4E19-9295-2592132C4E2F";
paths = (
{
closed = 1;
nodes = (
"55 133 OFFCURVE",
"183 -10 OFFCURVE",
"393 -10 CURVE SMOOTH",
"600 -10 OFFCURVE",
"732 133 OFFCURVE",
"732 354 CURVE SMOOTH",
"732 574 OFFCURVE",
"601 715 OFFCURVE",
"393 715 CURVE SMOOTH",
"182 715 OFFCURVE",
"55 574 OFFCURVE",
"55 353 CURVE SMOOTH"
);
},
{
closed = 1;
nodes = (
"190 513 OFFCURVE",
"258 605 OFFCURVE",
"393 605 CURVE SMOOTH",
"525 605 OFFCURVE",
"597 513 OFFCURVE",
"597 353 CURVE SMOOTH",
"597 194 OFFCURVE",
"524 100 OFFCURVE",
"393 100 CURVE SMOOTH",
"258 100 OFFCURVE",
"190 194 OFFCURVE",
"190 353 CURVE SMOOTH"
);
}
);
width = 786.5;
}
);
leftKerningGroup = O;
rightKerningGroup = O;
unicode = 004F;
userData = {
anchors = (
);
b = {
};
com.typemytype.robofont.guides = (
);
com.typemytype.robofont.layerData = {
b = {
anchors = (
);
components = (
);
contours = (
);
lib = {
};
name = O;
unicodes = (
);
width = 1597;
};
};
components = (
);
contours = (
);
lib = {
};
name = O;
unicodes = (
);
width = 1604;
};
},
{
glyphname = Ohorn;
layers = (
{
anchors = (
{
name = bottom;
position = "{388, 0}";
},
{
name = top;
position = "{387, 705}";
}
);
background = {
anchors = (
{
name = bottom;
position = "{382, 0}";
},
{
name = top;
position = "{381, 712}";
}
);
paths = (
{
closed = 1;
nodes = (
"575 -8 OFFCURVE",
"697 131 OFFCURVE",
"697 357 CURVE SMOOTH",
"697 513 OFFCURVE",
"639 627 OFFCURVE",
"534 683 CURVE",
"540 670 LINE",
"639 670 OFFCURVE",
"697 724 OFFCURVE",
"697 817 CURVE SMOOTH",
"697 839 LINE",
"646 839 LINE",
"646 826 LINE SMOOTH",
"646 744 OFFCURVE",
"614 713 OFFCURVE",
"527 712 CURVE SMOOTH",
"487 712 OFFCURVE",
"433 720 OFFCURVE",
"385 720 CURVE SMOOTH",
"185 720 OFFCURVE",
"66 582 OFFCURVE",
"66 356 CURVE SMOOTH",
"66 131 OFFCURVE",
"188 -8 OFFCURVE",
"381 -8 CURVE SMOOTH"
);
},
{
closed = 1;
nodes = (
"218 42 OFFCURVE",
"123 158 OFFCURVE",
"123 357 CURVE SMOOTH",
"123 556 OFFCURVE",
"218 670 OFFCURVE",
"381 670 CURVE SMOOTH",
"545 670 OFFCURVE",
"639 557 OFFCURVE",
"639 357 CURVE SMOOTH",
"639 157 OFFCURVE",
"544 42 OFFCURVE",
"381 42 CURVE SMOOTH"
);
}
);
};
components = (
{
name = O;
},
{
name = horncomb.O.case;
transform = "{1, 0, 0, 1, 454, 0}";
}
);
layerId = "2567DF27-EA2D-46C8-A1A0-FA57AF1B0F16";
width = 759;
},
{
anchors = (
{
name = bottom;
position = "{416, 0}";
},
{
name = top;
position = "{414, 705}";
}
);
background = {
anchors = (
{
name = bottom;
position = "{399, 0}";
},
{
name = top;
position = "{398, 712}";
}
);
paths = (
{
closed = 1;
nodes = (
"614 -9 OFFCURVE",
"747 133 OFFCURVE",
"747 357 CURVE SMOOTH",
"747 492 OFFCURVE",
"701 596 OFFCURVE",
"610 658 CURVE",
"594 636 LINE",
"684 636 OFFCURVE",
"747 702 OFFCURVE",
"747 795 CURVE SMOOTH",
"747 834 LINE",
"612 834 LINE",
"612 814 LINE SMOOTH",
"612 739 OFFCURVE",
"589 712 OFFCURVE",
"525 712 CURVE SMOOTH",
"481 712 OFFCURVE",
"449 721 OFFCURVE",
"401 721 CURVE SMOOTH",
"184 721 OFFCURVE",
"49 580 OFFCURVE",
"49 357 CURVE SMOOTH",
"49 133 OFFCURVE",
"184 -9 OFFCURVE",
"399 -9 CURVE SMOOTH"
);
},
{
closed = 1;
nodes = (
"284 117 OFFCURVE",
"212 198 OFFCURVE",
"212 357 CURVE SMOOTH",
"212 515 OFFCURVE",
"284 595 OFFCURVE",
"399 595 CURVE SMOOTH",
"514 595 OFFCURVE",
"586 514 OFFCURVE",
"586 357 CURVE SMOOTH",
"586 199 OFFCURVE",
"514 117 OFFCURVE",
"399 117 CURVE SMOOTH"
);
}
);
};
components = (
{
name = O;
},
{
name = horncomb.O.case;
transform = "{1, 0, 0, 1, 485, 0}";
}
);
layerId = "FFBF88B9-CE65-4AF8-A771-12A489880E49";
width = 814;
},
{
anchors = (
{
name = bottom;
position = "{402, 0}";
},
{
name = top;
position = "{401, 705}";
}
);
components = (
{
name = O;
},
{
name = horncomb.O.case;
transform = "{1, 0, 0, 1, 470, 0}";
}
);
layerId = "36495FFF-A792-4E19-9295-2592132C4E2F";
width = 787;
}
);
leftKerningGroup = O;
rightKerningGroup = O;
unicode = 01A0;
},
{
glyphname = Oogonek;
production = uni01EA;
layers = (
{
anchors = (
{
name = top;
position = "{387, 705}";
}
);
background = {
anchors = (
{
name = top;
position = "{381, 712}";
}
);
paths = (
{
closed = 1;
nodes = (
"615 43 OFFCURVE",
"697 170 OFFCURVE",
"697 357 CURVE SMOOTH",
"697 582 OFFCURVE",
"576 720 OFFCURVE",
"381 720 CURVE SMOOTH",
"186 720 OFFCURVE",
"66 582 OFFCURVE",
"66 356 CURVE SMOOTH",
"66 120 OFFCURVE",
"200 -21 OFFCURVE",
"408 -7 CURVE",
"400 11 LINE",
"365 -11 OFFCURVE",
"343 -48 OFFCURVE",
"343 -89 CURVE SMOOTH",
"343 -150 OFFCURVE",
"390 -193 OFFCURVE",
"458 -193 CURVE SMOOTH",
"489 -193 OFFCURVE",
"517 -185 OFFCURVE",
"538 -170 CURVE",
"522 -131 LINE",
"501 -142 OFFCURVE",
"480 -149 OFFCURVE",
"463 -149 CURVE SMOOTH",
"420 -149 OFFCURVE",
"394 -124 OFFCURVE",
"394 -83 CURVE SMOOTH",
"394 -40 OFFCURVE",
"420 -11 OFFCURVE",
"471 3 CURVE SMOOTH"
);
},
{
closed = 1;
nodes = (
"123 556 OFFCURVE",
"218 670 OFFCURVE",
"381 670 CURVE SMOOTH",
"545 670 OFFCURVE",
"639 557 OFFCURVE",
"639 357 CURVE SMOOTH",
"639 157 OFFCURVE",
"544 42 OFFCURVE",
"381 42 CURVE SMOOTH",
"218 42 OFFCURVE",
"123 158 OFFCURVE",
"123 357 CURVE SMOOTH"
);
}
);
};
components = (
{
name = O;
},
{
name = ogonekcomb;
transform = "{1, 0, 0, 1, 436, 0}";
}
);
layerId = "2567DF27-EA2D-46C8-A1A0-FA57AF1B0F16";
width = 759;
},
{
anchors = (
{
name = top;
position = "{415, 705}";
}
);
background = {
anchors = (
{
name = top;
position = "{398, 712}";
}
);
paths = (
{
closed = 1;
nodes = (
"662 49 OFFCURVE",
"747 177 OFFCURVE",
"747 357 CURVE SMOOTH",
"747 580 OFFCURVE",
"614 721 OFFCURVE",
"399 721 CURVE SMOOTH",
"184 721 OFFCURVE",
"49 580 OFFCURVE",
"49 357 CURVE SMOOTH",
"49 126 OFFCURVE",
"192 -16 OFFCURVE",
"415 -9 CURVE",
"402 12 LINE",
"368 -11 OFFCURVE",
"348 -48 OFFCURVE",
"348 -88 CURVE SMOOTH",
"348 -153 OFFCURVE",
"402 -199 OFFCURVE",
"478 -199 CURVE SMOOTH",
"514 -199 OFFCURVE",
"549 -192 OFFCURVE",
"580 -179 CURVE",
"563 -106 LINE",
"543 -114 OFFCURVE",
"525 -118 OFFCURVE",
"508 -118 CURVE SMOOTH",
"470 -118 OFFCURVE",
"448 -100 OFFCURVE",
"448 -65 CURVE SMOOTH",
"448 -31 OFFCURVE",
"470 -8 OFFCURVE",
"512 5 CURVE SMOOTH"
);
},
{
closed = 1;
nodes = (
"212 515 OFFCURVE",
"284 595 OFFCURVE",
"399 595 CURVE SMOOTH",
"514 595 OFFCURVE",
"586 514 OFFCURVE",
"586 357 CURVE SMOOTH",
"586 199 OFFCURVE",
"514 117 OFFCURVE",
"399 117 CURVE SMOOTH",
"284 117 OFFCURVE",
"212 198 OFFCURVE",
"212 357 CURVE SMOOTH"
);
}
);
};
components = (
{
name = O;
},
{
name = ogonekcomb;
transform = "{1, 0, 0, 1, 483, 0}";
}
);
layerId = "FFBF88B9-CE65-4AF8-A771-12A489880E49";
width = 814;
},
{
anchors = (
{
name = top;
position = "{401, 705}";
}
);
components = (
{
name = O;
},
{
name = ogonekcomb;
transform = "{1, 0, 0, 1, 460, 0}";
}
);
layerId = "36495FFF-A792-4E19-9295-2592132C4E2F";
width = 787;
}
);
leftKerningGroup = O;
rightKerningGroup = O;
unicode = 01EA;
},
{
glyphname = Oslash;
layers = (
{
anchors = (
{
name = Qtail;
position = "{379, -8}";
},
{
name = bottom;
position = "{379, 0}";
},
{
name = center;
position = "{380, 353}";
},
{
name = ogonek;
position = "{436, 0}";
},
{
name = top;
position = "{379, 705}";
},
{
name = topleft;
position = "{25, 705}";
},
{
name = topright;
position = "{454, 705}";
}
);
background = {
anchors = (
{
name = bottom;
position = "{381, 0}";
},
{
name = top;
position = "{381, 712}";
}
);
paths = (
{
closed = 1;
nodes = (
"576 -8 OFFCURVE",
"697 131 OFFCURVE",
"697 357 CURVE SMOOTH",
"697 582 OFFCURVE",
"577 720 OFFCURVE",
"381 720 CURVE SMOOTH",
"185 720 OFFCURVE",
"66 582 OFFCURVE",
"66 356 CURVE SMOOTH",
"66 131 OFFCURVE",
"187 -8 OFFCURVE",
"381 -8 CURVE SMOOTH"
);
},
{
closed = 1;
nodes = (
"625 728 LINE",
"585 751 LINE",
"137 -16 LINE",
"178 -39 LINE"
);
},
{
closed = 1;
nodes = (
"218 42 OFFCURVE",
"123 158 OFFCURVE",
"123 357 CURVE SMOOTH",
"123 556 OFFCURVE",
"218 670 OFFCURVE",
"381 670 CURVE SMOOTH",
"545 670 OFFCURVE",
"639 557 OFFCURVE",
"639 357 CURVE SMOOTH",
"639 157 OFFCURVE",
"544 42 OFFCURVE",
"381 42 CURVE SMOOTH"
);
}
);
};
layerId = "2567DF27-EA2D-46C8-A1A0-FA57AF1B0F16";
paths = (
{
closed = 1;
nodes = (
"68 130 OFFCURVE",
"183 -8 OFFCURVE",
"379 -8 CURVE SMOOTH",
"569 -8 OFFCURVE",
"691 130 OFFCURVE",
"691 354 CURVE SMOOTH",
"691 576 OFFCURVE",
"570 713 OFFCURVE",
"379 713 CURVE SMOOTH",
"181 713 OFFCURVE",
"68 576 OFFCURVE",
"68 353 CURVE SMOOTH"
);
},
{
closed = 1;
nodes = (
"113 555 OFFCURVE",
"206 672 OFFCURVE",
"379 672 CURVE SMOOTH",
"547 672 OFFCURVE",
"646 556 OFFCURVE",
"646 353 CURVE SMOOTH",
"646 150 OFFCURVE",
"546 33 OFFCURVE",
"379 33 CURVE SMOOTH",
"206 33 OFFCURVE",
"113 151 OFFCURVE",
"113 353 CURVE SMOOTH"
);
},
{
closed = 1;
nodes = (
"234 65 LINE",
"558 621 LINE",
"571 643 LINE",
"617 722 LINE",
"584 740 LINE",
"538 662 LINE",
"525 640 LINE",
"201 84 LINE",
"188 62 LINE",
"142 -17 LINE",
"175 -35 LINE",
"221 43 LINE"
);
}
);
width = 759;
},
{
anchors = (
{
name = Qtail;
position = "{407, -12}";
},
{
name = bottom;
position = "{407, 0}";
},
{
name = center;
position = "{418, 353}";
},
{
name = ogonek;
position = "{483, 0}";
},
{
name = top;
position = "{407, 705}";
},
{
name = topleft;
position = "{25, 705}";
},
{
name = topright;
position = "{485, 705}";
}
);
background = {
anchors = (
{
name = bottom;
position = "{399, 0}";
},
{
name = top;
position = "{398, 712}";
}
);
paths = (
{
closed = 1;
nodes = (
"614 -9 OFFCURVE",
"747 133 OFFCURVE",
"747 357 CURVE SMOOTH",
"747 580 OFFCURVE",
"614 721 OFFCURVE",
"399 721 CURVE SMOOTH",
"184 721 OFFCURVE",
"49 580 OFFCURVE",
"49 357 CURVE SMOOTH",
"49 133 OFFCURVE",
"184 -9 OFFCURVE",
"399 -9 CURVE SMOOTH"
);
},
{
closed = 1;
nodes = (
"680 720 LINE",
"577 782 LINE",
"117 -8 LINE",
"220 -70 LINE"
);
},
{
closed = 1;
nodes = (
"284 117 OFFCURVE",
"212 198 OFFCURVE",
"212 357 CURVE SMOOTH",
"212 515 OFFCURVE",
"284 595 OFFCURVE",
"399 595 CURVE SMOOTH",
"514 595 OFFCURVE",
"586 514 OFFCURVE",
"586 357 CURVE SMOOTH",
"586 199 OFFCURVE",
"514 117 OFFCURVE",
"399 117 CURVE SMOOTH"
);
}
);
};
layerId = "FFBF88B9-CE65-4AF8-A771-12A489880E49";
paths = (
{
closed = 1;
nodes = (
"41 136 OFFCURVE",
"182 -12 OFFCURVE",
"406 -12 CURVE SMOOTH",
"631 -12 OFFCURVE",
"773 135 OFFCURVE",
"773 353 CURVE SMOOTH",
"773 571 OFFCURVE",
"631 717 OFFCURVE",
"406 717 CURVE SMOOTH",
"182 717 OFFCURVE",
"41 571 OFFCURVE",
"41 353 CURVE SMOOTH"
);
},
{
closed = 1;
nodes = (
"267 470 OFFCURVE",
"310 538 OFFCURVE",
"406 538 CURVE SMOOTH",
"502 538 OFFCURVE",
"547 469 OFFCURVE",
"547 353 CURVE SMOOTH",
"547 237 OFFCURVE",
"502 167 OFFCURVE",
"406 167 CURVE SMOOTH",
"310 167 OFFCURVE",
"267 236 OFFCURVE",
"267 353 CURVE SMOOTH"
);
},
{
closed = 1;
nodes = (
"363 139 LINE",
"565 486 LINE",
"634 571 LINE",
"715 709 LINE",
"582 789 LINE",
"501 651 LINE",
"472 566 LINE",
"270 219 LINE",
"201 134 LINE",
"120 -4 LINE",
"254 -84 LINE",
"334 54 LINE"
);
}
);
width = 814;
},
{
anchors = (
{
name = Qtail;
position = "{393, -10}";
},
{
name = bottom;
position = "{393, 0}";
},
{
name = center;
position = "{399, 353}";
},
{
name = ogonek;
position = "{460, 0}";
},
{
name = top;
position = "{393, 705}";
},
{
name = topleft;
position = "{25, 705}";
},
{
name = topright;
position = "{470, 705}";
}
);
layerId = "36495FFF-A792-4E19-9295-2592132C4E2F";
paths = (
{
closed = 1;
nodes = (
"55 133 OFFCURVE",
"183 -10 OFFCURVE",
"393 -10 CURVE SMOOTH",
"600 -10 OFFCURVE",
"732 133 OFFCURVE",
"732 354 CURVE SMOOTH",
"732 574 OFFCURVE",
"601 715 OFFCURVE",
"393 715 CURVE SMOOTH",
"182 715 OFFCURVE",
"55 574 OFFCURVE",
"55 353 CURVE SMOOTH"
);
},
{
closed = 1;
nodes = (
"190 513 OFFCURVE",
"258 605 OFFCURVE",
"393 605 CURVE SMOOTH",
"525 605 OFFCURVE",
"597 513 OFFCURVE",
"597 353 CURVE SMOOTH",
"597 194 OFFCURVE",
"524 100 OFFCURVE",
"393 100 CURVE SMOOTH",
"258 100 OFFCURVE",
"190 194 OFFCURVE",
"190 353 CURVE SMOOTH"
);
},
{
closed = 1;
nodes = (
"298 102 LINE",
"562 554 LINE",
"603 607 LINE",
"666 716 LINE",
"583 765 LINE",
"520 657 LINE",
"499 603 LINE",
"235 152 LINE",
"194 98 LINE",
"131 -11 LINE",
"214 -60 LINE",
"277 49 LINE"
);
}
);
width = 787;
}
);
leftKerningGroup = O;
rightKerningGroup = O;
unicode = 00D8;
userData = {
com.typemytype.robofont.layerData = {
b = {
anchors = (
);
components = (
);
contours = (
);
lib = {
};
name = Oslash;
unicodes = (
);
width = 1597;
};
};
};
},
{
color = 4;
glyphname = OE;
layers = (
{
anchors = (
{
name = bottom;
position = "{603, 0}";
},
{
name = top;
position = "{603, 705}";
}
);
background = {
anchors = (
{
name = bottom;
position = "{537, 0}";
},
{
name = top;
position = "{536, 712}";
}
);
paths = (
{
closed = 1;
nodes = (
"1002 0 LINE",
"1002 48 LINE",
"621 48 LINE",
"621 337 LINE",
"982 337 LINE",
"982 386 LINE",
"621 386 LINE",
"621 664 LINE",
"1002 664 LINE",
"1002 712 LINE",
"568 712 LINE",
"568 645 LINE",
"567 629 LINE",
"567 86 LINE",
"568 67 LINE",
"568 0 LINE"
);
},
{
closed = 1;
nodes = (
"584 651 LINE",
"530 697 OFFCURVE",
"462 720 OFFCURVE",
"381 720 CURVE SMOOTH",
"185 720 OFFCURVE",
"66 582 OFFCURVE",
"66 356 CURVE SMOOTH",
"66 131 OFFCURVE",
"187 -8 OFFCURVE",
"381 -8 CURVE SMOOTH",
"463 -8 OFFCURVE",
"530 15 OFFCURVE",
"584 62 CURVE",
"584 125 LINE",
"538 71 OFFCURVE",
"469 42 OFFCURVE",
"381 42 CURVE SMOOTH",
"218 42 OFFCURVE",
"123 158 OFFCURVE",
"123 357 CURVE SMOOTH",
"123 554 OFFCURVE",
"217 670 OFFCURVE",
"381 670 CURVE SMOOTH",
"469 670 OFFCURVE",
"538 641 OFFCURVE",
"584 588 CURVE"
);
}
);
};
layerId = "2567DF27-EA2D-46C8-A1A0-FA57AF1B0F16";
paths = (
{
closed = 1;
nodes = (
"1000 0 LINE",
"1000 39 LINE",
"614 39 LINE",
"614 338 LINE",
"980 338 LINE",
"980 377 LINE",
"614 377 LINE",
"614 666 LINE",
"1000 666 LINE",
"1000 705 LINE",
"572 705 LINE",
"572 0 LINE"
);
},
{
closed = 1;
nodes = (
"467 -8 OFFCURVE",
"540 18 OFFCURVE",
"594 68 CURVE",
"594 135 LINE",
"548 64 OFFCURVE",
"475 33 OFFCURVE",
"379 33 CURVE SMOOTH",
"206 33 OFFCURVE",
"113 151 OFFCURVE",
"113 353 CURVE SMOOTH",
"113 555 OFFCURVE",
"206 672 OFFCURVE",
"379 672 CURVE SMOOTH",
"472 672 OFFCURVE",
"544 651 OFFCURVE",
"589 585 CURVE",
"589 648 LINE",
"537 696 OFFCURVE",
"465 713 OFFCURVE",
"379 713 CURVE SMOOTH",
"181 713 OFFCURVE",
"68 576 OFFCURVE",
"68 353 CURVE SMOOTH",
"68 130 OFFCURVE",
"183 -8 OFFCURVE",
"379 -8 CURVE SMOOTH"
);
}
);
width = 1057;
},
{
anchors = (
{
name = bottom;
position = "{626, 0}";
},
{
name = top;
position = "{626, 705}";
}
);
background = {
anchors = (
{
name = bottom;
position = "{534, 0}";
},
{
name = top;
position = "{534, 712}";
}
);
paths = (
{
closed = 1;
nodes = (
"1018 0 LINE",
"1018 126 LINE",
"683 126 LINE",
"683 299 LINE",
"998 299 LINE",
"998 425 LINE",
"683 425 LINE",
"683 586 LINE",
"1018 586 LINE",
"1018 712 LINE",
"534 712 LINE",
"534 632 LINE",
"524 613 LINE",
"524 111 LINE",
"534 77 LINE",
"534 0 LINE"
);
},
{
closed = 1;
nodes = (
"559 654 LINE",
"523 698 OFFCURVE",
"461 721 OFFCURVE",
"379 721 CURVE SMOOTH",
"185 721 OFFCURVE",
"49 571 OFFCURVE",
"49 357 CURVE SMOOTH",
"49 141 OFFCURVE",
"185 -9 OFFCURVE",
"379 -9 CURVE SMOOTH",
"462 -9 OFFCURVE",
"523 15 OFFCURVE",
"559 61 CURVE",
"559 185 LINE",
"528 140 OFFCURVE",
"473 117 OFFCURVE",
"399 117 CURVE SMOOTH",
"280 117 OFFCURVE",
"212 203 OFFCURVE",
"212 357 CURVE SMOOTH",
"212 509 OFFCURVE",
"279 595 OFFCURVE",
"399 595 CURVE SMOOTH",
"473 595 OFFCURVE",
"528 572 OFFCURVE",
"559 527 CURVE"
);
}
);
};
layerId = "FFBF88B9-CE65-4AF8-A771-12A489880E49";
paths = (
{
closed = 1;
nodes = (
"1026 0 LINE",
"1026 164 LINE",
"723 164 LINE",
"723 276 LINE",
"1002 276 LINE",
"1002 440 LINE",
"723 440 LINE",
"723 541 LINE",
"1026 541 LINE",
"1026 705 LINE",
"517 705 LINE",
"517 0 LINE"
);
},
{
closed = 1;
nodes = (
"430 -12 OFFCURVE",
"495 4 OFFCURVE",
"527 34 CURVE",
"527 221 LINE",
"505 184 OFFCURVE",
"465 167 OFFCURVE",
"406 167 CURVE SMOOTH",
"310 167 OFFCURVE",
"267 236 OFFCURVE",
"267 353 CURVE SMOOTH",
"267 470 OFFCURVE",
"310 538 OFFCURVE",
"406 538 CURVE SMOOTH",
"465 538 OFFCURVE",
"505 512 OFFCURVE",
"527 474 CURVE",
"527 677 LINE",
"490 707 OFFCURVE",
"430 717 OFFCURVE",
"386 717 CURVE SMOOTH",
"172 717 OFFCURVE",
"41 571 OFFCURVE",
"41 353 CURVE SMOOTH",
"41 136 OFFCURVE",
"172 -12 OFFCURVE",
"386 -12 CURVE SMOOTH"
);
}
);
width = 1053;
},
{
anchors = (
{
name = bottom;
position = "{615, 0}";
},
{
name = top;
position = "{615, 705}";
}
);
layerId = "36495FFF-A792-4E19-9295-2592132C4E2F";
paths = (
{
closed = 1;
nodes = (
"1013 0 LINE",
"1013 102 LINE",
"669 102 LINE",
"669 307 LINE",
"991 307 LINE",
"991 409 LINE",
"669 409 LINE",
"669 604 LINE",
"1013 604 LINE",
"1013 705 LINE",
"545 705 LINE",
"545 0 LINE"
);
},
{
closed = 1;
nodes = (
"449 -10 OFFCURVE",
"518 11 OFFCURVE",
"561 51 CURVE",
"561 178 LINE",
"527 124 OFFCURVE",
"470 100 OFFCURVE",
"393 100 CURVE SMOOTH",
"258 100 OFFCURVE",
"190 194 OFFCURVE",
"190 353 CURVE SMOOTH",
"190 513 OFFCURVE",
"258 605 OFFCURVE",
"393 605 CURVE SMOOTH",
"469 605 OFFCURVE",
"525 582 OFFCURVE",
"558 530 CURVE",
"558 663 LINE",
"514 702 OFFCURVE",
"448 715 OFFCURVE",
"383 715 CURVE SMOOTH",
"177 715 OFFCURVE",
"55 574 OFFCURVE",
"55 353 CURVE SMOOTH",
"55 133 OFFCURVE",
"178 -10 OFFCURVE",
"383 -10 CURVE SMOOTH"
);
}
);
width = 1055;
}
);
leftKerningGroup = O;
rightKerningGroup = E;
unicode = 0152;
},
{
color = 4;
glyphname = P;
layers = (
{
anchors = (
{
name = bottom;
position = "{314, 0}";
},
{
name = top;
position = "{314, 705}";
}
);
background = {
anchors = (
{
name = bottom;
position = "{321, 0}";
},
{
name = top;
position = "{321, 712}";
}
);
paths = (
{
closed = 1;
nodes = (
"148 0 LINE",
"148 322 LINE",
"364 322 LINE SMOOTH",
"505 322 OFFCURVE",
"591 397 OFFCURVE",
"591 518 CURVE SMOOTH",
"591 639 OFFCURVE",
"506 712 OFFCURVE",
"364 712 CURVE SMOOTH",
"94 712 LINE",
"94 0 LINE"
);
},
{
closed = 1;
nodes = (
"148 664 LINE",
"361 664 LINE SMOOTH",
"476 664 OFFCURVE",
"535 611 OFFCURVE",
"535 518 CURVE SMOOTH",
"535 425 OFFCURVE",
"476 371 OFFCURVE",
"361 371 CURVE SMOOTH",
"148 371 LINE"
);
}
);
};
layerId = "2567DF27-EA2D-46C8-A1A0-FA57AF1B0F16";
paths = (
{
closed = 1;
nodes = (
"139 0 LINE",
"139 317 LINE",
"360 317 LINE SMOOTH",
"502 317 OFFCURVE",
"585 389 OFFCURVE",
"585 511 CURVE SMOOTH",
"585 633 OFFCURVE",
"502 705 OFFCURVE",
"360 705 CURVE SMOOTH",
"97 705 LINE",
"97 0 LINE"
);
},
{
closed = 1;
nodes = (
"139 666 LINE",
"359 666 LINE SMOOTH",
"477 666 OFFCURVE",
"540 610 OFFCURVE",
"540 511 CURVE SMOOTH",
"540 412 OFFCURVE",
"477 356 OFFCURVE",
"359 356 CURVE SMOOTH",
"139 356 LINE"
);
}
);
width = 638;
},
{
anchors = (
{
name = bottom;
position = "{345, 0}";
},
{
name = top;
position = "{344, 705}";
}
);
background = {
anchors = (
{
name = bottom;
position = "{341, 0}";
},
{
name = top;
position = "{340, 712}";
}
);
paths = (
{
closed = 1;
nodes = (
"232 0 LINE",
"232 286 LINE",
"396 286 LINE SMOOTH",
"554 286 OFFCURVE",
"646 370 OFFCURVE",
"646 499 CURVE SMOOTH",
"646 629 OFFCURVE",
"556 712 OFFCURVE",
"396 712 CURVE SMOOTH",
"70 712 LINE",
"70 0 LINE"
);
},
{
closed = 1;
nodes = (
"232 588 LINE",
"375 588 LINE SMOOTH",
"457 588 OFFCURVE",
"494 556 OFFCURVE",
"494 498 CURVE SMOOTH",
"494 441 OFFCURVE",
"456 409 OFFCURVE",
"375 409 CURVE SMOOTH",
"232 409 LINE"
);
}
);
};
layerId = "FFBF88B9-CE65-4AF8-A771-12A489880E49";
paths = (
{
closed = 1;
nodes = (
"274 0 LINE",
"274 251 LINE",
"422 251 LINE SMOOTH",
"588 251 OFFCURVE",
"673 340 OFFCURVE",
"673 478 CURVE SMOOTH",
"673 616 OFFCURVE",
"588 705 OFFCURVE",
"422 705 CURVE SMOOTH",
"58 705 LINE",
"58 0 LINE"
);
},
{
closed = 1;
nodes = (
"274 541 LINE",
"393 541 LINE SMOOTH",
"444 541 OFFCURVE",
"467 518 OFFCURVE",
"467 478 CURVE SMOOTH",
"467 438 OFFCURVE",
"444 415 OFFCURVE",
"393 415 CURVE SMOOTH",
"274 415 LINE"
);
}
);
width = 694;
},
{
anchors = (
{
name = bottom;
position = "{330, 0}";
},
{
name = top;
position = "{329, 705}";
}
);
layerId = "36495FFF-A792-4E19-9295-2592132C4E2F";
paths = (
{
closed = 1;
nodes = (
"207 0 LINE",
"207 284 LINE",
"391 284 LINE SMOOTH",
"545 284 OFFCURVE",
"629 365 OFFCURVE",
"629 495 CURVE SMOOTH",
"629 625 OFFCURVE",
"545 705 OFFCURVE",
"391 705 CURVE SMOOTH",
"78 705 LINE",
"78 0 LINE"
);
},
{
closed = 1;
nodes = (
"207 604 LINE",
"376 604 LINE SMOOTH",
"461 604 OFFCURVE",
"504 564 OFFCURVE",
"504 495 CURVE SMOOTH",
"504 425 OFFCURVE",
"461 386 OFFCURVE",
"376 386 CURVE SMOOTH",
"207 386 LINE"
);
}
);
width = 666;
}
);
leftKerningGroup = H;
rightKerningGroup = P;
unicode = 0050;
userData = {
anchors = (
);
b = {
};
com.typemytype.robofont.layerData = {
b = {
anchors = (
);
components = (
);
contours = (
{
points = (
{
segmentType = curve;
smooth = 1;
x = 266;
y = 0;
},
{
segmentType = line;
smooth = 1;
x = 1035;
y = 0;
},
{
smooth = 0;
x = 1084;
y = 0;
},
{
smooth = 0;
x = 1108;
y = 34;
},
{
segmentType = curve;
smooth = 1;
x = 1108;
y = 71;
},
{
smooth = 0;
x = 1108;
y = 107;
},
{
smooth = 0;
x = 1084;
y = 141;
},
{
segmentType = curve;
smooth = 1;
x = 1035;
y = 141;
},
{
segmentType = line;
smooth = 0;
x = 356;
y = 141;
},
{
segmentType = line;
smooth = 0;
x = 356;
y = 665;
},
{
segmentType = line;
smooth = 1;
x = 975;
y = 665;
},
{
smooth = 0;
x = 1024;
y = 665;
},
{
smooth = 0;
x = 1049;
y = 698;
},
{
segmentType = curve;
smooth = 1;
x = 1049;
y = 734;
},
{
smooth = 0;
x = 1049;
y = 770;
},
{
smooth = 0;
x = 1026;
y = 803;
},
{
segmentType = curve;
smooth = 1;
x = 975;
y = 803;
},
{
segmentType = line;
smooth = 0;
x = 356;
y = 803;
},
{
segmentType = line;
smooth = 0;
x = 356;
y = 1285;
},
{
segmentType = line;
smooth = 1;
x = 1007;
y = 1285;
},
{
smooth = 0;
x = 1056;
y = 1285;
},
{
smooth = 0;
x = 1080;
y = 1319;
},
{
segmentType = curve;
smooth = 1;
x = 1080;
y = 1356;
},
{
smooth = 0;
x = 1080;
y = 1392;
},
{
smooth = 0;
x = 1056;
y = 1426;
},
{
segmentType = curve;
smooth = 1;
x = 1007;
y = 1426;
},
{
segmentType = line;
smooth = 1;
x = 261;
y = 1426;
},
{
smooth = 0;
x = 213;
y = 1426;
},
{
smooth = 0;
x = 178;
y = 1383;
},
{
segmentType = curve;
smooth = 1;
x = 178;
y = 1340;
},
{
segmentType = line;
smooth = 1;
x = 178;
y = 86;
},
{
smooth = 0;
x = 178;
y = 41;
},
{
smooth = 0;
x = 222;
y = 0;
}
);
}
);
lib = {
};
name = P;
unicodes = (
);
width = 1201;
};
};
components = (
);
contours = (
);
lib = {
};
name = P;
unicodes = (
);
width = 1319;
};
},
{
color = 4;
glyphname = Thorn;
layers = (
{
anchors = (
{
name = bottom;
position = "{314, 0}";
},
{
name = top;
position = "{314, 705}";
}
);
background = {
anchors = (
{
name = bottom;
position = "{321, 0}";
},
{
name = top;
position = "{321, 712}";
}
);
paths = (
{
closed = 1;
nodes = (
"369 174 LINE SMOOTH",
"509 174 OFFCURVE",
"591 243 OFFCURVE",
"591 364 CURVE SMOOTH",
"591 483 OFFCURVE",
"511 550 OFFCURVE",
"369 550 CURVE SMOOTH",
"137 550 LINE",
"137 502 LINE",
"366 502 LINE SMOOTH",
"481 502 OFFCURVE",
"535 458 OFFCURVE",
"535 364 CURVE SMOOTH",
"535 269 OFFCURVE",
"480 222 OFFCURVE",
"366 222 CURVE SMOOTH",
"137 222 LINE",
"137 174 LINE"
);
},
{
closed = 1;
nodes = (
"148 0 LINE",
"148 712 LINE",
"94 712 LINE",
"94 0 LINE"
);
}
);
};
layerId = "2567DF27-EA2D-46C8-A1A0-FA57AF1B0F16";
paths = (
{
closed = 1;
nodes = (
"139 0 LINE",
"139 171 LINE",
"360 171 LINE SMOOTH",
"502 171 OFFCURVE",
"585 243 OFFCURVE",
"585 365 CURVE SMOOTH",
"585 487 OFFCURVE",
"502 559 OFFCURVE",
"360 559 CURVE SMOOTH",
"139 559 LINE",
"139 705 LINE",
"97 705 LINE",
"97 0 LINE"
);
},
{
closed = 1;
nodes = (
"139 520 LINE",
"359 520 LINE SMOOTH",
"477 520 OFFCURVE",
"540 464 OFFCURVE",
"540 365 CURVE SMOOTH",
"540 266 OFFCURVE",
"477 210 OFFCURVE",
"359 210 CURVE SMOOTH",
"139 210 LINE"
);
}
);
width = 638;
},
{
anchors = (
{
name = bottom;
position = "{359, 0}";
},
{
name = top;
position = "{358, 705}";
}
);
background = {
anchors = (
{
name = bottom;
position = "{341, 0}";
},
{
name = top;
position = "{340, 712}";
}
);
paths = (
{
closed = 1;
nodes = (
"401 154 LINE SMOOTH",
"553 154 OFFCURVE",
"646 232 OFFCURVE",
"646 362 CURVE SMOOTH",
"646 492 OFFCURVE",
"556 570 OFFCURVE",
"401 570 CURVE SMOOTH",
"209 570 LINE",
"209 445 LINE",
"374 445 LINE SMOOTH",
"457 445 OFFCURVE",
"494 420 OFFCURVE",
"494 362 CURVE SMOOTH",
"494 303 OFFCURVE",
"457 278 OFFCURVE",
"374 278 CURVE SMOOTH",
"209 278 LINE",
"209 154 LINE"
);
},
{
closed = 1;
nodes = (
"229 0 LINE",
"229 712 LINE",
"70 712 LINE",
"70 0 LINE"
);
}
);
};
layerId = "FFBF88B9-CE65-4AF8-A771-12A489880E49";
paths = (
{
closed = 1;
nodes = (
"274 0 LINE",
"274 151 LINE",
"413 151 LINE SMOOTH",
"578 151 OFFCURVE",
"673 240 OFFCURVE",
"673 378 CURVE SMOOTH",
"673 516 OFFCURVE",
"578 605 OFFCURVE",
"413 605 CURVE SMOOTH",
"274 605 LINE",
"274 705 LINE",
"58 705 LINE",
"58 0 LINE"
);
},
{
closed = 1;
nodes = (
"274 441 LINE",
"394 441 LINE SMOOTH",
"441 441 OFFCURVE",
"468 418 OFFCURVE",
"468 378 CURVE SMOOTH",
"468 338 OFFCURVE",
"440 315 OFFCURVE",
"394 315 CURVE SMOOTH",
"274 315 LINE"
);
}
);
width = 696;
},
{
anchors = (
{
name = bottom;
position = "{337, 0}";
},
{
name = top;
position = "{336, 705}";
}
);
layerId = "36495FFF-A792-4E19-9295-2592132C4E2F";
paths = (
{
closed = 1;
nodes = (
"207 0 LINE",
"207 161 LINE",
"387 161 LINE SMOOTH",
"540 161 OFFCURVE",
"629 242 OFFCURVE",
"629 372 CURVE SMOOTH",
"629 502 OFFCURVE",
"540 582 OFFCURVE",
"387 582 CURVE SMOOTH",
"207 582 LINE",
"207 705 LINE",
"78 705 LINE",
"78 0 LINE"
);
},
{
closed = 1;
nodes = (
"207 481 LINE",
"377 481 LINE SMOOTH",
"459 481 OFFCURVE",
"504 441 OFFCURVE",
"504 372 CURVE SMOOTH",
"504 302 OFFCURVE",
"459 263 OFFCURVE",
"377 263 CURVE SMOOTH",
"207 263 LINE"
);
}
);
width = 667;
}
);
leftKerningGroup = H;
rightKerningGroup = THORN;
unicode = 00DE;
},
{
glyphname = Q;
layers = (
{
anchors = (
{
name = bottom;
position = "{380, 0}";
},
{
name = top;
position = "{380, 705}";
}
);
background = {
anchors = (
{
name = bottom;
position = "{381, 0}";
},
{
name = center;
position = "{382, 357}";
},
{
name = ogonek;
position = "{487, 10}";
},
{
name = top;
position = "{381, 712}";
},
{
name = topleft;
position = "{26, 712}";
},
{
name = topright;
position = "{411, 712}";
}
);
paths = (
{
closed = 1;
nodes = (
"611 -149 LINE",
"560 -106 OFFCURVE",
"514 -55 OFFCURVE",
"478 12 CURVE",
"420 -4 LINE",
"461 -75 OFFCURVE",
"520 -150 OFFCURVE",
"573 -191 CURVE"
);
},
{
closed = 1;
nodes = (
"576 -8 OFFCURVE",
"697 131 OFFCURVE",
"697 357 CURVE SMOOTH",
"697 582 OFFCURVE",
"577 720 OFFCURVE",
"381 720 CURVE SMOOTH",
"185 720 OFFCURVE",
"66 582 OFFCURVE",
"66 356 CURVE SMOOTH",
"66 131 OFFCURVE",
"187 -8 OFFCURVE",
"381 -8 CURVE SMOOTH"
);
},
{
closed = 1;
nodes = (
"218 42 OFFCURVE",
"123 158 OFFCURVE",
"123 357 CURVE SMOOTH",
"123 556 OFFCURVE",
"218 670 OFFCURVE",
"381 670 CURVE SMOOTH",
"545 670 OFFCURVE",
"639 557 OFFCURVE",
"639 357 CURVE SMOOTH",
"639 157 OFFCURVE",
"544 42 OFFCURVE",
"381 42 CURVE SMOOTH"
);
}
);
};
components = (
{
alignment = -1;
name = O;
},
{
name = _part.Qtail;
transform = "{1, 0, 0, 1, -8, 0}";
}
);
layerId = "2567DF27-EA2D-46C8-A1A0-FA57AF1B0F16";
width = 759;
},
{
anchors = (
{
name = bottom;
position = "{407, 0}";
},
{
name = top;
position = "{407, 705}";
}
);
background = {
anchors = (
{
name = bottom;
position = "{399, 0}";
},
{
name = center;
position = "{399, 357}";
},
{
name = ogonek;
position = "{518, 10}";
},
{
name = top;
position = "{398, 712}";
},
{
name = topleft;
position = "{22, 712}";
},
{
name = topright;
position = "{429, 712}";
}
);
paths = (
{
closed = 1;
nodes = (
"702 -109 LINE",
"650 -66 OFFCURVE",
"593 -14 OFFCURVE",
"561 53 CURVE",
"420 -4 LINE",
"461 -75 OFFCURVE",
"520 -142 OFFCURVE",
"593 -191 CURVE"
);
},
{
closed = 1;
nodes = (
"614 -9 OFFCURVE",
"747 133 OFFCURVE",
"747 357 CURVE SMOOTH",
"747 580 OFFCURVE",
"614 721 OFFCURVE",
"399 721 CURVE SMOOTH",
"184 721 OFFCURVE",
"49 580 OFFCURVE",
"49 357 CURVE SMOOTH",
"49 133 OFFCURVE",
"184 -9 OFFCURVE",
"399 -9 CURVE SMOOTH"
);
},
{
closed = 1;
nodes = (
"284 117 OFFCURVE",
"212 198 OFFCURVE",
"212 357 CURVE SMOOTH",
"212 515 OFFCURVE",
"284 595 OFFCURVE",
"399 595 CURVE SMOOTH",
"514 595 OFFCURVE",
"586 514 OFFCURVE",
"586 357 CURVE SMOOTH",
"586 199 OFFCURVE",
"514 117 OFFCURVE",
"399 117 CURVE SMOOTH"
);
}
);
};
components = (
{
alignment = -1;
name = O;
},
{
name = _part.Qtail;
transform = "{1, 0, 0, 1, -8, -2}";
}
);
layerId = "FFBF88B9-CE65-4AF8-A771-12A489880E49";
width = 814;
},
{
anchors = (
{
name = bottom;
position = "{394, 0}";
},
{
name = top;
position = "{394, 705}";
}
);
components = (
{
alignment = -1;
name = O;
},
{
alignment = -1;
name = _part.Qtail;
transform = "{1, 0, 0, 1, -8, -1}";
}
);
layerId = "36495FFF-A792-4E19-9295-2592132C4E2F";
width = 786.5;
}
);
leftKerningGroup = O;
rightKerningGroup = O;
unicode = 0051;
userData = {
anchors = (
);
b = {
};
com.typemytype.robofont.layerData = {
b = {
anchors = (
);
components = (
);
contours = (
);
lib = {
};
name = Q;
unicodes = (
);
width = 1597;
};
};
components = (
);
contours = (
);
lib = {
};
name = Q;
unicodes = (
);
width = 1604;
};
},
{
color = 4;
glyphname = R;
layers = (
{
anchors = (
{
name = bottom;
position = "{338, 0}";
},
{
name = top;
position = "{338, 705}";
}
);
background = {
anchors = (
{
name = bottom;
position = "{339, 0}";
},
{
name = top;
position = "{339, 712}";
}
);
paths = (
{
closed = 1;
nodes = (
"148 0 LINE",
"148 320 LINE",
"355 320 LINE SMOOTH",
"429 320 OFFCURVE",
"468 306 OFFCURVE",
"493 237 CURVE SMOOTH",
"581 0 LINE",
"637 0 LINE",
"546 249 LINE SMOOTH",
"523 313 OFFCURVE",
"487 339 OFFCURVE",
"434 339 CURVE",
"364 326 LINE",
"511 326 OFFCURVE",
"597 397 OFFCURVE",
"597 518 CURVE SMOOTH",
"597 644 OFFCURVE",
"512 712 OFFCURVE",
"365 712 CURVE SMOOTH",
"94 712 LINE",
"94 0 LINE"
);
},
{
closed = 1;
nodes = (
"148 664 LINE",
"363 664 LINE SMOOTH",
"484 664 OFFCURVE",
"541 615 OFFCURVE",
"541 519 CURVE SMOOTH",
"541 420 OFFCURVE",
"482 369 OFFCURVE",
"363 369 CURVE SMOOTH",
"148 369 LINE"
);
}
);
};
layerId = "2567DF27-EA2D-46C8-A1A0-FA57AF1B0F16";
paths = (
{
closed = 1;
nodes = (
"139 0 LINE",
"139 322 LINE",
"340 322 LINE SMOOTH",
"421 322 OFFCURVE",
"471 309 OFFCURVE",
"498 236 CURVE SMOOTH",
"586 0 LINE",
"633 0 LINE",
"536 252 LINE SMOOTH",
"511 316 OFFCURVE",
"467 337 OFFCURVE",
"414 337 CURVE SMOOTH",
"406 337 LINE",
"385 329 LINE",
"504 329 OFFCURVE",
"592 395 OFFCURVE",
"592 514 CURVE SMOOTH",
"592 635 OFFCURVE",
"509 705 OFFCURVE",
"367 705 CURVE SMOOTH",
"97 705 LINE",
"97 0 LINE"
);
},
{
closed = 1;
nodes = (
"139 666 LINE",
"363 666 LINE SMOOTH",
"483 666 OFFCURVE",
"547 612 OFFCURVE",
"547 514 CURVE SMOOTH",
"547 415 OFFCURVE",
"483 361 OFFCURVE",
"363 361 CURVE SMOOTH",
"139 361 LINE"
);
}
);
width = 684;
},
{
anchors = (
{
name = bottom;
position = "{371, 0}";
},
{
name = top;
position = "{370, 705}";
}
);
background = {
anchors = (
{
name = bottom;
position = "{358, 0}";
},
{
name = top;
position = "{357, 712}";
}
);
paths = (
{
closed = 1;
nodes = (
"230 0 LINE",
"230 285 LINE",
"324 285 LINE SMOOTH",
"364 285 OFFCURVE",
"397 274 OFFCURVE",
"411 237 CURVE SMOOTH",
"502 0 LINE",
"674 0 LINE",
"589 219 LINE SMOOTH",
"566 279 OFFCURVE",
"524 308 OFFCURVE",
"475 308 CURVE",
"392 291 LINE",
"550 291 OFFCURVE",
"643 375 OFFCURVE",
"643 502 CURVE SMOOTH",
"643 636 OFFCURVE",
"558 712 OFFCURVE",
"389 712 CURVE SMOOTH",
"70 712 LINE",
"70 0 LINE"
);
},
{
closed = 1;
nodes = (
"228 588 LINE",
"365 588 LINE SMOOTH",
"453 588 OFFCURVE",
"491 560 OFFCURVE",
"491 498 CURVE SMOOTH",
"491 437 OFFCURVE",
"453 408 OFFCURVE",
"365 408 CURVE SMOOTH",
"228 408 LINE"
);
}
);
};
layerId = "FFBF88B9-CE65-4AF8-A771-12A489880E49";
paths = (
{
closed = 1;
nodes = (
"274 0 LINE",
"274 250 LINE",
"294 250 LINE SMOOTH",
"319 250 OFFCURVE",
"346 242 OFFCURVE",
"357 222 CURVE SMOOTH",
"478 0 LINE",
"715 0 LINE",
"606 190 LINE SMOOTH",
"575 245 OFFCURVE",
"528 282 OFFCURVE",
"469 282 CURVE SMOOTH",
"410 282 LINE",
"403 253 LINE",
"571 253 OFFCURVE",
"666 339 OFFCURVE",
"666 479 CURVE SMOOTH",
"666 620 OFFCURVE",
"571 705 OFFCURVE",
"405 705 CURVE SMOOTH",
"58 705 LINE",
"58 0 LINE"
);
},
{
closed = 1;
nodes = (
"274 541 LINE",
"366 541 LINE SMOOTH",
"427 541 OFFCURVE",
"460 519 OFFCURVE",
"460 472 CURVE SMOOTH",
"460 424 OFFCURVE",
"427 401 OFFCURVE",
"366 401 CURVE SMOOTH",
"274 401 LINE"
);
}
);
width = 720;
},
{
anchors = (
{
name = bottom;
position = "{355, 0}";
},
{
name = top;
position = "{354, 705}";
}
);
layerId = "36495FFF-A792-4E19-9295-2592132C4E2F";
paths = (
{
closed = 1;
nodes = (
"207 0 LINE",
"207 286 LINE",
"317 286 LINE SMOOTH",
"370 286 OFFCURVE",
"409 276 OFFCURVE",
"428 229 CURVE SMOOTH",
"532 0 LINE",
"674 0 LINE",
"571 221 LINE SMOOTH",
"543 281 OFFCURVE",
"498 310 OFFCURVE",
"442 310 CURVE SMOOTH",
"408 310 LINE",
"394 291 LINE",
"538 291 OFFCURVE",
"629 367 OFFCURVE",
"629 497 CURVE SMOOTH",
"629 628 OFFCURVE",
"540 705 OFFCURVE",
"386 705 CURVE SMOOTH",
"78 705 LINE",
"78 0 LINE"
);
},
{
closed = 1;
nodes = (
"207 604 LINE",
"365 604 LINE SMOOTH",
"455 604 OFFCURVE",
"504 566 OFFCURVE",
"504 493 CURVE SMOOTH",
"504 420 OFFCURVE",
"455 381 OFFCURVE",
"365 381 CURVE SMOOTH",
"207 381 LINE"
);
}
);
width = 702;
}
);
leftKerningGroup = H;
rightKerningGroup = R;
unicode = 0052;
userData = {
anchors = (
);
b = {
};
com.typemytype.robofont.guides = (
);
com.typemytype.robofont.layerData = {
b = {
anchors = (
);
components = (
);
contours = (
{
points = (
{
segmentType = curve;
smooth = 1;
x = 267;
y = 0;
},
{
smooth = 0;
x = 311;
y = 0;
},
{
smooth = 0;
x = 356;
y = 27;
},
{
segmentType = curve;
smooth = 1;
x = 356;
y = 84;
},
{
segmentType = line;
smooth = 0;
x = 356;
y = 628;
},
{
segmentType = line;
smooth = 1;
x = 669;
y = 628;
},
{
smooth = 0;
x = 962;
y = 628;
},
{
smooth = 0;
x = 1182;
y = 722;
},
{
segmentType = curve;
smooth = 1;
x = 1182;
y = 1026;
},
{
smooth = 0;
x = 1182;
y = 1324;
},
{
smooth = 0;
x = 993;
y = 1426;
},
{
segmentType = curve;
smooth = 1;
x = 684;
y = 1426;
},
{
segmentType = line;
smooth = 1;
x = 268;
y = 1426;
},
{
smooth = 0;
x = 217;
y = 1426;
},
{
smooth = 0;
x = 178;
y = 1387;
},
{
segmentType = curve;
smooth = 1;
x = 178;
y = 1339;
},
{
segmentType = line;
smooth = 1;
x = 178;
y = 84;
},
{
smooth = 0;
x = 178;
y = 28;
},
{
smooth = 0;
x = 222;
y = 0;
}
);
},
{
points = (
{
segmentType = line;
smooth = 0;
x = 356;
y = 764;
},
{
segmentType = line;
smooth = 0;
x = 356;
y = 1285;
},
{
segmentType = line;
smooth = 1;
x = 684;
y = 1285;
},
{
smooth = 0;
x = 914;
y = 1285;
},
{
smooth = 0;
x = 1008;
y = 1210;
},
{
segmentType = curve;
smooth = 1;
x = 1008;
y = 1026;
},
{
smooth = 0;
x = 1008;
y = 838;
},
{
smooth = 0;
x = 901;
y = 764;
},
{
segmentType = curve;
smooth = 1;
x = 670;
y = 764;
}
);
}
);
lib = {
};
name = R;
unicodes = (
);
width = 1363;
};
};
components = (
);
contours = (
);
lib = {
};
name = R;
unicodes = (
);
width = 1408;
};
},
{
color = 4;
glyphname = S;
layers = (
{
anchors = (
{
name = bottom;
position = "{319, 0}";
},
{
name = top;
position = "{313, 705}";
}
);
background = {
anchors = (
{
name = bottom;
position = "{310, 0}";
},
{
name = top;
position = "{305, 712}";
}
);
paths = (
{
closed = 1;
nodes = (
"464 -8 OFFCURVE",
"562 71 OFFCURVE",
"562 187 CURVE SMOOTH",
"562 328 OFFCURVE",
"416 348 OFFCURVE",
"292 379 CURVE SMOOTH",
"199 401 OFFCURVE",
"118 430 OFFCURVE",
"118 520 CURVE SMOOTH",
"118 614 OFFCURVE",
"190 670 OFFCURVE",
"313 670 CURVE SMOOTH",
"397 670 OFFCURVE",
"463 643 OFFCURVE",
"530 582 CURVE",
"554 626 LINE",
"494 688 OFFCURVE",
"410 720 OFFCURVE",
"313 720 CURVE SMOOTH",
"160 720 OFFCURVE",
"63 640 OFFCURVE",
"63 520 CURVE SMOOTH",
"63 378 OFFCURVE",
"197 348 OFFCURVE",
"317 320 CURVE SMOOTH",
"416 297 OFFCURVE",
"506 274 OFFCURVE",
"506 188 CURVE SMOOTH",
"506 95 OFFCURVE",
"435 42 OFFCURVE",
"312 42 CURVE SMOOTH",
"211 42 OFFCURVE",
"146 66 OFFCURVE",
"75 130 CURVE",
"51 86 LINE",
"118 21 OFFCURVE",
"201 -8 OFFCURVE",
"312 -8 CURVE SMOOTH"
);
}
);
};
layerId = "2567DF27-EA2D-46C8-A1A0-FA57AF1B0F16";
paths = (
{
closed = 1;
nodes = (
"463 -8 OFFCURVE",
"555 68 OFFCURVE",
"555 179 CURVE SMOOTH",
"555 277 OFFCURVE",
"495 325 OFFCURVE",
"356 353 CURVE SMOOTH",
"256 373 LINE SMOOTH",
"152 394 OFFCURVE",
"108 434 OFFCURVE",
"108 513 CURVE SMOOTH",
"108 610 OFFCURVE",
"186 672 OFFCURVE",
"309 672 CURVE SMOOTH",
"398 672 OFFCURVE",
"464 647 OFFCURVE",
"529 585 CURVE",
"549 621 LINE",
"490 682 OFFCURVE",
"408 713 OFFCURVE",
"309 713 CURVE SMOOTH",
"163 713 OFFCURVE",
"64 632 OFFCURVE",
"64 513 CURVE SMOOTH",
"64 412 OFFCURVE",
"126 357 OFFCURVE",
"255 331 CURVE SMOOTH",
"354 311 LINE SMOOTH",
"468 288 OFFCURVE",
"511 253 OFFCURVE",
"511 178 CURVE SMOOTH",
"511 90 OFFCURVE",
"443 33 OFFCURVE",
"312 33 CURVE SMOOTH",
"205 33 OFFCURVE",
"146 58 OFFCURVE",
"73 116 CURVE",
"52 80 LINE",
"119 22 OFFCURVE",
"200 -8 OFFCURVE",
"313 -8 CURVE SMOOTH"
);
}
);
width = 604;
},
{
anchors = (
{
name = bottom;
position = "{340, 0}";
},
{
name = top;
position = "{349, 705}";
}
);
background = {
anchors = (
{
name = bottom;
position = "{328, 0}";
},
{
name = top;
position = "{333, 712}";
}
);
paths = (
{
closed = 1;
nodes = (
"509 -9 OFFCURVE",
"618 75 OFFCURVE",
"618 209 CURVE SMOOTH",
"618 320 OFFCURVE",
"545 379 OFFCURVE",
"361 419 CURVE SMOOTH",
"245 444 OFFCURVE",
"213 465 OFFCURVE",
"213 509 CURVE SMOOTH",
"213 562 OFFCURVE",
"263 595 OFFCURVE",
"341 595 CURVE SMOOTH",
"413 595 OFFCURVE",
"483 572 OFFCURVE",
"547 524 CURVE",
"599 640 LINE",
"543 690 OFFCURVE",
"441 721 OFFCURVE",
"340 721 CURVE SMOOTH",
"168 721 OFFCURVE",
"54 626 OFFCURVE",
"54 497 CURVE SMOOTH",
"54 382 OFFCURVE",
"122 323 OFFCURVE",
"311 284 CURVE SMOOTH",
"421 261 OFFCURVE",
"459 239 OFFCURVE",
"459 195 CURVE SMOOTH",
"459 146 OFFCURVE",
"411 117 OFFCURVE",
"322 117 CURVE SMOOTH",
"239 117 OFFCURVE",
"162 140 OFFCURVE",
"92 188 CURVE",
"40 72 LINE",
"106 21 OFFCURVE",
"214 -9 OFFCURVE",
"320 -9 CURVE SMOOTH"
);
}
);
};
layerId = "FFBF88B9-CE65-4AF8-A771-12A489880E49";
paths = (
{
closed = 1;
nodes = (
"522 -12 OFFCURVE",
"646 80 OFFCURVE",
"646 223 CURVE SMOOTH",
"646 329 OFFCURVE",
"581 399 OFFCURVE",
"454 424 CURVE SMOOTH",
"329 449 LINE SMOOTH",
"276 460 OFFCURVE",
"261 476 OFFCURVE",
"261 495 CURVE SMOOTH",
"261 525 OFFCURVE",
"293 542 OFFCURVE",
"360 542 CURVE SMOOTH",
"440 542 OFFCURVE",
"506 521 OFFCURVE",
"557 487 CURVE",
"616 643 LINE",
"560 688 OFFCURVE",
"465 717 OFFCURVE",
"365 717 CURVE SMOOTH",
"175 717 OFFCURVE",
"50 623 OFFCURVE",
"50 480 CURVE SMOOTH",
"50 372 OFFCURVE",
"114 304 OFFCURVE",
"244 277 CURVE SMOOTH",
"371 251 LINE SMOOTH",
"423 240 OFFCURVE",
"435 228 OFFCURVE",
"435 206 CURVE SMOOTH",
"435 182 OFFCURVE",
"415 163 OFFCURVE",
"336 163 CURVE SMOOTH",
"252 163 OFFCURVE",
"160 190 OFFCURVE",
"96 228 CURVE",
"37 62 LINE",
"106 17 OFFCURVE",
"219 -12 OFFCURVE",
"334 -12 CURVE SMOOTH"
);
}
);
width = 685;
},
{
anchors = (
{
name = bottom;
position = "{330, 0}";
},
{
name = top;
position = "{331, 705}";
}
);
layerId = "36495FFF-A792-4E19-9295-2592132C4E2F";
paths = (
{
closed = 1;
nodes = (
"493 -10 OFFCURVE",
"601 74 OFFCURVE",
"601 201 CURVE SMOOTH",
"601 303 OFFCURVE",
"538 362 OFFCURVE",
"405 389 CURVE SMOOTH",
"293 411 LINE SMOOTH",
"214 427 OFFCURVE",
"185 455 OFFCURVE",
"185 504 CURVE SMOOTH",
"185 568 OFFCURVE",
"240 607 OFFCURVE",
"335 607 CURVE SMOOTH",
"419 607 OFFCURVE",
"485 584 OFFCURVE",
"543 536 CURVE",
"583 632 LINE",
"525 685 OFFCURVE",
"437 715 OFFCURVE",
"337 715 CURVE SMOOTH",
"169 715 OFFCURVE",
"57 628 OFFCURVE",
"57 497 CURVE SMOOTH",
"57 392 OFFCURVE",
"120 331 OFFCURVE",
"250 304 CURVE SMOOTH",
"363 281 LINE SMOOTH",
"446 264 OFFCURVE",
"473 241 OFFCURVE",
"473 192 CURVE SMOOTH",
"473 136 OFFCURVE",
"429 98 OFFCURVE",
"324 98 CURVE SMOOTH",
"229 98 OFFCURVE",
"153 124 OFFCURVE",
"85 172 CURVE",
"45 71 LINE",
"113 20 OFFCURVE",
"210 -10 OFFCURVE",
"324 -10 CURVE SMOOTH"
);
}
);
width = 644.5;
}
);
leftKerningGroup = S;
rightKerningGroup = S;
unicode = 0053;
userData = {
anchors = (
);
b = {
};
com.typemytype.robofont.layerData = {
b = {
anchors = (
);
components = (
);
contours = (
);
lib = {
};
name = S;
unicodes = (
);
width = 1274;
};
};
components = (
);
contours = (
);
lib = {
};
name = S;
unicodes = (
);
width = 1317;
};
},
{
color = 4;
glyphname = Germandbls;
production = uni1E9E;
layers = (
{
background = {
paths = (
{
closed = 1;
nodes = (
"148 0 LINE",
"148 460 LINE SMOOTH",
"148 603 OFFCURVE",
"212 669 OFFCURVE",
"349 669 CURVE SMOOTH",
"455 669 OFFCURVE",
"517 617 OFFCURVE",
"517 531 CURVE SMOOTH",
"517 438 OFFCURVE",
"455 386 OFFCURVE",
"346 386 CURVE SMOOTH",
"243 386 LINE",
"243 337 LINE",
"382 337 LINE SMOOTH",
"500 337 OFFCURVE",
"564 289 OFFCURVE",
"564 195 CURVE SMOOTH",
"564 102 OFFCURVE",
"502 45 OFFCURVE",
"399 43 CURVE SMOOTH",
"345 42 OFFCURVE",
"298 61 OFFCURVE",
"242 106 CURVE",
"219 60 LINE",
"268 16 OFFCURVE",
"334 -7 OFFCURVE",
"402 -7 CURVE SMOOTH",
"532 -7 OFFCURVE",
"619 74 OFFCURVE",
"619 194 CURVE SMOOTH",
"619 293 OFFCURVE",
"560 358 OFFCURVE",
"451 374 CURVE",
"442 363 LINE",
"525 382 OFFCURVE",
"573 444 OFFCURVE",
"573 532 CURVE SMOOTH",
"573 647 OFFCURVE",
"487 719 OFFCURVE",
"349 719 CURVE SMOOTH",
"179 719 OFFCURVE",
"94 635 OFFCURVE",
"94 467 CURVE SMOOTH",
"94 0 LINE"
);
}
);
};
layerId = "2567DF27-EA2D-46C8-A1A0-FA57AF1B0F16";
paths = (
{
closed = 1;
nodes = (
"531 -8 OFFCURVE",
"612 61 OFFCURVE",
"612 186 CURVE SMOOTH",
"612 290 OFFCURVE",
"543 354 OFFCURVE",
"435 367 CURVE",
"435 353 LINE",
"518 370 OFFCURVE",
"572 439 OFFCURVE",
"572 529 CURVE SMOOTH",
"572 643 OFFCURVE",
"490 713 OFFCURVE",
"344 713 CURVE SMOOTH",
"175 713 OFFCURVE",
"97 630 OFFCURVE",
"97 470 CURVE SMOOTH",
"97 0 LINE",
"139 0 LINE",
"139 467 LINE SMOOTH",
"139 604 OFFCURVE",
"195 673 OFFCURVE",
"345 673 CURVE SMOOTH",
"470 673 OFFCURVE",
"528 621 OFFCURVE",
"528 524 CURVE SMOOTH",
"528 427 OFFCURVE",
"461 374 OFFCURVE",
"352 374 CURVE SMOOTH",
"237 374 LINE",
"237 335 LINE",
"380 335 LINE SMOOTH",
"506 335 OFFCURVE",
"567 282 OFFCURVE",
"567 186 CURVE SMOOTH",
"567 89 OFFCURVE",
"506 32 OFFCURVE",
"391 32 CURVE SMOOTH",
"319 32 OFFCURVE",
"274 49 OFFCURVE",
"220 97 CURVE",
"197 62 LINE",
"245 16 OFFCURVE",
"307 -8 OFFCURVE",
"391 -8 CURVE SMOOTH"
);
}
);
width = 683;
},
{
background = {
paths = (
{
closed = 1;
nodes = (
"229 0 LINE",
"229 448 LINE SMOOTH",
"229 542 OFFCURVE",
"279 593 OFFCURVE",
"369 593 CURVE SMOOTH",
"435 593 OFFCURVE",
"478 560 OFFCURVE",
"478 505 CURVE SMOOTH",
"478 452 OFFCURVE",
"444 423 OFFCURVE",
"379 423 CURVE SMOOTH",
"298 423 LINE",
"298 297 LINE",
"397 297 LINE SMOOTH",
"493 297 OFFCURVE",
"529 270 OFFCURVE",
"529 205 CURVE SMOOTH",
"529 148 OFFCURVE",
"498 114 OFFCURVE",
"447 114 CURVE SMOOTH",
"407 114 OFFCURVE",
"363 130 OFFCURVE",
"309 165 CURVE",
"267 51 LINE",
"320 11 OFFCURVE",
"379 -6 OFFCURVE",
"457 -6 CURVE SMOOTH",
"587 -6 OFFCURVE",
"683 81 OFFCURVE",
"683 199 CURVE SMOOTH",
"683 297 OFFCURVE",
"617 364 OFFCURVE",
"509 376 CURVE",
"509 362 LINE",
"583 384 OFFCURVE",
"629 443 OFFCURVE",
"629 519 CURVE SMOOTH",
"629 641 OFFCURVE",
"529 719 OFFCURVE",
"373 719 CURVE SMOOTH",
"181 719 OFFCURVE",
"70 619 OFFCURVE",
"70 445 CURVE SMOOTH",
"70 0 LINE"
);
}
);
};
layerId = "FFBF88B9-CE65-4AF8-A771-12A489880E49";
paths = (
{
closed = 1;
nodes = (
"623 -12 OFFCURVE",
"715 66 OFFCURVE",
"715 194 CURVE SMOOTH",
"715 293 OFFCURVE",
"651 365 OFFCURVE",
"553 375 CURVE",
"553 354 LINE",
"634 384 OFFCURVE",
"678 444 OFFCURVE",
"678 520 CURVE SMOOTH",
"678 642 OFFCURVE",
"588 717 OFFCURVE",
"407 717 CURVE SMOOTH",
"173 717 OFFCURVE",
"58 617 OFFCURVE",
"58 430 CURVE SMOOTH",
"58 0 LINE",
"264 0 LINE",
"264 430 LINE SMOOTH",
"264 512 OFFCURVE",
"295 549 OFFCURVE",
"386 549 CURVE SMOOTH",
"444 549 OFFCURVE",
"474 529 OFFCURVE",
"474 490 CURVE SMOOTH",
"474 452 OFFCURVE",
"446 432 OFFCURVE",
"390 432 CURVE SMOOTH",
"340 432 LINE",
"340 271 LINE",
"403 271 LINE SMOOTH",
"479 271 OFFCURVE",
"512 253 OFFCURVE",
"512 211 CURVE SMOOTH",
"512 177 OFFCURVE",
"485 154 OFFCURVE",
"443 154 CURVE SMOOTH",
"413 154 OFFCURVE",
"388 159 OFFCURVE",
"359 178 CURVE",
"303 28 LINE",
"362 -6 OFFCURVE",
"414 -12 OFFCURVE",
"467 -12 CURVE SMOOTH"
);
}
);
width = 735;
},
{
layerId = "36495FFF-A792-4E19-9295-2592132C4E2F";
paths = (
{
closed = 1;
nodes = (
"577 -10 OFFCURVE",
"664 64 OFFCURVE",
"664 190 CURVE SMOOTH",
"664 292 OFFCURVE",
"597 360 OFFCURVE",
"494 371 CURVE",
"494 354 LINE",
"576 377 OFFCURVE",
"625 442 OFFCURVE",
"625 525 CURVE SMOOTH",
"625 643 OFFCURVE",
"539 715 OFFCURVE",
"376 715 CURVE SMOOTH",
"174 715 OFFCURVE",
"78 624 OFFCURVE",
"78 450 CURVE SMOOTH",
"78 0 LINE",
"202 0 LINE",
"202 449 LINE SMOOTH",
"202 558 OFFCURVE",
"245 611 OFFCURVE",
"366 611 CURVE SMOOTH",
"457 611 OFFCURVE",
"501 575 OFFCURVE",
"501 507 CURVE SMOOTH",
"501 440 OFFCURVE",
"454 403 OFFCURVE",
"371 403 CURVE SMOOTH",
"289 403 LINE",
"289 303 LINE",
"392 303 LINE SMOOTH",
"493 303 OFFCURVE",
"540 268 OFFCURVE",
"540 199 CURVE SMOOTH",
"540 133 OFFCURVE",
"496 93 OFFCURVE",
"417 93 CURVE SMOOTH",
"366 93 OFFCURVE",
"331 104 OFFCURVE",
"290 138 CURVE",
"250 45 LINE",
"304 5 OFFCURVE",
"361 -10 OFFCURVE",
"429 -10 CURVE SMOOTH"
);
}
);
width = 709;
}
);
leftKerningGroup = H;
rightKerningGroup = Germandbls;
unicode = 1E9E;
},
{
color = 4;
glyphname = Schwa;
production = uni018F;
layers = (
{
anchors = (
{
name = bottom;
position = "{382, 0}";
},
{
name = top;
position = "{382, 705}";
}
);
background = {
paths = (
{
closed = 1;
nodes = (
"556 -8 OFFCURVE",
"668 129 OFFCURVE",
"668 354 CURVE SMOOTH",
"668 578 OFFCURVE",
"550 713 OFFCURVE",
"339 713 CURVE SMOOTH",
"225 713 OFFCURVE",
"162 681 OFFCURVE",
"95 617 CURVE",
"116 582 LINE",
"187 646 OFFCURVE",
"230 672 OFFCURVE",
"337 672 CURVE SMOOTH",
"526 672 OFFCURVE",
"623 557 OFFCURVE",
"623 354 CURVE SMOOTH",
"623 151 OFFCURVE",
"531 33 OFFCURVE",
"362 33 CURVE SMOOTH",
"178 33 OFFCURVE",
"112 147 OFFCURVE",
"112 353 CURVE",
"100 337 LINE",
"628 337 LINE",
"628 376 LINE",
"68 376 LINE",
"68 348 LINE SMOOTH",
"68 132 OFFCURVE",
"150 -8 OFFCURVE",
"363 -8 CURVE SMOOTH"
);
}
);
};
layerId = "2567DF27-EA2D-46C8-A1A0-FA57AF1B0F16";
paths = (
{
closed = 1;
nodes = (
"556 -8 OFFCURVE",
"668 129 OFFCURVE",
"668 354 CURVE SMOOTH",
"668 578 OFFCURVE",
"550 713 OFFCURVE",
"349 713 CURVE SMOOTH",
"235 713 OFFCURVE",
"157 681 OFFCURVE",
"95 617 CURVE",
"116 582 LINE",
"186 646 OFFCURVE",
"244 672 OFFCURVE",
"347 672 CURVE SMOOTH",
"526 672 OFFCURVE",
"623 557 OFFCURVE",
"623 354 CURVE SMOOTH",
"623 151 OFFCURVE",
"531 33 OFFCURVE",
"362 33 CURVE SMOOTH",
"178 33 OFFCURVE",
"112 147 OFFCURVE",
"112 353 CURVE",
"100 337 LINE",
"628 337 LINE",
"628 376 LINE",
"68 376 LINE",
"68 348 LINE SMOOTH",
"68 132 OFFCURVE",
"150 -8 OFFCURVE",
"363 -8 CURVE SMOOTH"
);
}
);
width = 736;
},
{
anchors = (
{
name = bottom;
position = "{403, 0}";
},
{
name = top;
position = "{384, 705}";
}
);
background = {
anchors = (
{
name = bottom;
position = "{389, 0}";
},
{
name = top;
position = "{388, 712}";
}
);
paths = (
{
closed = 1;
nodes = (
"595 -9 OFFCURVE",
"727 142 OFFCURVE",
"727 357 CURVE SMOOTH",
"727 580 OFFCURVE",
"586 721 OFFCURVE",
"365 721 CURVE SMOOTH",
"268 721 OFFCURVE",
"163 690 OFFCURVE",
"100 640 CURVE",
"152 524 LINE",
"213 570 OFFCURVE",
"284 592 OFFCURVE",
"359 592 CURVE SMOOTH",
"493 592 OFFCURVE",
"566 512 OFFCURVE",
"566 357 CURVE SMOOTH",
"566 198 OFFCURVE",
"507 117 OFFCURVE",
"394 117 CURVE SMOOTH",
"275 117 OFFCURVE",
"207 198 OFFCURVE",
"212 357 CURVE",
"171 298 LINE",
"627 298 LINE",
"627 422 LINE",
"49 422 LINE",
"49 360 LINE SMOOTH",
"49 123 OFFCURVE",
"182 -9 OFFCURVE",
"399 -9 CURVE SMOOTH"
);
}
);
};
layerId = "FFBF88B9-CE65-4AF8-A771-12A489880E49";
paths = (
{
closed = 1;
nodes = (
"605 -12 OFFCURVE",
"754 132 OFFCURVE",
"754 352 CURVE SMOOTH",
"754 578 OFFCURVE",
"616 717 OFFCURVE",
"373 717 CURVE SMOOTH",
"245 717 OFFCURVE",
"151 688 OFFCURVE",
"74 645 CURVE",
"143 483 LINE",
"209 519 OFFCURVE",
"269 538 OFFCURVE",
"345 538 CURVE SMOOTH",
"486 538 OFFCURVE",
"538 476 OFFCURVE",
"538 353 CURVE SMOOTH",
"538 219 OFFCURVE",
"482 158 OFFCURVE",
"394 158 CURVE SMOOTH",
"291 158 OFFCURVE",
"256 219 OFFCURVE",
"256 353 CURVE",
"203 271 LINE",
"586 271 LINE",
"586 432 LINE",
"41 432 LINE",
"41 370 LINE SMOOTH",
"41 145 OFFCURVE",
"155 -12 OFFCURVE",
"403 -12 CURVE SMOOTH"
);
}
);
width = 795;
},
{
anchors = (
{
name = bottom;
position = "{393, 0}";
},
{
name = top;
position = "{383, 705}";
}
);
layerId = "36495FFF-A792-4E19-9295-2592132C4E2F";
paths = (
{
closed = 1;
nodes = (
"581 -10 OFFCURVE",
"711 131 OFFCURVE",
"711 353 CURVE SMOOTH",
"711 578 OFFCURVE",
"583 715 OFFCURVE",
"361 715 CURVE SMOOTH",
"240 715 OFFCURVE",
"154 685 OFFCURVE",
"85 631 CURVE",
"130 533 LINE",
"198 583 OFFCURVE",
"257 605 OFFCURVE",
"346 605 CURVE SMOOTH",
"506 605 OFFCURVE",
"581 517 OFFCURVE",
"581 354 CURVE SMOOTH",
"581 185 OFFCURVE",
"507 96 OFFCURVE",
"378 96 CURVE SMOOTH",
"235 96 OFFCURVE",
"184 183 OFFCURVE",
"184 353 CURVE",
"152 304 LINE",
"607 304 LINE",
"607 404 LINE",
"55 404 LINE",
"55 359 LINE SMOOTH",
"55 139 OFFCURVE",
"153 -10 OFFCURVE",
"383 -10 CURVE SMOOTH"
);
}
);
width = 765.5;
}
);
leftKerningGroup = O;
rightKerningGroup = O;
unicode = 018F;
},
{
glyphname = T;
layers = (
{
anchors = (
{
name = bottom;
position = "{295, 0}";
},
{
name = center;
position = "{295, 358}";
},
{
name = top;
position = "{295, 705}";
}
);
background = {
anchors = (
{
name = bottom;
position = "{297, 0}";
},
{
name = center;
position = "{297, 357}";
},
{
name = top;
position = "{297, 712}";
}
);
paths = (
{
closed = 1;
nodes = (
"324 0 LINE",
"324 664 LINE",
"582 664 LINE",
"582 712 LINE",
"12 712 LINE",
"12 664 LINE",
"270 664 LINE",
"270 0 LINE"
);
}
);
};
layerId = "2567DF27-EA2D-46C8-A1A0-FA57AF1B0F16";
paths = (
{
closed = 1;
nodes = (
"314 0 LINE",
"314 666 LINE",
"576 666 LINE",
"576 705 LINE",
"10 705 LINE",
"10 666 LINE",
"272 666 LINE",
"272 0 LINE"
);
}
);
width = 590;
},
{
anchors = (
{
name = bottom;
position = "{324, 0}";
},
{
name = center;
position = "{324, 358}";
},
{
name = top;
position = "{324, 705}";
}
);
background = {
anchors = (
{
name = bottom;
position = "{315, 0}";
},
{
name = center;
position = "{315, 357}";
},
{
name = top;
position = "{315, 712}";
}
);
paths = (
{
closed = 1;
nodes = (
"397 0 LINE",
"397 580 LINE",
"618 580 LINE",
"618 712 LINE",
"12 712 LINE",
"12 580 LINE",
"233 580 LINE",
"233 0 LINE"
);
}
);
};
layerId = "FFBF88B9-CE65-4AF8-A771-12A489880E49";
paths = (
{
closed = 1;
nodes = (
"432 0 LINE",
"432 531 LINE",
"636 531 LINE",
"636 705 LINE",
"12 705 LINE",
"12 531 LINE",
"216 531 LINE",
"216 0 LINE"
);
}
);
width = 648;
},
{
anchors = (
{
name = bottom;
position = "{310, 0}";
},
{
name = center;
position = "{310, 358}";
},
{
name = top;
position = "{310, 705}";
}
);
layerId = "36495FFF-A792-4E19-9295-2592132C4E2F";
paths = (
{
closed = 1;
nodes = (
"373 0 LINE",
"373 599 LINE",
"606 599 LINE",
"606 705 LINE",
"11 705 LINE",
"11 599 LINE",
"244 599 LINE",
"244 0 LINE"
);
}
);
width = 619;
}
);
leftKerningGroup = T;
rightKerningGroup = T;
unicode = 0054;
userData = {
anchors = (
);
b = {
};
com.typemytype.robofont.layerData = {
b = {
anchors = (
);
components = (
);
contours = (
{
points = (
{
segmentType = curve;
smooth = 1;
x = 581;
y = 0;
},
{
segmentType = line;
smooth = 1;
x = 1350;
y = 0;
},
{
smooth = 0;
x = 1399;
y = 0;
},
{
smooth = 0;
x = 1423;
y = 34;
},
{
segmentType = curve;
smooth = 1;
x = 1423;
y = 71;
},
{
smooth = 0;
x = 1423;
y = 107;
},
{
smooth = 0;
x = 1399;
y = 141;
},
{
segmentType = curve;
smooth = 1;
x = 1350;
y = 141;
},
{
segmentType = line;
smooth = 0;
x = 671;
y = 141;
},
{
segmentType = line;
smooth = 0;
x = 671;
y = 665;
},
{
segmentType = line;
smooth = 1;
x = 1290;
y = 665;
},
{
smooth = 0;
x = 1339;
y = 665;
},
{
smooth = 0;
x = 1364;
y = 698;
},
{
segmentType = curve;
smooth = 1;
x = 1364;
y = 734;
},
{
smooth = 0;
x = 1364;
y = 770;
},
{
smooth = 0;
x = 1341;
y = 803;
},
{
segmentType = curve;
smooth = 1;
x = 1290;
y = 803;
},
{
segmentType = line;
smooth = 0;
x = 671;
y = 803;
},
{
segmentType = line;
smooth = 0;
x = 671;
y = 1285;
},
{
segmentType = line;
smooth = 1;
x = 1322;
y = 1285;
},
{
smooth = 0;
x = 1371;
y = 1285;
},
{
smooth = 0;
x = 1395;
y = 1319;
},
{
segmentType = curve;
smooth = 1;
x = 1395;
y = 1356;
},
{
smooth = 0;
x = 1395;
y = 1392;
},
{
smooth = 0;
x = 1371;
y = 1426;
},
{
segmentType = curve;
smooth = 1;
x = 1322;
y = 1426;
},
{
segmentType = line;
smooth = 1;
x = 576;
y = 1426;
},
{
smooth = 0;
x = 528;
y = 1426;
},
{
smooth = 0;
x = 493;
y = 1383;
},
{
segmentType = curve;
smooth = 1;
x = 493;
y = 1340;
},
{
segmentType = line;
smooth = 1;
x = 493;
y = 86;
},
{
smooth = 0;
x = 493;
y = 41;
},
{
smooth = 0;
x = 537;
y = 0;
}
);
}
);
lib = {
};
name = T;
unicodes = (
);
width = 1158;
};
};
components = (
);
contours = (
);
lib = {
};
name = T;
unicodes = (
);
width = 1199;
};
},
{
glyphname = Tbar;
layers = (
{
background = {
paths = (
{
closed = 1;
nodes = (
"471 338 LINE",
"471 385 LINE",
"123 385 LINE",
"123 338 LINE"
);
},
{
closed = 1;
nodes = (
"324 0 LINE",
"324 664 LINE",
"582 664 LINE",
"582 712 LINE",
"12 712 LINE",
"12 664 LINE",
"270 664 LINE",
"270 0 LINE"
);
}
);
};
components = (
{
name = T;
},
{
name = strokeshortcomb.case;
transform = "{1, 0, 0, 1, 295, 0}";
}
);
layerId = "2567DF27-EA2D-46C8-A1A0-FA57AF1B0F16";
width = 590;
},
{
background = {
paths = (
{
closed = 1;
nodes = (
"533 298 LINE",
"533 421 LINE",
"97 421 LINE",
"97 298 LINE"
);
},
{
closed = 1;
nodes = (
"397 0 LINE",
"397 580 LINE",
"618 580 LINE",
"618 712 LINE",
"12 712 LINE",
"12 580 LINE",
"233 580 LINE",
"233 0 LINE"
);
}
);
};
components = (
{
name = T;
},
{
name = strokeshortcomb.case;
transform = "{1, 0, 0, 1, 324, 0}";
}
);
layerId = "FFBF88B9-CE65-4AF8-A771-12A489880E49";
width = 648;
},
{
components = (
{
name = T;
},
{
name = strokeshortcomb.case;
transform = "{1, 0, 0, 1, 310, 0}";
}
);
layerId = "36495FFF-A792-4E19-9295-2592132C4E2F";
width = 619;
}
);
leftKerningGroup = T;
rightKerningGroup = T;
unicode = 0166;
userData = {
com.typemytype.robofont.layerData = {
b = {
anchors = (
);
components = (
);
contours = (
);
lib = {
};
name = Tbar;
unicodes = (
);
width = 1158;
};
};
};
},
{
color = 4;
glyphname = U;
layers = (
{
anchors = (
{
name = bottom;
position = "{361, 0}";
},
{
name = ogonek;
position = "{429, 0}";
},
{
name = top;
position = "{361, 705}";
},
{
name = topright;
position = "{596, 705}";
}
);
background = {
anchors = (
{
name = bottom;
position = "{363, 0}";
},
{
name = ogonek;
position = "{476, 10}";
},
{
name = top;
position = "{363, 712}";
},
{
name = topright;
position = "{609, 712}";
}
);
paths = (
{
closed = 1;
nodes = (
"542 -8 OFFCURVE",
"636 88 OFFCURVE",
"636 273 CURVE SMOOTH",
"636 712 LINE",
"582 712 LINE",
"582 266 LINE SMOOTH",
"582 117 OFFCURVE",
"507 42 OFFCURVE",
"363 42 CURVE SMOOTH",
"217 42 OFFCURVE",
"143 117 OFFCURVE",
"143 266 CURVE SMOOTH",
"143 712 LINE",
"89 712 LINE",
"89 273 LINE SMOOTH",
"89 88 OFFCURVE",
"183 -8 OFFCURVE",
"363 -8 CURVE SMOOTH"
);
}
);
};
layerId = "2567DF27-EA2D-46C8-A1A0-FA57AF1B0F16";
paths = (
{
closed = 1;
nodes = (
"535 -8 OFFCURVE",
"630 89 OFFCURVE",
"630 270 CURVE SMOOTH",
"630 705 LINE",
"588 705 LINE",
"588 276 LINE SMOOTH",
"588 113 OFFCURVE",
"509 33 OFFCURVE",
"361 33 CURVE SMOOTH",
"204 33 OFFCURVE",
"134 113 OFFCURVE",
"134 276 CURVE SMOOTH",
"134 705 LINE",
"92 705 LINE",
"92 270 LINE SMOOTH",
"92 89 OFFCURVE",
"178 -8 OFFCURVE",
"361 -8 CURVE SMOOTH"
);
}
);
width = 722;
},
{
anchors = (
{
name = bottom;
position = "{382, 0}";
},
{
name = ogonek;
position = "{492, 0}";
},
{
name = top;
position = "{382, 705}";
},
{
name = topright;
position = "{575, 705}";
}
);
background = {
anchors = (
{
name = bottom;
position = "{374, 0}";
},
{
name = ogonek;
position = "{497, 10}";
},
{
name = top;
position = "{374, 712}";
},
{
name = topright;
position = "{602, 712}";
}
);
paths = (
{
closed = 1;
nodes = (
"574 -9 OFFCURVE",
"682 98 OFFCURVE",
"682 295 CURVE SMOOTH",
"682 712 LINE",
"522 712 LINE",
"522 288 LINE SMOOTH",
"522 178 OFFCURVE",
"470 117 OFFCURVE",
"374 117 CURVE SMOOTH",
"277 117 OFFCURVE",
"225 177 OFFCURVE",
"225 288 CURVE SMOOTH",
"225 712 LINE",
"66 712 LINE",
"66 295 LINE SMOOTH",
"66 96 OFFCURVE",
"172 -9 OFFCURVE",
"374 -9 CURVE SMOOTH"
);
}
);
};
layerId = "FFBF88B9-CE65-4AF8-A771-12A489880E49";
paths = (
{
closed = 1;
nodes = (
"600 -12 OFFCURVE",
"705 94 OFFCURVE",
"705 307 CURVE SMOOTH",
"705 705 LINE",
"493 705 LINE",
"493 304 LINE SMOOTH",
"493 214 OFFCURVE",
"459 167 OFFCURVE",
"382 167 CURVE SMOOTH",
"305 167 OFFCURVE",
"271 214 OFFCURVE",
"271 304 CURVE SMOOTH",
"271 705 LINE",
"55 705 LINE",
"55 307 LINE SMOOTH",
"55 94 OFFCURVE",
"164 -12 OFFCURVE",
"382 -12 CURVE SMOOTH"
);
}
);
width = 758;
},
{
anchors = (
{
name = bottom;
position = "{372, 0}";
},
{
name = ogonek;
position = "{461, 0}";
},
{
name = top;
position = "{372, 705}";
},
{
name = topright;
position = "{586, 705}";
}
);
layerId = "36495FFF-A792-4E19-9295-2592132C4E2F";
paths = (
{
closed = 1;
nodes = (
"568 -10 OFFCURVE",
"668 92 OFFCURVE",
"668 289 CURVE SMOOTH",
"668 705 LINE",
"541 705 LINE",
"541 290 LINE SMOOTH",
"541 164 OFFCURVE",
"484 100 OFFCURVE",
"372 100 CURVE SMOOTH",
"255 100 OFFCURVE",
"203 164 OFFCURVE",
"203 290 CURVE SMOOTH",
"203 705 LINE",
"74 705 LINE",
"74 289 LINE SMOOTH",
"74 92 OFFCURVE",
"171 -10 OFFCURVE",
"372 -10 CURVE SMOOTH"
);
}
);
width = 740;
}
);
leftKerningGroup = U;
rightKerningGroup = U;
unicode = 0055;
userData = {
anchors = (
);
b = {
};
com.typemytype.robofont.layerData = {
b = {
anchors = (
);
components = (
);
contours = (
);
lib = {
};
name = U;
unicodes = (
);
width = 1490;
};
};
components = (
);
contours = (
);
lib = {
};
name = U;
unicodes = (
);
width = 1513;
};
},
{
glyphname = Uhorn;
layers = (
{
anchors = (
{
name = bottom;
position = "{372, 0}";
},
{
name = top;
position = "{372, 705}";
}
);
background = {
anchors = (
{
name = bottom;
position = "{363, 0}";
},
{
name = top;
position = "{363, 712}";
}
);
paths = (
{
closed = 1;
nodes = (
"706 826 LINE SMOOTH",
"706 745 OFFCURVE",
"675 713 OFFCURVE",
"598 712 CURVE SMOOTH",
"582 712 LINE",
"582 266 LINE SMOOTH",
"582 117 OFFCURVE",
"507 42 OFFCURVE",
"363 42 CURVE SMOOTH",
"217 42 OFFCURVE",
"143 117 OFFCURVE",
"143 266 CURVE SMOOTH",
"143 712 LINE",
"89 712 LINE",
"89 273 LINE SMOOTH",
"89 88 OFFCURVE",
"183 -8 OFFCURVE",
"363 -8 CURVE SMOOTH",
"542 -8 OFFCURVE",
"636 88 OFFCURVE",
"636 273 CURVE SMOOTH",
"636 698 LINE",
"600 670 LINE",
"700 671 OFFCURVE",
"756 723 OFFCURVE",
"756 817 CURVE SMOOTH",
"756 839 LINE",
"706 839 LINE"
);
}
);
};
components = (
{
name = U;
},
{
name = horncomb.case;
transform = "{1, 0, 0, 1, 596, 0}";
}
);
layerId = "2567DF27-EA2D-46C8-A1A0-FA57AF1B0F16";
width = 722;
},
{
anchors = (
{
name = bottom;
position = "{389, 0}";
},
{
name = top;
position = "{389, 705}";
}
);
background = {
anchors = (
{
name = bottom;
position = "{374, 0}";
},
{
name = top;
position = "{374, 712}";
}
);
paths = (
{
closed = 1;
nodes = (
"660 814 LINE SMOOTH",
"660 738 OFFCURVE",
"636 712 OFFCURVE",
"569 712 CURVE SMOOTH",
"522 712 LINE",
"522 288 LINE SMOOTH",
"522 178 OFFCURVE",
"470 117 OFFCURVE",
"374 117 CURVE SMOOTH",
"277 117 OFFCURVE",
"225 177 OFFCURVE",
"225 288 CURVE SMOOTH",
"225 712 LINE",
"66 712 LINE",
"66 295 LINE SMOOTH",
"66 96 OFFCURVE",
"172 -9 OFFCURVE",
"374 -9 CURVE SMOOTH",
"574 -9 OFFCURVE",
"682 98 OFFCURVE",
"682 295 CURVE SMOOTH",
"682 681 LINE",
"649 637 LINE",
"736 642 OFFCURVE",
"795 706 OFFCURVE",
"795 795 CURVE SMOOTH",
"795 834 LINE",
"660 834 LINE"
);
}
);
};
components = (
{
name = U;
},
{
name = horncomb.case;
transform = "{1, 0, 0, 1, 575, 0}";
}
);
layerId = "FFBF88B9-CE65-4AF8-A771-12A489880E49";
width = 758;
},
{
anchors = (
{
name = bottom;
position = "{381, 0}";
},
{
name = top;
position = "{381, 705}";
}
);
components = (
{
name = U;
},
{
name = horncomb.case;
transform = "{1, 0, 0, 1, 586, 0}";
}
);
layerId = "36495FFF-A792-4E19-9295-2592132C4E2F";
width = 740;
}
);
leftKerningGroup = U;
rightKerningGroup = Uhorn;
unicode = 01AF;
},
{
glyphname = Uogonek;
layers = (
{
background = {
paths = (
{
closed = 1;
nodes = (
"582 266 LINE SMOOTH",
"582 117 OFFCURVE",
"507 42 OFFCURVE",
"363 42 CURVE SMOOTH",
"217 42 OFFCURVE",
"143 117 OFFCURVE",
"143 266 CURVE SMOOTH",
"143 712 LINE",
"89 712 LINE",
"89 273 LINE SMOOTH",
"89 88 OFFCURVE",
"183 -8 OFFCURVE",
"363 -8 CURVE SMOOTH",
"416 -8 LINE",
"404 11 LINE",
"357 -9 OFFCURVE",
"332 -42 OFFCURVE",
"332 -89 CURVE SMOOTH",
"332 -150 OFFCURVE",
"379 -193 OFFCURVE",
"446 -193 CURVE SMOOTH",
"478 -193 OFFCURVE",
"506 -185 OFFCURVE",
"527 -170 CURVE",
"511 -131 LINE",
"490 -142 OFFCURVE",
"469 -149 OFFCURVE",
"451 -149 CURVE SMOOTH",
"409 -149 OFFCURVE",
"383 -124 OFFCURVE",
"383 -83 CURVE SMOOTH",
"383 -40 OFFCURVE",
"409 -13 OFFCURVE",
"471 6 CURVE SMOOTH",
"580 40 OFFCURVE",
"636 129 OFFCURVE",
"636 273 CURVE SMOOTH",
"636 712 LINE",
"582 712 LINE"
);
}
);
};
components = (
{
name = U;
},
{
name = ogonekcomb;
transform = "{1, 0, 0, 1, 429, 0}";
}
);
layerId = "2567DF27-EA2D-46C8-A1A0-FA57AF1B0F16";
width = 722;
},
{
background = {
paths = (
{
closed = 1;
nodes = (
"522 288 LINE SMOOTH",
"522 178 OFFCURVE",
"470 117 OFFCURVE",
"374 117 CURVE SMOOTH",
"277 117 OFFCURVE",
"225 177 OFFCURVE",
"225 288 CURVE SMOOTH",
"225 712 LINE",
"66 712 LINE",
"66 295 LINE SMOOTH",
"66 96 OFFCURVE",
"172 -9 OFFCURVE",
"375 -9 CURVE SMOOTH",
"396 -9 LINE",
"386 11 LINE",
"348 -11 OFFCURVE",
"327 -48 OFFCURVE",
"327 -88 CURVE SMOOTH",
"327 -153 OFFCURVE",
"381 -199 OFFCURVE",
"457 -199 CURVE SMOOTH",
"493 -199 OFFCURVE",
"528 -192 OFFCURVE",
"559 -179 CURVE",
"541 -106 LINE",
"522 -114 OFFCURVE",
"504 -118 OFFCURVE",
"487 -118 CURVE SMOOTH",
"448 -118 OFFCURVE",
"427 -100 OFFCURVE",
"427 -65 CURVE SMOOTH",
"427 -32 OFFCURVE",
"448 -6 OFFCURVE",
"488 5 CURVE SMOOTH",
"615 40 OFFCURVE",
"682 139 OFFCURVE",
"682 295 CURVE SMOOTH",
"682 712 LINE",
"522 712 LINE"
);
}
);
};
components = (
{
name = U;
},
{
name = ogonekcomb;
transform = "{1, 0, 0, 1, 492, 0}";
}
);
layerId = "FFBF88B9-CE65-4AF8-A771-12A489880E49";
width = 758;
},
{
components = (
{
name = U;
},
{
name = ogonekcomb;
transform = "{1, 0, 0, 1, 461, 0}";
}
);
layerId = "36495FFF-A792-4E19-9295-2592132C4E2F";
width = 740;
}
);
leftKerningGroup = U;
rightKerningGroup = U;
unicode = 0172;
},
{
color = 4;
glyphname = V;
layers = (
{
anchors = (
{
name = bottom;
position = "{339, 0}";
},
{
name = top;
position = "{339, 705}";
}
);
background = {
anchors = (
{
name = bottom;
position = "{342, 0}";
},
{
name = top;
position = "{341, 712}";
}
);
paths = (
{
closed = 1;
nodes = (
"367 0 LINE",
"675 712 LINE",
"618 712 LINE",
"328 37 LINE",
"356 37 LINE",
"66 712 LINE",
"9 712 LINE",
"316 0 LINE"
);
}
);
};
layerId = "2567DF27-EA2D-46C8-A1A0-FA57AF1B0F16";
paths = (
{
closed = 1;
nodes = (
"360 0 LINE",
"665 705 LINE",
"621 705 LINE",
"327 24 LINE",
"349 24 LINE",
"57 705 LINE",
"12 705 LINE",
"314 0 LINE"
);
}
);
width = 677;
},
{
anchors = (
{
name = bottom;
position = "{389, 0}";
},
{
name = top;
position = "{389, 705}";
}
);
background = {
anchors = (
{
name = bottom;
position = "{370, 0}";
},
{
name = top;
position = "{369, 712}";
}
);
paths = (
{
closed = 1;
nodes = (
"434 0 LINE",
"755 712 LINE",
"591 712 LINE",
"347 148 LINE",
"394 148 LINE",
"152 712 LINE",
"-17 712 LINE",
"304 0 LINE"
);
}
);
};
layerId = "FFBF88B9-CE65-4AF8-A771-12A489880E49";
paths = (
{
closed = 1;
nodes = (
"469 0 LINE",
"792 705 LINE",
"569 705 LINE",
"356 201 LINE",
"419 201 LINE",
"205 705 LINE",
"-27 705 LINE",
"297 0 LINE"
);
}
);
width = 765;
},
{
anchors = (
{
name = bottom;
position = "{364, 0}";
},
{
name = top;
position = "{364, 705}";
}
);
layerId = "36495FFF-A792-4E19-9295-2592132C4E2F";
paths = (
{
closed = 1;
nodes = (
"415 0 LINE",
"729 705 LINE",
"595 705 LINE",
"342 113 LINE",
"384 113 LINE",
"131 705 LINE",
"-8 705 LINE",
"306 0 LINE"
);
}
);
width = 721;
}
);
leftKerningGroup = V;
rightKerningGroup = V;
unicode = 0056;
userData = {
anchors = (
);
b = {
};
com.typemytype.robofont.guides = (
);
com.typemytype.robofont.layerData = {
b = {
anchors = (
);
components = (
);
contours = (
{
points = (
{
segmentType = curve;
smooth = 1;
x = 644;
y = "-5";
},
{
smooth = 0;
x = 712;
y = "-5";
},
{
smooth = 0;
x = 764;
y = 38;
},
{
segmentType = curve;
smooth = 1;
x = 793;
y = 117;
},
{
segmentType = line;
smooth = 1;
x = 1243;
y = 1324;
},
{
smooth = 0;
x = 1247;
y = 1335;
},
{
smooth = 0;
x = 1248;
y = 1342;
},
{
segmentType = curve;
smooth = 1;
x = 1248;
y = 1351;
},
{
smooth = 0;
x = 1248;
y = 1395;
},
{
smooth = 0;
x = 1203;
y = 1427;
},
{
segmentType = curve;
smooth = 1;
x = 1160;
y = 1427;
},
{
smooth = 0;
x = 1125;
y = 1427;
},
{
smooth = 0;
x = 1090;
y = 1408;
},
{
segmentType = curve;
smooth = 1;
x = 1076;
y = 1369;
},
{
segmentType = line;
smooth = 0;
x = 651;
y = 192;
},
{
segmentType = line;
smooth = 0;
x = 650;
y = 190;
},
{
segmentType = line;
smooth = 1;
x = 214;
y = 1370;
},
{
smooth = 0;
x = 200;
y = 1407;
},
{
smooth = 0;
x = 170;
y = 1427;
},
{
segmentType = curve;
smooth = 1;
x = 135;
y = 1427;
},
{
smooth = 0;
x = 90;
y = 1427;
},
{
smooth = 0;
x = 43;
y = 1392;
},
{
segmentType = curve;
smooth = 1;
x = 43;
y = 1344;
},
{
smooth = 0;
x = 43;
y = 1336;
},
{
smooth = 0;
x = 44;
y = 1326;
},
{
segmentType = curve;
smooth = 0;
x = 48;
y = 1318;
},
{
segmentType = line;
smooth = 1;
x = 501;
y = 117;
},
{
smooth = 0;
x = 532;
y = 35;
},
{
smooth = 0;
x = 581;
y = "-5";
}
);
}
);
lib = {
};
name = V;
unicodes = (
);
width = 1289;
};
};
components = (
);
contours = (
);
lib = {
};
name = V;
unicodes = (
);
width = 1365;
};
},
{
color = 4;
glyphname = W;
layers = (
{
anchors = (
{
name = bottom;
position = "{552, 0}";
},
{
name = top;
position = "{552, 705}";
}
);
background = {
anchors = (
{
name = bottom;
position = "{553, 0}";
},
{
name = top;
position = "{552, 712}";
}
);
paths = (
{
closed = 1;
nodes = (
"335 0 LINE",
"564 655 LINE",
"542 655 LINE",
"771 0 LINE",
"819 0 LINE",
"1067 712 LINE",
"1012 712 LINE",
"779 35 LINE",
"809 35 LINE",
"576 711 LINE",
"531 712 LINE",
"297 35 LINE",
"326 35 LINE",
"94 712 LINE",
"39 712 LINE",
"287 0 LINE"
);
}
);
};
layerId = "2567DF27-EA2D-46C8-A1A0-FA57AF1B0F16";
paths = (
{
closed = 1;
nodes = (
"327 0 LINE",
"565 672 LINE",
"545 672 LINE",
"772 0 LINE",
"816 0 LINE",
"1062 705 LINE",
"1019 705 LINE",
"780 19 LINE",
"807 19 LINE",
"574 705 LINE",
"535 705 LINE",
"292 19 LINE",
"322 19 LINE",
"87 705 LINE",
"42 705 LINE",
"285 0 LINE"
);
}
);
width = 1104;
},
{
anchors = (
{
name = bottom;
position = "{569, 0}";
},
{
name = top;
position = "{569, 705}";
}
);
background = {
anchors = (
{
name = bottom;
position = "{564, 0}";
},
{
name = top;
position = "{564, 712}";
}
);
paths = (
{
closed = 1;
nodes = (
"400 0 LINE",
"577 497 LINE",
"552 497 LINE",
"726 0 LINE",
"856 0 LINE",
"1110 712 LINE",
"955 712 LINE",
"772 169 LINE",
"807 169 LINE",
"625 712 LINE",
"512 712 LINE",
"321 169 LINE",
"362 169 LINE",
"182 712 LINE",
"17 712 LINE",
"270 0 LINE"
);
}
);
};
layerId = "FFBF88B9-CE65-4AF8-A771-12A489880E49";
paths = (
{
closed = 1;
nodes = (
"434 0 LINE",
"582 412 LINE",
"559 412 LINE",
"703 0 LINE",
"874 0 LINE",
"1129 705 LINE",
"921 705 LINE",
"757 234 LINE",
"804 234 LINE",
"653 705 LINE",
"500 705 LINE",
"330 234 LINE",
"379 234 LINE",
"230 705 LINE",
"8 705 LINE",
"262 0 LINE"
);
}
);
width = 1137;
},
{
anchors = (
{
name = bottom;
position = "{561, 0}";
},
{
name = top;
position = "{561, 705}";
}
);
layerId = "36495FFF-A792-4E19-9295-2592132C4E2F";
paths = (
{
closed = 1;
nodes = (
"381 0 LINE",
"574 542 LINE",
"552 542 LINE",
"738 0 LINE",
"845 0 LINE",
"1096 705 LINE",
"970 705 LINE",
"769 127 LINE",
"806 127 LINE",
"614 705 LINE",
"518 705 LINE",
"311 127 LINE",
"351 127 LINE",
"159 705 LINE",
"25 705 LINE",
"274 0 LINE"
);
}
);
width = 1120.5;
}
);
leftKerningGroup = V;
rightKerningGroup = V;
unicode = 0057;
userData = {
anchors = (
);
b = {
};
com.typemytype.robofont.layerData = {
b = {
anchors = (
);
components = (
);
contours = (
);
lib = {
};
name = W;
unicodes = (
);
width = 2126;
};
};
components = (
);
contours = (
);
lib = {
};
name = W;
unicodes = (
);
width = 2070;
};
},
{
color = 4;
glyphname = X;
layers = (
{
anchors = (
{
name = bottom;
position = "{318, 0}";
},
{
name = top;
position = "{318, 705}";
}
);
background = {
anchors = (
{
name = bottom;
position = "{321, 0}";
},
{
name = top;
position = "{321, 712}";
}
);
paths = (
{
closed = 1;
nodes = (
"321 323 LINE",
"352 365 LINE",
"608 712 LINE",
"544 712 LINE",
"322 407 LINE",
"290 366 LINE",
"19 0 LINE",
"85 0 LINE"
);
},
{
closed = 1;
nodes = (
"622 0 LINE",
"352 365 LINE",
"322 407 LINE",
"99 712 LINE",
"34 712 LINE",
"290 366 LINE",
"321 323 LINE",
"558 0 LINE"
);
}
);
};
layerId = "2567DF27-EA2D-46C8-A1A0-FA57AF1B0F16";
paths = (
{
closed = 1;
nodes = (
"75 0 LINE",
"329 342 LINE",
"308 342 LINE",
"561 0 LINE",
"612 0 LINE",
"339 367 LINE",
"339 357 LINE",
"597 705 LINE",
"546 705 LINE",
"314 387 LINE",
"326 387 LINE",
"90 705 LINE",
"39 705 LINE",
"298 357 LINE",
"298 367 LINE",
"24 0 LINE"
);
}
);
width = 636;
},
{
anchors = (
{
name = bottom;
position = "{353, 0}";
},
{
name = top;
position = "{353, 705}";
}
);
background = {
anchors = (
{
name = bottom;
position = "{342, 0}";
},
{
name = top;
position = "{341, 712}";
}
);
paths = (
{
closed = 1;
nodes = (
"341 241 LINE",
"433 361 LINE",
"699 712 LINE",
"510 712 LINE",
"341 479 LINE",
"249 361 LINE",
"-22 0 LINE",
"167 0 LINE"
);
},
{
closed = 1;
nodes = (
"705 0 LINE",
"433 361 LINE",
"341 479 LINE",
"174 712 LINE",
"-15 712 LINE",
"249 361 LINE",
"341 241 LINE",
"515 0 LINE"
);
}
);
};
layerId = "FFBF88B9-CE65-4AF8-A771-12A489880E49";
paths = (
{
closed = 1;
nodes = (
"211 0 LINE",
"385 245 LINE",
"318 245 LINE",
"492 0 LINE",
"745 0 LINE",
"437 404 LINE",
"437 305 LINE",
"740 705 LINE",
"488 705 LINE",
"316 461 LINE",
"386 461 LINE",
"216 705 LINE",
"-36 705 LINE",
"266 305 LINE",
"266 404 LINE",
"-40 0 LINE"
);
}
);
width = 705;
},
{
anchors = (
{
name = bottom;
position = "{336, 0}";
},
{
name = top;
position = "{336, 705}";
}
);
layerId = "36495FFF-A792-4E19-9295-2592132C4E2F";
paths = (
{
closed = 1;
nodes = (
"143 0 LINE",
"357 294 LINE",
"313 294 LINE",
"527 0 LINE",
"679 0 LINE",
"388 386 LINE",
"388 331 LINE",
"669 705 LINE",
"517 705 LINE",
"315 424 LINE",
"356 424 LINE",
"153 705 LINE",
"2 705 LINE",
"282 331 LINE",
"282 386 LINE",
"-8 0 LINE"
);
}
);
width = 670.5;
}
);
leftKerningGroup = X;
rightKerningGroup = X;
unicode = 0058;
userData = {
anchors = (
);
b = {
};
com.typemytype.robofont.layerData = {
b = {
anchors = (
);
components = (
);
contours = (
{
points = (
{
segmentType = curve;
smooth = 1;
x = 151;
y = 0;
},
{
smooth = 0;
x = 176;
y = 0;
},
{
smooth = 0;
x = 201;
y = 12;
},
{
segmentType = curve;
smooth = 1;
x = 222;
y = 41;
},
{
segmentType = line;
smooth = 0;
x = 641;
y = 616;
},
{
segmentType = line;
smooth = 0;
x = 746;
y = 734;
},
{
segmentType = line;
smooth = 1;
x = 1175;
y = 1310;
},
{
smooth = 0;
x = 1186;
y = 1325;
},
{
smooth = 0;
x = 1190;
y = 1338;
},
{
segmentType = curve;
smooth = 1;
x = 1190;
y = 1353;
},
{
smooth = 0;
x = 1190;
y = 1393;
},
{
smooth = 0;
x = 1153;
y = 1426;
},
{
segmentType = curve;
smooth = 1;
x = 1110;
y = 1426;
},
{
smooth = 0;
x = 1083;
y = 1426;
},
{
smooth = 0;
x = 1058;
y = 1414;
},
{
segmentType = curve;
smooth = 1;
x = 1037;
y = 1385;
},
{
segmentType = line;
smooth = 0;
x = 648;
y = 844;
},
{
segmentType = line;
smooth = 0;
x = 542;
y = 732;
},
{
segmentType = line;
smooth = 1;
x = 84;
y = 121;
},
{
smooth = 0;
x = 73;
y = 106;
},
{
smooth = 0;
x = 68;
y = 91;
},
{
segmentType = curve;
smooth = 1;
x = 68;
y = 76;
},
{
smooth = 0;
x = 68;
y = 35;
},
{
smooth = 0;
x = 108;
y = 0;
}
);
},
{
points = (
{
segmentType = curve;
smooth = 1;
x = 1104;
y = 0;
},
{
smooth = 0;
x = 1151;
y = 0;
},
{
smooth = 0;
x = 1200;
y = 40;
},
{
segmentType = curve;
smooth = 1;
x = 1200;
y = 85;
},
{
smooth = 0;
x = 1200;
y = 98;
},
{
smooth = 0;
x = 1195;
y = 113;
},
{
segmentType = curve;
smooth = 0;
x = 1186;
y = 126;
},
{
segmentType = line;
smooth = 0;
x = 272;
y = 1385;
},
{
smooth = 0;
x = 252;
y = 1414;
},
{
smooth = 0;
x = 225;
y = 1426;
},
{
segmentType = curve;
smooth = 1;
x = 197;
y = 1426;
},
{
smooth = 0;
x = 149;
y = 1426;
},
{
smooth = 0;
x = 100;
y = 1388;
},
{
segmentType = curve;
smooth = 1;
x = 100;
y = 1343;
},
{
smooth = 0;
x = 100;
y = 1328;
},
{
smooth = 0;
x = 105;
y = 1315;
},
{
segmentType = curve;
smooth = 0;
x = 114;
y = 1303;
},
{
segmentType = line;
smooth = 0;
x = 1033;
y = 40;
},
{
smooth = 0;
x = 1052;
y = 13;
},
{
smooth = 0;
x = 1076;
y = 0;
}
);
}
);
lib = {
};
name = X;
unicodes = (
);
width = 1274;
};
};
components = (
);
contours = (
);
lib = {
};
name = X;
unicodes = (
);
width = 1322;
};
},
{
color = 4;
glyphname = Y;
layers = (
{
anchors = (
{
name = bottom;
position = "{294, 0}";
},
{
name = top;
position = "{294, 705}";
},
{
name = topleft;
position = "{19, 705}";
}
);
background = {
anchors = (
{
name = bottom;
position = "{296, 0}";
},
{
name = top;
position = "{296, 712}";
},
{
name = topleft;
position = "{19, 712}";
}
);
paths = (
{
closed = 1;
nodes = (
"323 0 LINE",
"323 320 LINE",
"311 275 LINE",
"597 712 LINE",
"535 712 LINE",
"286 327 LINE",
"309 327 LINE",
"59 712 LINE",
"-5 712 LINE",
"282 275 LINE",
"269 320 LINE",
"269 0 LINE"
);
}
);
};
layerId = "2567DF27-EA2D-46C8-A1A0-FA57AF1B0F16";
paths = (
{
closed = 1;
nodes = (
"314 0 LINE",
"314 326 LINE",
"304 288 LINE",
"586 705 LINE",
"539 705 LINE",
"287 327 LINE",
"302 327 LINE",
"50 705 LINE",
"1 705 LINE",
"283 288 LINE",
"272 326 LINE",
"272 0 LINE"
);
}
);
width = 587;
},
{
anchors = (
{
name = bottom;
position = "{337, 0}";
},
{
name = top;
position = "{335, 705}";
},
{
name = topleft;
position = "{14, 705}";
}
);
background = {
anchors = (
{
name = bottom;
position = "{323, 0}";
},
{
name = top;
position = "{322, 712}";
},
{
name = topleft;
position = "{19, 712}";
}
);
paths = (
{
closed = 1;
nodes = (
"404 0 LINE",
"404 320 LINE",
"371 227 LINE",
"700 712 LINE",
"515 712 LINE",
"300 378 LINE",
"343 378 LINE",
"130 712 LINE",
"-54 712 LINE",
"275 227 LINE",
"241 320 LINE",
"241 0 LINE"
);
}
);
};
layerId = "FFBF88B9-CE65-4AF8-A771-12A489880E49";
paths = (
{
closed = 1;
nodes = (
"444 0 LINE",
"444 339 LINE",
"401 223 LINE",
"723 705 LINE",
"482 705 LINE",
"318 443 LINE",
"359 443 LINE",
"196 705 LINE",
"-52 705 LINE",
"270 223 LINE",
"228 339 LINE",
"228 0 LINE"
);
}
);
width = 671;
},
{
anchors = (
{
name = bottom;
position = "{316, 0}";
},
{
name = top;
position = "{315, 705}";
},
{
name = topleft;
position = "{17, 705}";
}
);
layerId = "36495FFF-A792-4E19-9295-2592132C4E2F";
paths = (
{
closed = 1;
nodes = (
"379 0 LINE",
"379 333 LINE",
"353 256 LINE",
"655 705 LINE",
"511 705 LINE",
"303 385 LINE",
"331 385 LINE",
"123 705 LINE",
"-26 705 LINE",
"277 256 LINE",
"250 333 LINE",
"250 0 LINE"
);
}
);
width = 629;
}
);
leftKerningGroup = Y;
rightKerningGroup = Y;
unicode = 0059;
userData = {
anchors = (
);
b = {
};
com.typemytype.robofont.guides = (
);
com.typemytype.robofont.layerData = {
b = {
anchors = (
);
components = (
);
contours = (
{
points = (
{
segmentType = curve;
smooth = 1;
x = 641;
y = 0;
},
{
smooth = 0;
x = 685;
y = 0;
},
{
smooth = 0;
x = 730;
y = 29;
},
{
segmentType = curve;
smooth = 1;
x = 730;
y = 85;
},
{
segmentType = line;
smooth = 0;
x = 730;
y = 1285;
},
{
segmentType = line;
smooth = 1;
x = 1115;
y = 1285;
},
{
smooth = 0;
x = 1164;
y = 1285;
},
{
smooth = 0;
x = 1190;
y = 1319;
},
{
segmentType = curve;
smooth = 1;
x = 1190;
y = 1355;
},
{
smooth = 0;
x = 1190;
y = 1392;
},
{
smooth = 0;
x = 1166;
y = 1426;
},
{
segmentType = curve;
smooth = 1;
x = 1115;
y = 1426;
},
{
segmentType = line;
smooth = 1;
x = 160;
y = 1426;
},
{
smooth = 0;
x = 111;
y = 1426;
},
{
smooth = 0;
x = 86;
y = 1392;
},
{
segmentType = curve;
smooth = 1;
x = 86;
y = 1355;
},
{
smooth = 0;
x = 86;
y = 1319;
},
{
smooth = 0;
x = 111;
y = 1285;
},
{
segmentType = curve;
smooth = 1;
x = 160;
y = 1285;
},
{
segmentType = line;
smooth = 0;
x = 552;
y = 1285;
},
{
segmentType = line;
smooth = 1;
x = 552;
y = 85;
},
{
smooth = 0;
x = 552;
y = 29;
},
{
smooth = 0;
x = 596;
y = 0;
}
);
}
);
lib = {
};
name = Y;
unicodes = (
);
width = 1278;
};
};
components = (
);
contours = (
);
lib = {
};
name = Y;
unicodes = (
);
width = 1321;
};
},
{
color = 4;
glyphname = Yhook;
production = uni01B3;
layers = (
{
background = {
paths = (
{
closed = 1;
nodes = (
"314 0 LINE",
"314 366 LINE",
"304 328 LINE",
"517 623 LINE SMOOTH",
"545 662 OFFCURVE",
"574 675 OFFCURVE",
"610 675 CURVE SMOOTH",
"629 675 OFFCURVE",
"644 672 OFFCURVE",
"658 667 CURVE",
"658 704 LINE",
"640 710 OFFCURVE",
"629 712 OFFCURVE",
"608 712 CURVE SMOOTH",
"561 712 OFFCURVE",
"521 692 OFFCURVE",
"486 643 CURVE SMOOTH",
"288 367 LINE",
"302 367 LINE",
"50 705 LINE",
"1 705 LINE",
"283 328 LINE",
"272 366 LINE",
"272 0 LINE"
);
}
);
};
layerId = "2567DF27-EA2D-46C8-A1A0-FA57AF1B0F16";
paths = (
{
closed = 1;
nodes = (
"314 0 LINE",
"314 366 LINE",
"304 328 LINE",
"517 623 LINE SMOOTH",
"545 662 OFFCURVE",
"574 675 OFFCURVE",
"610 675 CURVE SMOOTH",
"629 675 OFFCURVE",
"644 672 OFFCURVE",
"658 667 CURVE",
"658 704 LINE",
"640 710 OFFCURVE",
"629 712 OFFCURVE",
"608 712 CURVE SMOOTH",
"561 712 OFFCURVE",
"521 692 OFFCURVE",
"486 643 CURVE SMOOTH",
"288 367 LINE",
"302 367 LINE",
"50 705 LINE",
"1 705 LINE",
"283 328 LINE",
"272 366 LINE",
"272 0 LINE"
);
}
);
width = 587;
},
{
background = {
paths = (
{
closed = 1;
nodes = (
"444 0 LINE",
"444 359 LINE",
"401 243 LINE",
"594 522 LINE SMOOTH",
"616 554 OFFCURVE",
"648 566 OFFCURVE",
"680 566 CURVE SMOOTH",
"701 566 OFFCURVE",
"717 565 OFFCURVE",
"732 560 CURVE",
"732 702 LINE",
"713 711 OFFCURVE",
"673 717 OFFCURVE",
"639 717 CURVE SMOOTH",
"532 717 OFFCURVE",
"463 678 OFFCURVE",
"410 600 CURVE SMOOTH",
"318 463 LINE",
"359 463 LINE",
"196 705 LINE",
"-52 705 LINE",
"270 243 LINE",
"228 359 LINE",
"228 0 LINE"
);
}
);
};
layerId = "FFBF88B9-CE65-4AF8-A771-12A489880E49";
paths = (
{
closed = 1;
nodes = (
"444 0 LINE",
"444 359 LINE",
"401 243 LINE",
"594 522 LINE SMOOTH",
"616 554 OFFCURVE",
"648 566 OFFCURVE",
"680 566 CURVE SMOOTH",
"701 566 OFFCURVE",
"717 565 OFFCURVE",
"732 560 CURVE",
"732 702 LINE",
"713 711 OFFCURVE",
"673 717 OFFCURVE",
"639 717 CURVE SMOOTH",
"532 717 OFFCURVE",
"463 678 OFFCURVE",
"410 600 CURVE SMOOTH",
"318 463 LINE",
"359 463 LINE",
"196 705 LINE",
"-52 705 LINE",
"270 243 LINE",
"228 359 LINE",
"228 0 LINE"
);
}
);
width = 671;
},
{
layerId = "36495FFF-A792-4E19-9295-2592132C4E2F";
paths = (
{
closed = 1;
nodes = (
"379 0 LINE",
"379 363 LINE",
"353 286 LINE",
"556 573 LINE SMOOTH",
"581 608 OFFCURVE",
"611 621 OFFCURVE",
"645 621 CURVE SMOOTH",
"665 621 OFFCURVE",
"681 619 OFFCURVE",
"695 614 CURVE",
"695 703 LINE",
"677 711 OFFCURVE",
"651 715 OFFCURVE",
"624 715 CURVE SMOOTH",
"547 715 OFFCURVE",
"492 685 OFFCURVE",
"448 622 CURVE SMOOTH",
"303 415 LINE",
"331 415 LINE",
"123 705 LINE",
"-26 705 LINE",
"277 286 LINE",
"250 363 LINE",
"250 0 LINE"
);
}
);
width = 629;
}
);
leftKerningGroup = Y;
rightKerningGroup = Y;
unicode = 01B3;
},
{
color = 4;
glyphname = Z;
layers = (
{
anchors = (
{
name = bottom;
position = "{294, 0}";
},
{
name = top;
position = "{294, 705}";
}
);
background = {
anchors = (
{
name = bottom;
position = "{301, 0}";
},
{
name = top;
position = "{293, 712}";
}
);
paths = (
{
closed = 1;
nodes = (
"550 0 LINE",
"550 48 LINE",
"82 48 LINE",
"80 7 LINE",
"540 672 LINE",
"540 712 LINE",
"43 712 LINE",
"43 664 LINE",
"502 664 LINE",
"504 705 LINE",
"43 40 LINE",
"43 0 LINE"
);
}
);
};
layerId = "2567DF27-EA2D-46C8-A1A0-FA57AF1B0F16";
paths = (
{
closed = 1;
nodes = (
"546 0 LINE",
"546 39 LINE",
"81 39 LINE",
"81 16 LINE",
"536 674 LINE",
"536 705 LINE",
"42 705 LINE",
"42 666 LINE",
"496 666 LINE",
"496 689 LINE",
"42 31 LINE",
"42 0 LINE"
);
}
);
width = 585;
},
{
anchors = (
{
name = bottom;
position = "{327, 0}";
},
{
name = top;
position = "{327, 705}";
}
);
background = {
anchors = (
{
name = bottom;
position = "{306, 0}";
},
{
name = top;
position = "{310, 712}";
}
);
paths = (
{
closed = 1;
nodes = (
"582 0 LINE",
"582 128 LINE",
"201 128 LINE",
"199 84 LINE",
"571 595 LINE",
"571 712 LINE",
"51 712 LINE",
"51 584 LINE",
"419 584 LINE",
"420 628 LINE",
"51 119 LINE",
"51 0 LINE"
);
}
);
};
layerId = "FFBF88B9-CE65-4AF8-A771-12A489880E49";
paths = (
{
closed = 1;
nodes = (
"605 0 LINE",
"605 175 LINE",
"253 175 LINE",
"253 117 LINE",
"589 547 LINE",
"589 705 LINE",
"48 705 LINE",
"48 530 LINE",
"384 530 LINE",
"384 588 LINE",
"48 158 LINE",
"48 0 LINE"
);
}
);
width = 631;
},
{
anchors = (
{
name = bottom;
position = "{311, 0}";
},
{
name = top;
position = "{311, 705}";
}
);
layerId = "36495FFF-A792-4E19-9295-2592132C4E2F";
paths = (
{
closed = 1;
nodes = (
"576 0 LINE",
"576 107 LINE",
"167 107 LINE",
"167 67 LINE",
"563 611 LINE",
"563 705 LINE",
"45 705 LINE",
"45 598 LINE",
"440 598 LINE",
"440 639 LINE",
"45 95 LINE",
"45 0 LINE"
);
}
);
width = 608;
}
);
leftKerningGroup = Z;
rightKerningGroup = Z;
unicode = 005A;
userData = {
anchors = (
);
b = {
};
com.typemytype.robofont.layerData = {
b = {
anchors = (
);
components = (
);
contours = (
{
points = (
{
segmentType = curve;
smooth = 1;
x = 266;
y = 0;
},
{
segmentType = line;
smooth = 1;
x = 1035;
y = 0;
},
{
smooth = 0;
x = 1084;
y = 0;
},
{
smooth = 0;
x = 1108;
y = 34;
},
{
segmentType = curve;
smooth = 1;
x = 1108;
y = 71;
},
{
smooth = 0;
x = 1108;
y = 107;
},
{
smooth = 0;
x = 1084;
y = 141;
},
{
segmentType = curve;
smooth = 1;
x = 1035;
y = 141;
},
{
segmentType = line;
smooth = 0;
x = 356;
y = 141;
},
{
segmentType = line;
smooth = 0;
x = 356;
y = 665;
},
{
segmentType = line;
smooth = 1;
x = 975;
y = 665;
},
{
smooth = 0;
x = 1024;
y = 665;
},
{
smooth = 0;
x = 1049;
y = 698;
},
{
segmentType = curve;
smooth = 1;
x = 1049;
y = 734;
},
{
smooth = 0;
x = 1049;
y = 770;
},
{
smooth = 0;
x = 1026;
y = 803;
},
{
segmentType = curve;
smooth = 1;
x = 975;
y = 803;
},
{
segmentType = line;
smooth = 0;
x = 356;
y = 803;
},
{
segmentType = line;
smooth = 0;
x = 356;
y = 1285;
},
{
segmentType = line;
smooth = 1;
x = 1007;
y = 1285;
},
{
smooth = 0;
x = 1056;
y = 1285;
},
{
smooth = 0;
x = 1080;
y = 1319;
},
{
segmentType = curve;
smooth = 1;
x = 1080;
y = 1356;
},
{
smooth = 0;
x = 1080;
y = 1392;
},
{
smooth = 0;
x = 1056;
y = 1426;
},
{
segmentType = curve;
smooth = 1;
x = 1007;
y = 1426;
},
{
segmentType = line;
smooth = 1;
x = 261;
y = 1426;
},
{
smooth = 0;
x = 213;
y = 1426;
},
{
smooth = 0;
x = 178;
y = 1383;
},
{
segmentType = curve;
smooth = 1;
x = 178;
y = 1340;
},
{
segmentType = line;
smooth = 1;
x = 178;
y = 86;
},
{
smooth = 0;
x = 178;
y = 41;
},
{
smooth = 0;
x = 222;
y = 0;
}
);
}
);
lib = {
};
name = Z;
unicodes = (
);
width = 1165;
};
};
components = (
);
contours = (
);
lib = {
};
name = Z;
unicodes = (
);
width = 1222;
};
},
{
color = 4;
glyphname = a;
layers = (
{
anchors = (
{
name = bottom;
position = "{285, 0}";
},
{
name = center;
position = "{275, 253}";
},
{
name = ogonek;
position = "{495, 0}";
},
{
name = top;
position = "{285, 484}";
}
);
background = {
paths = (
{
closed = 1;
nodes = (
"369 -8 OFFCURVE",
"441 44 OFFCURVE",
"464 131 CURVE",
"453 131 LINE",
"453 0 LINE",
"495 0 LINE",
"495 500 LINE",
"453 500 LINE",
"453 369 LINE",
"464 369 LINE",
"441 456 OFFCURVE",
"369 508 OFFCURVE",
"274 508 CURVE SMOOTH",
"139 508 OFFCURVE",
"54 411 OFFCURVE",
"54 250 CURVE SMOOTH",
"54 89 OFFCURVE",
"139 -8 OFFCURVE",
"274 -8 CURVE SMOOTH"
);
},
{
closed = 1;
nodes = (
"165 31 OFFCURVE",
"97 109 OFFCURVE",
"97 250 CURVE SMOOTH",
"97 391 OFFCURVE",
"165 469 OFFCURVE",
"275 469 CURVE SMOOTH",
"383 469 OFFCURVE",
"454 391 OFFCURVE",
"454 250 CURVE SMOOTH",
"454 109 OFFCURVE",
"383 31 OFFCURVE",
"275 31 CURVE SMOOTH"
);
}
);
};
layerId = "2567DF27-EA2D-46C8-A1A0-FA57AF1B0F16";
paths = (
{
closed = 1;
nodes = (
"369 -8 OFFCURVE",
"442 44 OFFCURVE",
"464 131 CURVE",
"453 131 LINE",
"453 0 LINE",
"495 0 LINE",
"495 392 LINE SMOOTH",
"495 426 OFFCURVE",
"499 463 OFFCURVE",
"503 500 CURVE",
"462 500 LINE",
"452 369 LINE",
"464 369 LINE",
"442 456 OFFCURVE",
"370 508 OFFCURVE",
"276 508 CURVE SMOOTH",
"141 508 OFFCURVE",
"54 411 OFFCURVE",
"54 250 CURVE SMOOTH",
"54 89 OFFCURVE",
"140 -8 OFFCURVE",
"276 -8 CURVE SMOOTH"
);
},
{
closed = 1;
nodes = (
"167 31 OFFCURVE",
"97 109 OFFCURVE",
"97 250 CURVE SMOOTH",
"97 391 OFFCURVE",
"167 469 OFFCURVE",
"276 469 CURVE SMOOTH",
"385 469 OFFCURVE",
"454 391 OFFCURVE",
"454 250 CURVE SMOOTH",
"454 109 OFFCURVE",
"385 31 OFFCURVE",
"276 31 CURVE SMOOTH"
);
}
);
width = 583;
},
{
anchors = (
{
name = bottom;
position = "{319, 0}";
},
{
name = center;
position = "{316, 255}";
},
{
name = ogonek;
position = "{567, 0}";
},
{
name = top;
position = "{324, 484}";
}
);
background = {
paths = (
{
closed = 1;
nodes = (
"328 -12 OFFCURVE",
"396 26 OFFCURVE",
"415 82 CURVE",
"403 82 LINE",
"403 0 LINE",
"609 0 LINE",
"609 510 LINE",
"403 510 LINE",
"403 434 LINE",
"413 434 LINE",
"394 486 OFFCURVE",
"325 522 OFFCURVE",
"250 522 CURVE SMOOTH",
"119 522 OFFCURVE",
"27 421 OFFCURVE",
"27 255 CURVE SMOOTH",
"27 88 OFFCURVE",
"120 -12 OFFCURVE",
"250 -12 CURVE SMOOTH"
);
},
{
closed = 1;
nodes = (
"273 141 OFFCURVE",
"237 172 OFFCURVE",
"237 255 CURVE SMOOTH",
"237 338 OFFCURVE",
"273 369 OFFCURVE",
"321 369 CURVE SMOOTH",
"370 369 OFFCURVE",
"403 338 OFFCURVE",
"403 255 CURVE SMOOTH",
"403 172 OFFCURVE",
"370 141 OFFCURVE",
"321 141 CURVE SMOOTH"
);
}
);
};
layerId = "FFBF88B9-CE65-4AF8-A771-12A489880E49";
paths = (
{
closed = 1;
nodes = (
"323 -12 OFFCURVE",
"393 24 OFFCURVE",
"413 76 CURVE",
"401 76 LINE",
"403 0 LINE",
"609 0 LINE",
"609 365 LINE SMOOTH",
"609 413 OFFCURVE",
"612 462 OFFCURVE",
"617 510 CURVE",
"417 510 LINE",
"405 428 LINE",
"415 428 LINE",
"396 484 OFFCURVE",
"325 522 OFFCURVE",
"250 522 CURVE SMOOTH",
"119 522 OFFCURVE",
"27 421 OFFCURVE",
"27 255 CURVE SMOOTH",
"27 89 OFFCURVE",
"119 -12 OFFCURVE",
"250 -12 CURVE SMOOTH"
);
},
{
closed = 1;
nodes = (
"269 141 OFFCURVE",
"236 172 OFFCURVE",
"236 255 CURVE SMOOTH",
"236 338 OFFCURVE",
"270 369 OFFCURVE",
"320 369 CURVE SMOOTH",
"369 369 OFFCURVE",
"404 338 OFFCURVE",
"404 255 CURVE SMOOTH",
"404 172 OFFCURVE",
"369 141 OFFCURVE",
"320 141 CURVE SMOOTH"
);
}
);
width = 657;
},
{
anchors = (
{
name = bottom;
position = "{302, 0}";
},
{
name = center;
position = "{296, 254}";
},
{
name = ogonek;
position = "{531, 0}";
},
{
name = top;
position = "{305, 484}";
}
);
layerId = "36495FFF-A792-4E19-9295-2592132C4E2F";
paths = (
{
closed = 1;
nodes = (
"346 -10 OFFCURVE",
"418 34 OFFCURVE",
"439 104 CURVE",
"427 104 LINE",
"428 0 LINE",
"552 0 LINE",
"552 379 LINE SMOOTH",
"552 420 OFFCURVE",
"556 463 OFFCURVE",
"560 505 CURVE",
"440 505 LINE",
"429 399 LINE",
"440 399 LINE",
"419 470 OFFCURVE",
"348 515 OFFCURVE",
"263 515 CURVE SMOOTH",
"130 515 OFFCURVE",
"41 416 OFFCURVE",
"41 253 CURVE SMOOTH",
"41 89 OFFCURVE",
"130 -10 OFFCURVE",
"263 -10 CURVE SMOOTH"
);
},
{
closed = 1;
nodes = (
"218 86 OFFCURVE",
"167 141 OFFCURVE",
"167 253 CURVE SMOOTH",
"167 365 OFFCURVE",
"219 419 OFFCURVE",
"298 419 CURVE SMOOTH",
"377 419 OFFCURVE",
"429 365 OFFCURVE",
"429 253 CURVE SMOOTH",
"429 141 OFFCURVE",
"377 86 OFFCURVE",
"298 86 CURVE SMOOTH"
);
}
);
width = 620;
}
);
leftKerningGroup = a;
rightKerningGroup = n;
unicode = 0061;
userData = {
anchors = (
);
b = {
};
com.typemytype.robofont.layerData = {
b = {
anchors = (
);
components = (
);
contours = (
);
lib = {
};
name = a;
unicodes = (
);
width = 1040;
};
};
components = (
);
contours = (
);
lib = {
};
name = a;
unicodes = (
);
width = 1101;
};
},
{
glyphname = aogonek;
layers = (
{
background = {
paths = (
{
closed = 1;
nodes = (
"503 501 LINE",
"449 501 LINE",
"449 366 LINE",
"461 375 LINE",
"438 464 OFFCURVE",
"371 513 OFFCURVE",
"275 513 CURVE SMOOTH",
"142 513 OFFCURVE",
"52 409 OFFCURVE",
"52 251 CURVE SMOOTH",
"52 94 OFFCURVE",
"140 -7 OFFCURVE",
"275 -7 CURVE SMOOTH",
"371 -7 OFFCURVE",
"438 42 OFFCURVE",
"461 132 CURVE",
"449 114 LINE",
"449 0 LINE",
"466 0 LINE",
"487 39 LINE",
"404 26 OFFCURVE",
"353 -24 OFFCURVE",
"353 -91 CURVE SMOOTH",
"353 -154 OFFCURVE",
"400 -197 OFFCURVE",
"469 -197 CURVE SMOOTH",
"501 -197 OFFCURVE",
"530 -189 OFFCURVE",
"552 -174 CURVE",
"535 -134 LINE",
"513 -147 OFFCURVE",
"492 -154 OFFCURVE",
"474 -154 CURVE SMOOTH",
"431 -154 OFFCURVE",
"404 -127 OFFCURVE",
"404 -85 CURVE SMOOTH",
"404 -35 OFFCURVE",
"443 0 OFFCURVE",
"499 0 CURVE SMOOTH",
"503 0 LINE"
);
},
{
closed = 1;
nodes = (
"173 42 OFFCURVE",
"109 118 OFFCURVE",
"109 251 CURVE SMOOTH",
"109 385 OFFCURVE",
"173 464 OFFCURVE",
"280 464 CURVE SMOOTH",
"388 464 OFFCURVE",
"449 388 OFFCURVE",
"449 253 CURVE SMOOTH",
"449 119 OFFCURVE",
"388 42 OFFCURVE",
"281 42 CURVE SMOOTH"
);
}
);
};
components = (
{
name = a;
},
{
name = ogonekcomb;
transform = "{1, 0, 0, 1, 495, 0}";
}
);
layerId = "2567DF27-EA2D-46C8-A1A0-FA57AF1B0F16";
width = 583;
},
{
background = {
paths = (
{
closed = 1;
nodes = (
"573 507 LINE",
"418 507 LINE",
"418 403 LINE",
"430 411 LINE",
"407 477 OFFCURVE",
"340 520 OFFCURVE",
"259 520 CURVE SMOOTH",
"127 520 OFFCURVE",
"35 410 OFFCURVE",
"35 253 CURVE SMOOTH",
"35 96 OFFCURVE",
"125 -8 OFFCURVE",
"259 -8 CURVE SMOOTH",
"340 -8 OFFCURVE",
"407 33 OFFCURVE",
"430 100 CURVE",
"418 103 LINE",
"418 0 LINE",
"462 0 LINE",
"475 38 LINE",
"413 13 OFFCURVE",
"377 -32 OFFCURVE",
"377 -88 CURVE SMOOTH",
"377 -156 OFFCURVE",
"432 -204 OFFCURVE",
"508 -204 CURVE SMOOTH",
"545 -204 OFFCURVE",
"582 -196 OFFCURVE",
"613 -183 CURVE",
"595 -109 LINE",
"575 -118 OFFCURVE",
"557 -122 OFFCURVE",
"539 -122 CURVE SMOOTH",
"499 -122 OFFCURVE",
"477 -103 OFFCURVE",
"477 -67 CURVE SMOOTH",
"477 -27 OFFCURVE",
"512 0 OFFCURVE",
"564 0 CURVE SMOOTH",
"573 0 LINE"
);
},
{
closed = 1;
nodes = (
"232 111 OFFCURVE",
"191 161 OFFCURVE",
"191 253 CURVE SMOOTH",
"191 346 OFFCURVE",
"234 400 OFFCURVE",
"305 400 CURVE SMOOTH",
"377 400 OFFCURVE",
"418 349 OFFCURVE",
"418 255 CURVE SMOOTH",
"418 162 OFFCURVE",
"377 111 OFFCURVE",
"305 111 CURVE SMOOTH"
);
}
);
};
components = (
{
name = a;
},
{
name = ogonekcomb;
transform = "{1, 0, 0, 1, 567, 0}";
}
);
layerId = "FFBF88B9-CE65-4AF8-A771-12A489880E49";
width = 657;
},
{
components = (
{
name = a;
},
{
name = ogonekcomb;
transform = "{1, 0, 0, 1, 531, 0}";
}
);
layerId = "36495FFF-A792-4E19-9295-2592132C4E2F";
width = 620;
}
);
leftKerningGroup = a;
rightKerningGroup = n;
unicode = 0105;
userData = {
com.typemytype.robofont.layerData = {
b = {
anchors = (
);
components = (
);
contours = (
);
lib = {
};
name = aogonek;
unicodes = (
);
width = 1040;
};
};
};
},
{
glyphname = aringacute;
layers = (
{
background = {
paths = (
{
closed = 1;
nodes = (
"371 -7 OFFCURVE",
"438 42 OFFCURVE",
"461 132 CURVE",
"449 140 LINE",
"449 0 LINE",
"503 0 LINE",
"503 501 LINE",
"449 501 LINE",
"449 366 LINE",
"461 375 LINE",
"438 464 OFFCURVE",
"371 513 OFFCURVE",
"275 513 CURVE SMOOTH",
"142 513 OFFCURVE",
"52 409 OFFCURVE",
"52 251 CURVE SMOOTH",
"52 94 OFFCURVE",
"140 -7 OFFCURVE",
"275 -7 CURVE SMOOTH"
);
},
{
closed = 1;
nodes = (
"173 42 OFFCURVE",
"109 118 OFFCURVE",
"109 251 CURVE SMOOTH",
"109 385 OFFCURVE",
"173 464 OFFCURVE",
"280 464 CURVE SMOOTH",
"388 464 OFFCURVE",
"449 388 OFFCURVE",
"449 253 CURVE SMOOTH",
"449 119 OFFCURVE",
"388 42 OFFCURVE",
"281 42 CURVE SMOOTH"
);
},
{
closed = 1;
nodes = (
"350 573 OFFCURVE",
"396 617 OFFCURVE",
"396 672 CURVE SMOOTH",
"396 728 OFFCURVE",
"350 772 OFFCURVE",
"295 772 CURVE SMOOTH",
"240 772 OFFCURVE",
"194 728 OFFCURVE",
"194 672 CURVE SMOOTH",
"194 617 OFFCURVE",
"240 573 OFFCURVE",
"295 573 CURVE SMOOTH"
);
},
{
closed = 1;
nodes = (
"265 619 OFFCURVE",
"243 643 OFFCURVE",
"243 672 CURVE SMOOTH",
"243 702 OFFCURVE",
"265 726 OFFCURVE",
"295 726 CURVE SMOOTH",
"325 726 OFFCURVE",
"347 702 OFFCURVE",
"347 672 CURVE SMOOTH",
"347 643 OFFCURVE",
"325 619 OFFCURVE",
"295 619 CURVE SMOOTH"
);
},
{
closed = 1;
nodes = (
"506 876 LINE",
"436 878 LINE",
"329 721 LINE",
"370 718 LINE"
);
}
);
};
components = (
{
name = a;
},
{
name = ringcomb_acutecomb;
transform = "{1, 0, 0, 1, 285, 0}";
}
);
layerId = "2567DF27-EA2D-46C8-A1A0-FA57AF1B0F16";
width = 583;
},
{
background = {
paths = (
{
closed = 1;
nodes = (
"340 -8 OFFCURVE",
"407 33 OFFCURVE",
"430 100 CURVE",
"418 102 LINE",
"418 0 LINE",
"573 0 LINE",
"573 507 LINE",
"418 507 LINE",
"418 403 LINE",
"430 411 LINE",
"407 477 OFFCURVE",
"340 520 OFFCURVE",
"259 520 CURVE SMOOTH",
"128 520 OFFCURVE",
"35 412 OFFCURVE",
"35 253 CURVE SMOOTH",
"35 94 OFFCURVE",
"127 -8 OFFCURVE",
"259 -8 CURVE SMOOTH"
);
},
{
closed = 1;
nodes = (
"232 111 OFFCURVE",
"191 161 OFFCURVE",
"191 253 CURVE SMOOTH",
"191 346 OFFCURVE",
"234 400 OFFCURVE",
"305 400 CURVE SMOOTH",
"377 400 OFFCURVE",
"418 349 OFFCURVE",
"418 255 CURVE SMOOTH",
"418 162 OFFCURVE",
"377 111 OFFCURVE",
"305 111 CURVE SMOOTH"
);
},
{
closed = 1;
nodes = (
"379 568 OFFCURVE",
"430 617 OFFCURVE",
"430 680 CURVE SMOOTH",
"430 742 OFFCURVE",
"379 790 OFFCURVE",
"316 790 CURVE SMOOTH",
"253 790 OFFCURVE",
"204 742 OFFCURVE",
"204 680 CURVE SMOOTH",
"204 617 OFFCURVE",
"253 568 OFFCURVE",
"316 568 CURVE SMOOTH"
);
},
{
closed = 1;
nodes = (
"290 632 OFFCURVE",
"272 654 OFFCURVE",
"272 680 CURVE SMOOTH",
"272 706 OFFCURVE",
"290 726 OFFCURVE",
"316 726 CURVE SMOOTH",
"342 726 OFFCURVE",
"361 706 OFFCURVE",
"361 680 CURVE SMOOTH",
"361 654 OFFCURVE",
"342 632 OFFCURVE",
"316 632 CURVE SMOOTH"
);
},
{
closed = 1;
nodes = (
"569 876 LINE",
"433 882 LINE",
"351 767 LINE",
"410 717 LINE"
);
}
);
};
components = (
{
name = a;
},
{
name = ringcomb_acutecomb;
transform = "{1, 0, 0, 1, 324, 0}";
}
);
layerId = "FFBF88B9-CE65-4AF8-A771-12A489880E49";
width = 657;
},
{
components = (
{
name = a;
},
{
name = ringcomb_acutecomb;
transform = "{1, 0, 0, 1, 305, 0}";
}
);
layerId = "36495FFF-A792-4E19-9295-2592132C4E2F";
width = 620;
}
);
unicode = 01FB;
},
{
color = 4;
glyphname = ae;
layers = (
{
anchors = (
{
name = bottom;
position = "{436, 0}";
},
{
name = top;
position = "{436, 484}";
}
);
background = {
anchors = (
{
name = bottom;
position = "{436, 0}";
},
{
name = top;
position = "{436, 506}";
}
);
paths = (
{
closed = 1;
nodes = (
"714 -7 OFFCURVE",
"787 21 OFFCURVE",
"829 62 CURVE",
"808 105 LINE",
"755 63 OFFCURVE",
"701 42 OFFCURVE",
"646 42 CURVE SMOOTH",
"529 42 OFFCURVE",
"463 117 OFFCURVE",
"463 254 CURVE SMOOTH",
"463 385 OFFCURVE",
"529 467 OFFCURVE",
"634 467 CURVE SMOOTH",
"735 467 OFFCURVE",
"791 395 OFFCURVE",
"788 264 CURVE",
"808 304 LINE",
"442 304 LINE",
"443 259 LINE",
"838 259 LINE",
"838 270 LINE SMOOTH",
"838 422 OFFCURVE",
"762 513 OFFCURVE",
"634 513 CURVE SMOOTH",
"501 513 OFFCURVE",
"409 405 OFFCURVE",
"414 249 CURVE SMOOTH",
"419 87 OFFCURVE",
"505 -7 OFFCURVE",
"647 -7 CURVE SMOOTH"
);
},
{
closed = 1;
nodes = (
"357 -7 OFFCURVE",
"430 64 OFFCURVE",
"442 177 CURVE",
"461 176 LINE",
"461 331 LINE",
"461 451 OFFCURVE",
"402 513 OFFCURVE",
"283 513 CURVE SMOOTH",
"215 513 OFFCURVE",
"139 490 OFFCURVE",
"90 452 CURVE",
"112 409 LINE",
"171 446 OFFCURVE",
"226 464 OFFCURVE",
"287 464 CURVE SMOOTH",
"373 464 OFFCURVE",
"408 422 OFFCURVE",
"408 324 CURVE SMOOTH",
"408 215 LINE SMOOTH",
"408 113 OFFCURVE",
"342 42 OFFCURVE",
"251 42 CURVE SMOOTH",
"179 42 OFFCURVE",
"127 85 OFFCURVE",
"127 152 CURVE SMOOTH",
"127 228 OFFCURVE",
"183 259 OFFCURVE",
"368 259 CURVE SMOOTH",
"419 259 LINE",
"419 304 LINE",
"366 304 LINE SMOOTH",
"145 304 OFFCURVE",
"68 258 OFFCURVE",
"69 147 CURVE SMOOTH",
"70 56 OFFCURVE",
"147 -7 OFFCURVE",
"248 -7 CURVE SMOOTH"
);
}
);
};
layerId = "2567DF27-EA2D-46C8-A1A0-FA57AF1B0F16";
paths = (
{
closed = 1;
nodes = (
"349 -8 OFFCURVE",
"424 56 OFFCURVE",
"442 163 CURVE",
"423 163 LINE",
"450 52 OFFCURVE",
"527 -8 OFFCURVE",
"647 -8 CURVE SMOOTH",
"716 -8 OFFCURVE",
"789 18 OFFCURVE",
"831 64 CURVE",
"810 97 LINE",
"759 51 OFFCURVE",
"706 31 OFFCURVE",
"646 31 CURVE SMOOTH",
"524 31 OFFCURVE",
"456 118 OFFCURVE",
"456 260 CURVE SMOOTH",
"456 267 LINE SMOOTH",
"456 398 OFFCURVE",
"526 470 OFFCURVE",
"636 470 CURVE SMOOTH",
"743 470 OFFCURVE",
"800 397 OFFCURVE",
"800 280 CURVE",
"817 293 LINE",
"445 293 LINE",
"445 255 LINE",
"839 255 LINE",
"839 279 LINE SMOOTH",
"839 420 OFFCURVE",
"763 508 OFFCURVE",
"639 508 CURVE SMOOTH",
"541 508 OFFCURVE",
"469 458 OFFCURVE",
"435 366 CURVE",
"454 366 LINE",
"442 458 OFFCURVE",
"390 508 OFFCURVE",
"283 508 CURVE SMOOTH",
"214 508 OFFCURVE",
"144 486 OFFCURVE",
"93 449 CURVE",
"113 413 LINE",
"169 453 OFFCURVE",
"221 469 OFFCURVE",
"285 469 CURVE SMOOTH",
"371 469 OFFCURVE",
"413 428 OFFCURVE",
"413 328 CURVE SMOOTH",
"413 209 LINE SMOOTH",
"413 103 OFFCURVE",
"345 30 OFFCURVE",
"250 30 CURVE SMOOTH",
"169 30 OFFCURVE",
"118 76 OFFCURVE",
"118 144 CURVE SMOOTH",
"118 233 OFFCURVE",
"171 256 OFFCURVE",
"371 256 CURVE SMOOTH",
"421 256 LINE",
"421 293 LINE",
"369 293 LINE SMOOTH",
"143 293 OFFCURVE",
"72 259 OFFCURVE",
"72 141 CURVE SMOOTH",
"72 55 OFFCURVE",
"147 -8 OFFCURVE",
"247 -8 CURVE SMOOTH"
);
}
);
width = 890;
},
{
anchors = (
{
name = bottom;
position = "{404, 0}";
},
{
name = top;
position = "{432, 484}";
}
);
background = {
anchors = (
{
name = bottom;
position = "{431, 0}";
},
{
name = top;
position = "{431, 511}";
}
);
paths = (
{
closed = 1;
nodes = (
"697 -8 OFFCURVE",
"774 15 OFFCURVE",
"822 54 CURVE",
"781 159 LINE",
"736 127 OFFCURVE",
"683 109 OFFCURVE",
"636 109 CURVE SMOOTH",
"542 109 OFFCURVE",
"505 166 OFFCURVE",
"505 251 CURVE SMOOTH",
"505 365 OFFCURVE",
"542 411 OFFCURVE",
"609 411 CURVE SMOOTH",
"667 411 OFFCURVE",
"699 367 OFFCURVE",
"698 286 CURVE",
"737 317 LINE",
"495 317 LINE",
"494 240 LINE",
"831 240 LINE",
"831 262 LINE SMOOTH",
"831 416 OFFCURVE",
"743 520 OFFCURVE",
"613 520 CURVE SMOOTH",
"471 520 OFFCURVE",
"376 413 OFFCURVE",
"376 255 CURVE SMOOTH",
"377 87 OFFCURVE",
"467 -8 OFFCURVE",
"626 -8 CURVE SMOOTH"
);
},
{
closed = 1;
nodes = (
"359 -8 OFFCURVE",
"439 67 OFFCURVE",
"439 198 CURVE",
"490 208 LINE",
"490 300 LINE SMOOTH",
"490 450 OFFCURVE",
"425 520 OFFCURVE",
"284 520 CURVE SMOOTH",
"211 520 OFFCURVE",
"117 493 OFFCURVE",
"60 457 CURVE",
"101 351 LINE",
"156 383 OFFCURVE",
"220 402 OFFCURVE",
"275 402 CURVE SMOOTH",
"333 402 OFFCURVE",
"356 378 OFFCURVE",
"356 320 CURVE SMOOTH",
"356 209 LINE SMOOTH",
"356 148 OFFCURVE",
"325 100 OFFCURVE",
"263 100 CURVE SMOOTH",
"220 100 OFFCURVE",
"191 125 OFFCURVE",
"191 165 CURVE SMOOTH",
"191 215 OFFCURVE",
"229 242 OFFCURVE",
"328 242 CURVE SMOOTH",
"363 242 LINE",
"363 317 LINE",
"319 317 LINE SMOOTH",
"117 317 OFFCURVE",
"39 269 OFFCURVE",
"39 159 CURVE SMOOTH",
"39 59 OFFCURVE",
"125 -8 OFFCURVE",
"242 -8 CURVE SMOOTH"
);
}
);
};
layerId = "FFBF88B9-CE65-4AF8-A771-12A489880E49";
paths = (
{
closed = 1;
nodes = (
"318 -12 OFFCURVE",
"387 29 OFFCURVE",
"417 100 CURVE",
"386 100 LINE",
"430 28 OFFCURVE",
"507 -12 OFFCURVE",
"622 -12 CURVE SMOOTH",
"698 -12 OFFCURVE",
"771 4 OFFCURVE",
"824 39 CURVE",
"772 174 LINE",
"731 148 OFFCURVE",
"682 140 OFFCURVE",
"631 140 CURVE SMOOTH",
"554 140 OFFCURVE",
"521 171 OFFCURVE",
"521 261 CURVE SMOOTH",
"521 271 LINE SMOOTH",
"521 352 OFFCURVE",
"546 387 OFFCURVE",
"593 387 CURVE SMOOTH",
"630 387 OFFCURVE",
"656 359 OFFCURVE",
"656 293 CURVE",
"673 312 LINE",
"507 312 LINE",
"507 218 LINE",
"828 218 LINE",
"828 258 LINE SMOOTH",
"828 425 OFFCURVE",
"737 522 OFFCURVE",
"593 522 CURVE SMOOTH",
"523 522 OFFCURVE",
"473 499 OFFCURVE",
"418 450 CURVE",
"461 450 LINE",
"422 501 OFFCURVE",
"351 522 OFFCURVE",
"263 522 CURVE SMOOTH",
"180 522 OFFCURVE",
"92 500 OFFCURVE",
"38 468 CURVE",
"90 332 LINE",
"149 359 OFFCURVE",
"197 370 OFFCURVE",
"250 370 CURVE SMOOTH",
"303 370 OFFCURVE",
"326 356 OFFCURVE",
"326 319 CURVE SMOOTH",
"326 196 LINE SMOOTH",
"326 151 OFFCURVE",
"292 123 OFFCURVE",
"250 123 CURVE SMOOTH",
"214 123 OFFCURVE",
"196 141 OFFCURVE",
"196 166 CURVE SMOOTH",
"196 195 OFFCURVE",
"227 218 OFFCURVE",
"288 218 CURVE SMOOTH",
"341 218 LINE",
"341 312 LINE",
"292 312 LINE SMOOTH",
"88 312 OFFCURVE",
"18 266 OFFCURVE",
"18 159 CURVE SMOOTH",
"18 72 OFFCURVE",
"89 -12 OFFCURVE",
"218 -12 CURVE SMOOTH"
);
}
);
width = 854;
},
{
anchors = (
{
name = bottom;
position = "{420, 0}";
},
{
name = top;
position = "{434, 484}";
}
);
layerId = "36495FFF-A792-4E19-9295-2592132C4E2F";
paths = (
{
closed = 1;
nodes = (
"334 -10 OFFCURVE",
"406 43 OFFCURVE",
"430 132 CURVE",
"405 132 LINE",
"440 40 OFFCURVE",
"517 -10 OFFCURVE",
"635 -10 CURVE SMOOTH",
"707 -10 OFFCURVE",
"780 11 OFFCURVE",
"828 52 CURVE",
"791 136 LINE",
"745 100 OFFCURVE",
"694 86 OFFCURVE",
"639 86 CURVE SMOOTH",
"539 86 OFFCURVE",
"489 145 OFFCURVE",
"489 261 CURVE SMOOTH",
"489 269 LINE SMOOTH",
"489 375 OFFCURVE",
"536 429 OFFCURVE",
"615 429 CURVE SMOOTH",
"687 429 OFFCURVE",
"728 378 OFFCURVE",
"728 287 CURVE",
"745 303 LINE",
"476 303 LINE",
"476 237 LINE",
"834 237 LINE",
"834 269 LINE SMOOTH",
"834 423 OFFCURVE",
"750 515 OFFCURVE",
"616 515 CURVE SMOOTH",
"532 515 OFFCURVE",
"471 479 OFFCURVE",
"427 408 CURVE",
"458 408 LINE",
"432 480 OFFCURVE",
"371 515 OFFCURVE",
"273 515 CURVE SMOOTH",
"197 515 OFFCURVE",
"118 493 OFFCURVE",
"66 459 CURVE",
"102 373 LINE",
"159 406 OFFCURVE",
"209 420 OFFCURVE",
"268 420 CURVE SMOOTH",
"337 420 OFFCURVE",
"370 392 OFFCURVE",
"370 324 CURVE SMOOTH",
"370 203 LINE SMOOTH",
"370 127 OFFCURVE",
"319 77 OFFCURVE",
"250 77 CURVE SMOOTH",
"192 77 OFFCURVE",
"157 109 OFFCURVE",
"157 155 CURVE SMOOTH",
"157 214 OFFCURVE",
"199 237 OFFCURVE",
"330 237 CURVE SMOOTH",
"381 237 LINE",
"381 303 LINE",
"331 303 LINE SMOOTH",
"116 303 OFFCURVE",
"45 263 OFFCURVE",
"45 150 CURVE SMOOTH",
"45 64 OFFCURVE",
"118 -10 OFFCURVE",
"233 -10 CURVE SMOOTH"
);
}
);
width = 872;
}
);
leftKerningGroup = a;
rightKerningGroup = e;
unicode = 00E6;
userData = {
com.typemytype.robofont.layerData = {
b = {
anchors = (
);
components = (
);
contours = (
);
lib = {
};
name = ae;
unicodes = (
);
width = 1734;
};
};
};
},
{
color = 4;
glyphname = b;
layers = (
{
anchors = (
{
name = bottom;
position = "{321, 0}";
},
{
name = top;
position = "{310, 735}";
}
);
background = {
anchors = (
{
name = bottom;
position = "{311, 0}";
},
{
name = top;
position = "{313, 506}";
}
);
paths = (
{
closed = 1;
nodes = (
"139 0 LINE",
"139 139 LINE",
"128 132 LINE",
"151 42 OFFCURVE",
"218 -7 OFFCURVE",
"313 -7 CURVE SMOOTH",
"446 -7 OFFCURVE",
"536 97 OFFCURVE",
"536 255 CURVE SMOOTH",
"536 412 OFFCURVE",
"447 513 OFFCURVE",
"313 513 CURVE SMOOTH",
"218 513 OFFCURVE",
"151 464 OFFCURVE",
"128 374 CURVE",
"138 367 LINE",
"138 736 LINE",
"85 736 LINE",
"85 0 LINE"
);
},
{
closed = 1;
nodes = (
"199 42 OFFCURVE",
"139 119 OFFCURVE",
"139 253 CURVE SMOOTH",
"139 387 OFFCURVE",
"199 464 OFFCURVE",
"308 464 CURVE SMOOTH",
"415 464 OFFCURVE",
"479 388 OFFCURVE",
"479 255 CURVE SMOOTH",
"479 121 OFFCURVE",
"415 42 OFFCURVE",
"309 42 CURVE SMOOTH"
);
}
);
};
layerId = "2567DF27-EA2D-46C8-A1A0-FA57AF1B0F16";
paths = (
{
closed = 1;
nodes = (
"442 -8 OFFCURVE",
"529 89 OFFCURVE",
"529 250 CURVE SMOOTH",
"529 411 OFFCURVE",
"443 508 OFFCURVE",
"308 508 CURVE SMOOTH",
"212 508 OFFCURVE",
"142 455 OFFCURVE",
"119 369 CURVE",
"130 369 LINE",
"130 736 LINE",
"88 736 LINE",
"88 0 LINE",
"130 0 LINE",
"130 131 LINE",
"119 131 LINE",
"142 44 OFFCURVE",
"212 -8 OFFCURVE",
"308 -8 CURVE SMOOTH"
);
},
{
closed = 1;
nodes = (
"198 31 OFFCURVE",
"129 109 OFFCURVE",
"129 250 CURVE SMOOTH",
"129 391 OFFCURVE",
"198 469 OFFCURVE",
"307 469 CURVE SMOOTH",
"416 469 OFFCURVE",
"486 391 OFFCURVE",
"486 250 CURVE SMOOTH",
"486 109 OFFCURVE",
"416 31 OFFCURVE",
"307 31 CURVE SMOOTH"
);
}
);
width = 583;
},
{
anchors = (
{
name = bottom;
position = "{313, 0}";
},
{
name = top;
position = "{336, 735}";
}
);
background = {
anchors = (
{
name = bottom;
position = "{318, 0}";
},
{
name = top;
position = "{375, 511}";
}
);
paths = (
{
closed = 1;
nodes = (
"215 0 LINE",
"215 123 LINE",
"204 100 LINE",
"226 33 OFFCURVE",
"293 -8 OFFCURVE",
"375 -8 CURVE SMOOTH",
"506 -8 OFFCURVE",
"599 99 OFFCURVE",
"599 258 CURVE SMOOTH",
"599 417 OFFCURVE",
"507 520 OFFCURVE",
"375 520 CURVE SMOOTH",
"293 520 OFFCURVE",
"226 477 OFFCURVE",
"204 411 CURVE",
"217 392 LINE",
"217 736 LINE",
"60 736 LINE",
"60 0 LINE"
);
},
{
closed = 1;
nodes = (
"256 111 OFFCURVE",
"215 162 OFFCURVE",
"215 256 CURVE SMOOTH",
"215 348 OFFCURVE",
"256 400 OFFCURVE",
"329 400 CURVE SMOOTH",
"402 400 OFFCURVE",
"442 349 OFFCURVE",
"442 258 CURVE SMOOTH",
"442 164 OFFCURVE",
"401 111 OFFCURVE",
"329 111 CURVE SMOOTH"
);
}
);
};
layerId = "FFBF88B9-CE65-4AF8-A771-12A489880E49";
paths = (
{
closed = 1;
nodes = (
"535 -12 OFFCURVE",
"630 86 OFFCURVE",
"630 253 CURVE SMOOTH",
"630 419 OFFCURVE",
"536 522 OFFCURVE",
"406 522 CURVE SMOOTH",
"334 522 OFFCURVE",
"265 486 OFFCURVE",
"243 434 CURVE",
"256 434 LINE",
"256 736 LINE",
"48 736 LINE",
"48 0 LINE",
"253 0 LINE",
"253 82 LINE",
"242 82 LINE",
"262 26 OFFCURVE",
"332 -12 OFFCURVE",
"406 -12 CURVE SMOOTH"
);
},
{
closed = 1;
nodes = (
"288 141 OFFCURVE",
"253 172 OFFCURVE",
"253 255 CURVE SMOOTH",
"253 338 OFFCURVE",
"288 369 OFFCURVE",
"337 369 CURVE SMOOTH",
"385 369 OFFCURVE",
"421 336 OFFCURVE",
"421 253 CURVE SMOOTH",
"421 170 OFFCURVE",
"385 141 OFFCURVE",
"337 141 CURVE SMOOTH"
);
}
);
width = 657;
},
{
anchors = (
{
name = bottom;
position = "{317, 0}";
},
{
name = top;
position = "{323, 735}";
}
);
layerId = "36495FFF-A792-4E19-9295-2592132C4E2F";
paths = (
{
closed = 1;
nodes = (
"489 -10 OFFCURVE",
"580 88 OFFCURVE",
"580 252 CURVE SMOOTH",
"580 415 OFFCURVE",
"490 515 OFFCURVE",
"357 515 CURVE SMOOTH",
"273 515 OFFCURVE",
"204 471 OFFCURVE",
"181 402 CURVE",
"193 402 LINE",
"193 736 LINE",
"68 736 LINE",
"68 0 LINE",
"192 0 LINE",
"192 107 LINE",
"181 107 LINE",
"202 35 OFFCURVE",
"272 -10 OFFCURVE",
"357 -10 CURVE SMOOTH"
);
},
{
closed = 1;
nodes = (
"243 86 OFFCURVE",
"191 141 OFFCURVE",
"191 253 CURVE SMOOTH",
"191 365 OFFCURVE",
"243 419 OFFCURVE",
"322 419 CURVE SMOOTH",
"401 419 OFFCURVE",
"454 364 OFFCURVE",
"454 252 CURVE SMOOTH",
"454 140 OFFCURVE",
"401 86 OFFCURVE",
"322 86 CURVE SMOOTH"
);
}
);
width = 620;
}
);
leftKerningGroup = h;
rightKerningGroup = o;
unicode = 0062;
userData = {
anchors = (
);
b = {
};
com.typemytype.robofont.layerData = {
b = {
anchors = (
);
components = (
);
contours = (
{
points = (
{
segmentType = curve;
smooth = 1;
x = 238;
y = 1425;
},
{
smooth = 0;
x = 198;
y = 1425;
},
{
smooth = 0;
x = 158;
y = 1400;
},
{
segmentType = curve;
smooth = 1;
x = 158;
y = 1351;
},
{
segmentType = line;
smooth = 1;
x = 158;
y = 76;
},
{
smooth = 0;
x = 158;
y = 27;
},
{
smooth = 0;
x = 197;
y = 3;
},
{
segmentType = curve;
smooth = 1;
x = 237;
y = 3;
},
{
smooth = 0;
x = 297;
y = 3;
},
{
smooth = 0;
x = 318;
y = 38;
},
{
segmentType = curve;
smooth = 1;
x = 318;
y = 76;
},
{
segmentType = line;
smooth = 0;
x = 318;
y = 183;
},
{
smooth = 0;
x = 384;
y = 46;
},
{
smooth = 0;
x = 516;
y = "-20";
},
{
segmentType = curve;
smooth = 1;
x = 666;
y = "-20";
},
{
smooth = 0;
x = 957;
y = "-20";
},
{
smooth = 0;
x = 1095;
y = 225;
},
{
segmentType = curve;
smooth = 1;
x = 1095;
y = 502;
},
{
smooth = 0;
x = 1095;
y = 777;
},
{
smooth = 0;
x = 939;
y = 1013;
},
{
segmentType = curve;
smooth = 1;
x = 650;
y = 1013;
},
{
smooth = 0;
x = 503;
y = 1013;
},
{
smooth = 0;
x = 376;
y = 942;
},
{
segmentType = curve;
smooth = 0;
x = 318;
y = 814;
},
{
segmentType = line;
smooth = 1;
x = 318;
y = 1351;
},
{
smooth = 0;
x = 318;
y = 1400;
},
{
smooth = 0;
x = 278;
y = 1425;
}
);
},
{
points = (
{
segmentType = curve;
smooth = 1;
x = 632;
y = 903;
},
{
smooth = 0;
x = 859;
y = 903;
},
{
smooth = 0;
x = 935;
y = 685;
},
{
segmentType = curve;
smooth = 1;
x = 935;
y = 496;
},
{
smooth = 0;
x = 935;
y = 316;
},
{
smooth = 0;
x = 869;
y = 93;
},
{
segmentType = curve;
smooth = 0;
x = 645;
y = 90;
},
{
smooth = 0;
x = 395;
y = 90;
},
{
smooth = 0;
x = 319;
y = 279;
},
{
segmentType = curve;
smooth = 1;
x = 319;
y = 501;
},
{
smooth = 0;
x = 319;
y = 701;
},
{
smooth = 0;
x = 407;
y = 903;
}
);
}
);
lib = {
};
name = b;
unicodes = (
);
width = 1181;
};
};
components = (
);
contours = (
);
lib = {
};
name = b;
unicodes = (
);
width = 1203;
};
},
{
color = 4;
glyphname = bhook;
production = uni0253;
layers = (
{
background = {
paths = (
{
closed = 1;
nodes = (
"443 -8 OFFCURVE",
"529 89 OFFCURVE",
"529 250 CURVE SMOOTH",
"529 411 OFFCURVE",
"444 508 OFFCURVE",
"309 508 CURVE SMOOTH",
"213 508 OFFCURVE",
"142 455 OFFCURVE",
"119 369 CURVE",
"130 369 LINE",
"130 596 LINE SMOOTH",
"130 667 OFFCURVE",
"166 706 OFFCURVE",
"236 706 CURVE SMOOTH",
"250 706 OFFCURVE",
"258 705 OFFCURVE",
"276 700 CURVE",
"282 737 LINE",
"267 742 OFFCURVE",
"253 744 OFFCURVE",
"234 744 CURVE SMOOTH",
"140 744 OFFCURVE",
"88 692 OFFCURVE",
"88 594 CURVE SMOOTH",
"88 0 LINE",
"130 0 LINE",
"130 131 LINE",
"119 131 LINE",
"142 44 OFFCURVE",
"213 -8 OFFCURVE",
"309 -8 CURVE SMOOTH"
);
},
{
closed = 1;
nodes = (
"199 31 OFFCURVE",
"129 109 OFFCURVE",
"129 250 CURVE SMOOTH",
"129 391 OFFCURVE",
"199 469 OFFCURVE",
"308 469 CURVE SMOOTH",
"417 469 OFFCURVE",
"486 391 OFFCURVE",
"486 250 CURVE SMOOTH",
"486 109 OFFCURVE",
"417 31 OFFCURVE",
"308 31 CURVE SMOOTH"
);
}
);
};
layerId = "2567DF27-EA2D-46C8-A1A0-FA57AF1B0F16";
paths = (
{
closed = 1;
nodes = (
"443 -8 OFFCURVE",
"529 89 OFFCURVE",
"529 250 CURVE SMOOTH",
"529 411 OFFCURVE",
"444 508 OFFCURVE",
"309 508 CURVE SMOOTH",
"213 508 OFFCURVE",
"142 455 OFFCURVE",
"119 369 CURVE",
"130 369 LINE",
"130 596 LINE SMOOTH",
"130 667 OFFCURVE",
"166 706 OFFCURVE",
"236 706 CURVE SMOOTH",
"250 706 OFFCURVE",
"258 705 OFFCURVE",
"276 700 CURVE",
"282 737 LINE",
"267 742 OFFCURVE",
"253 744 OFFCURVE",
"234 744 CURVE SMOOTH",
"140 744 OFFCURVE",
"88 692 OFFCURVE",
"88 594 CURVE SMOOTH",
"88 0 LINE",
"130 0 LINE",
"130 131 LINE",
"119 131 LINE",
"142 44 OFFCURVE",
"213 -8 OFFCURVE",
"309 -8 CURVE SMOOTH"
);
},
{
closed = 1;
nodes = (
"199 31 OFFCURVE",
"129 109 OFFCURVE",
"129 250 CURVE SMOOTH",
"129 391 OFFCURVE",
"199 469 OFFCURVE",
"308 469 CURVE SMOOTH",
"417 469 OFFCURVE",
"486 391 OFFCURVE",
"486 250 CURVE SMOOTH",
"486 109 OFFCURVE",
"417 31 OFFCURVE",
"308 31 CURVE SMOOTH"
);
}
);
width = 583;
},
{
background = {
paths = (
{
closed = 1;
nodes = (
"535 -12 OFFCURVE",
"630 88 OFFCURVE",
"630 255 CURVE SMOOTH",
"630 421 OFFCURVE",
"536 522 OFFCURVE",
"406 522 CURVE SMOOTH",
"334 522 OFFCURVE",
"265 486 OFFCURVE",
"243 434 CURVE",
"256 434 LINE",
"256 508 LINE",
"256 561 OFFCURVE",
"279 589 OFFCURVE",
"324 589 CURVE SMOOTH",
"338 589 OFFCURVE",
"349 588 OFFCURVE",
"364 584 CURVE",
"387 735 LINE",
"365 743 OFFCURVE",
"328 748 OFFCURVE",
"302 748 CURVE SMOOTH",
"133 748 OFFCURVE",
"48 655 OFFCURVE",
"48 512 CURVE SMOOTH",
"48 0 LINE",
"253 0 LINE",
"253 82 LINE",
"242 82 LINE",
"262 26 OFFCURVE",
"332 -12 OFFCURVE",
"406 -12 CURVE SMOOTH"
);
},
{
closed = 1;
nodes = (
"288 141 OFFCURVE",
"253 172 OFFCURVE",
"253 255 CURVE SMOOTH",
"253 338 OFFCURVE",
"288 369 OFFCURVE",
"337 369 CURVE SMOOTH",
"385 369 OFFCURVE",
"421 338 OFFCURVE",
"421 255 CURVE SMOOTH",
"421 172 OFFCURVE",
"385 141 OFFCURVE",
"337 141 CURVE SMOOTH"
);
}
);
};
layerId = "FFBF88B9-CE65-4AF8-A771-12A489880E49";
paths = (
{
closed = 1;
nodes = (
"535 -12 OFFCURVE",
"630 88 OFFCURVE",
"630 255 CURVE SMOOTH",
"630 421 OFFCURVE",
"536 522 OFFCURVE",
"406 522 CURVE SMOOTH",
"334 522 OFFCURVE",
"265 486 OFFCURVE",
"243 434 CURVE",
"256 434 LINE",
"256 508 LINE",
"256 561 OFFCURVE",
"279 589 OFFCURVE",
"324 589 CURVE SMOOTH",
"338 589 OFFCURVE",
"349 588 OFFCURVE",
"364 584 CURVE",
"387 735 LINE",
"365 743 OFFCURVE",
"328 748 OFFCURVE",
"302 748 CURVE SMOOTH",
"133 748 OFFCURVE",
"48 655 OFFCURVE",
"48 512 CURVE SMOOTH",
"48 0 LINE",
"253 0 LINE",
"253 82 LINE",
"242 82 LINE",
"262 26 OFFCURVE",
"332 -12 OFFCURVE",
"406 -12 CURVE SMOOTH"
);
},
{
closed = 1;
nodes = (
"288 141 OFFCURVE",
"253 172 OFFCURVE",
"253 255 CURVE SMOOTH",
"253 338 OFFCURVE",
"288 369 OFFCURVE",
"337 369 CURVE SMOOTH",
"385 369 OFFCURVE",
"421 338 OFFCURVE",
"421 255 CURVE SMOOTH",
"421 172 OFFCURVE",
"385 141 OFFCURVE",
"337 141 CURVE SMOOTH"
);
}
);
width = 657;
},
{
layerId = "36495FFF-A792-4E19-9295-2592132C4E2F";
paths = (
{
closed = 1;
nodes = (
"489 -10 OFFCURVE",
"580 89 OFFCURVE",
"580 253 CURVE SMOOTH",
"580 416 OFFCURVE",
"490 515 OFFCURVE",
"358 515 CURVE SMOOTH",
"274 515 OFFCURVE",
"204 471 OFFCURVE",
"181 402 CURVE",
"193 402 LINE",
"193 552 LINE SMOOTH",
"193 614 OFFCURVE",
"223 648 OFFCURVE",
"280 648 CURVE SMOOTH",
"294 648 OFFCURVE",
"304 647 OFFCURVE",
"320 642 CURVE",
"335 736 LINE",
"316 743 OFFCURVE",
"291 746 OFFCURVE",
"268 746 CURVE SMOOTH",
"137 746 OFFCURVE",
"68 674 OFFCURVE",
"68 553 CURVE SMOOTH",
"68 0 LINE",
"192 0 LINE",
"192 107 LINE",
"181 107 LINE",
"202 35 OFFCURVE",
"273 -10 OFFCURVE",
"358 -10 CURVE SMOOTH"
);
},
{
closed = 1;
nodes = (
"244 86 OFFCURVE",
"191 141 OFFCURVE",
"191 253 CURVE SMOOTH",
"191 365 OFFCURVE",
"244 419 OFFCURVE",
"323 419 CURVE SMOOTH",
"401 419 OFFCURVE",
"454 365 OFFCURVE",
"454 253 CURVE SMOOTH",
"454 141 OFFCURVE",
"401 86 OFFCURVE",
"323 86 CURVE SMOOTH"
);
}
);
width = 620;
}
);
leftKerningGroup = h;
rightKerningGroup = o;
unicode = 0253;
},
